<svg width="260" height="170" viewBox="0 0 260 170" fill="none" xmlns="http://www.w3.org/2000/svg">
<path fill-rule="evenodd" clip-rule="evenodd" d="M74.6982 39.5932V40.1967C74.6982 40.3658 74.8009 40.528 74.9838 40.6475C75.1666 40.7671 75.4146 40.8342 75.6732 40.8342C75.9318 40.8342 76.1798 40.7671 76.3626 40.6475C76.5455 40.528 76.6482 40.3658 76.6482 40.1967V39.5592C76.6348 39.3916 76.5235 39.2337 76.3372 39.1183C76.1509 39.0028 75.9039 38.9385 75.6472 38.9387C75.5186 38.9398 75.3917 38.9577 75.2738 38.9914C75.156 39.0251 75.0497 39.0739 74.9613 39.1349C74.8728 39.1959 74.8039 39.2679 74.7587 39.3467C74.7136 39.4254 74.693 39.5092 74.6982 39.5932ZM74.3212 37.8167C75.7512 37.5957 76.9212 36.9667 74.8412 37.0517C74.326 37.0987 73.8173 37.1726 73.3202 37.2727C71.3702 37.7997 73.0602 38.0122 74.3212 37.8167ZM193.596 43.7327C192.997 44.5546 191.995 45.2218 190.749 45.6282C190.701 45.6395 190.66 45.6614 190.634 45.6902C190.607 45.719 190.597 45.7528 190.605 45.786C190.613 45.8192 190.638 45.8496 190.676 45.8719C190.714 45.8943 190.763 45.9073 190.814 45.9087C191.235 45.9572 191.667 45.9371 192.074 45.8502C192.48 45.7634 192.847 45.6124 193.142 45.4107C193.438 45.2091 193.653 44.9628 193.768 44.6939C193.884 44.4249 193.896 44.1415 193.804 43.8687C193.804 43.8327 193.782 43.7981 193.743 43.7726C193.704 43.7471 193.651 43.7327 193.596 43.7327ZM188.422 36.9922C188.172 36.9504 187.907 36.9741 187.684 37.0583C187.46 37.1425 187.296 37.2804 187.226 37.4427C187.108 37.7194 187.086 38.0098 187.161 38.2927C187.161 38.4618 187.264 38.624 187.447 38.7435C187.63 38.8631 187.878 38.9302 188.136 38.9302C188.395 38.9302 188.643 38.8631 188.826 38.7435C189.008 38.624 189.111 38.4618 189.111 38.2927C189.111 37.6807 189.319 37.1537 188.422 36.9922ZM143.715 120.505C142.662 120.156 122.525 121.015 122.018 122.494C121.914 122.817 122.239 124.058 122.811 124.262C123.942 124.653 143.312 123.939 144.378 122.562C144.681 122.227 144.781 121.83 144.659 121.449C144.536 121.068 144.199 120.731 143.715 120.505ZM123.058 123.905C122.657 123.493 122.441 123.016 122.434 122.528C122.694 121.763 133.419 121.346 134.602 121.295C134.574 121.982 134.844 122.66 135.382 123.25C133.9 123.403 123.76 124.151 123.058 123.93V123.905ZM143.429 122.205C142.402 122.681 137.189 123.114 135.941 123.216C136.05 122.543 135.832 121.865 135.317 121.278C136.864 121.21 141.817 121.032 143.286 121.117C143.676 121.304 143.689 121.882 143.429 122.222V122.205ZM109.551 122.519C109.516 122.505 109.476 122.497 109.434 122.497C109.393 122.497 109.352 122.505 109.317 122.519C109.317 122.434 84.4872 131.58 83.7332 132.549C83.6996 132.596 83.6822 132.647 83.6822 132.698C83.6822 132.749 83.6996 132.8 83.7332 132.847C84.5262 134.334 110.435 149.651 111.514 150C111.826 150.102 112.216 149.923 113.438 149.498C116.038 148.589 138.229 140.837 140.517 139.587C141.154 139.162 141.544 135.337 141.193 134.904C140.842 134.47 109.551 122.604 109.551 122.519ZM111.8 149.294C109.031 147.858 87.1002 134.938 84.6692 132.745C86.9312 131.351 108.81 123.063 109.473 122.808C112.827 124.143 136.968 133.748 140.062 135.108C138.427 135.417 136.871 135.884 135.447 136.493C134.706 136.961 136.552 137.828 139.113 139.451C135.2 141.1 115.791 147.9 111.8 149.294ZM139.854 138.967C139.724 138.882 136.591 136.884 136.448 136.808C137.711 136.292 139.013 135.819 140.348 135.388C140.352 136.589 140.178 137.788 139.828 138.967H139.854Z" fill="#FF5100"/>
<path fill-rule="evenodd" clip-rule="evenodd" d="M129.051 137.403C128.141 137.658 117.039 140.063 113.906 140.896C112.985 141.196 111.982 141.373 110.955 141.415C110.773 141.415 111.826 140.089 119.795 136.026C120.627 135.601 122.226 134.793 122.395 134.13C123.162 131.937 114.075 135.218 105.95 137.292C105.11 137.587 104.193 137.778 103.246 137.853C103.155 137.505 104.988 136.408 105.105 136.323C109.954 132.821 116.103 131.376 115.687 130.084C115.05 128.061 103.766 131.997 101.387 132.634C99.3852 133.187 96.1872 133.85 96.3822 133.85C95.9532 133.96 96.3822 134.156 96.4602 134.13C96.5382 134.105 100.659 133.28 101.66 132.991C103.155 132.617 113.152 129.464 114.816 130.203C115.479 130.509 108.407 133 104.416 135.881C103.714 136.374 101.816 137.377 102.401 138.193C102.509 138.319 102.671 138.422 102.868 138.487C103.065 138.552 103.287 138.577 103.506 138.559C105.443 138.559 118.651 134.232 121.368 134.096C120.745 134.634 119.999 135.107 119.158 135.499C117.221 136.502 111.605 139.494 110.305 140.871C109.629 141.585 110.188 142.01 111.072 142.018C112.242 142.018 113.672 141.5 117.195 140.633C129.142 137.624 129.519 137.76 129.324 137.479C129.314 137.462 129.299 137.447 129.28 137.434C129.261 137.421 129.238 137.411 129.212 137.403C129.187 137.396 129.16 137.393 129.132 137.392C129.104 137.392 129.077 137.396 129.051 137.403Z" fill="#FF5100"/>
<path fill-rule="evenodd" clip-rule="evenodd" d="M253.5 104.992C253.331 96.1011 252.109 77.9536 249.418 69.1561C248.001 64.4896 244.933 58.1061 239.226 55.0206C236.808 53.7201 233.246 52.4706 226.785 50.1331C226.863 50.0226 216.58 47.3026 216.099 48.2036C215.7 46.6534 215.139 45.1227 214.422 43.6221C215.384 43.4181 214.955 41.5821 215.358 40.5451C215.761 39.5081 217.282 38.7686 218.062 37.9186C219.817 36.0231 220.116 32.7166 219.791 30.5151C219.479 28.4666 214.903 23.8936 211.887 23.1456C208.871 22.3976 205.777 22.4231 202.592 22.0066C199.992 21.6581 198.068 20.7146 195.156 20.4766C192.244 20.2386 190.502 21.3266 188.006 21.3266C185.51 21.3266 182.702 20.0601 180.089 19.9581C178.67 19.9437 177.29 20.2667 176.207 20.8669C175.124 21.4672 174.411 22.3041 174.2 23.2221C173.885 24.5905 174.133 25.9891 174.919 27.274C175.705 28.5588 177.001 29.6835 178.672 30.5321C180.708 31.374 182.995 31.9218 185.38 32.1386C185.224 36.4821 185.926 35.3176 185.146 35.7001C184.366 36.0826 184.613 38.7601 184.886 39.4996C185.003 39.7971 185.12 39.9076 185.679 40.0266C185.367 40.8766 183.17 42.7126 185.146 43.1631C185.406 43.2226 186.446 43.3416 186.55 43.3671C186.817 44.1732 187.209 44.9593 187.72 45.7131C188.224 46.471 188.961 47.1532 189.885 47.7175C190.808 48.2819 191.899 48.7163 193.089 48.9941C194.961 49.4701 196.443 49.5976 197.535 49.8441C197.686 50.1956 197.764 50.5586 197.769 50.9236C193.127 51.7215 188.753 53.0792 184.873 54.9271C177.84 58.6586 167.843 74.1371 165.23 75.8371C164.216 76.4916 140.335 79.5176 136.812 81.0816C136.123 81.3876 136.097 81.6511 136.188 82.1951C135.33 82.2971 131.716 82.7391 131.313 83.2406C131.194 83.6049 131.226 83.9834 131.404 84.3371C128.187 83.9444 124.942 83.6607 121.68 83.4871C121.083 83.4962 120.496 83.5872 119.956 83.7541C119.417 83.921 118.937 84.1602 118.547 84.4561C117.455 85.3061 118.339 85.1616 117.182 85.0426C114.725 84.8131 105.924 86.7426 104.819 87.0826C104.819 86.7766 104.819 86.5641 104.325 86.3941C102.874 86.1192 101.358 86.0213 99.8532 86.1051C98.9432 86.5046 102.453 86.3686 103.909 86.8616C103.909 87.5161 104.039 94.2311 103.909 95.5486C103.909 95.7866 103.909 95.7526 103.636 95.7781C102.336 95.8971 100.464 95.7781 99.8922 96.0501C100.1 93.0921 99.8922 85.8501 99.2682 85.4251C98.8912 85.1701 91.9492 84.6261 84.3962 84.0311C84.423 80.4581 84.1191 76.8872 83.4862 73.3381C82.0952 65.4501 79.1832 56.1511 70.0832 51.4336C70.6105 51.5744 71.1909 51.607 71.7472 51.5271C72.4902 51.3344 73.2898 51.253 74.0872 51.2891C75.3872 51.5186 75.5562 52.1391 78.8062 50.7111C79.0142 50.6176 79.5602 50.6431 79.9892 50.3626C81.4582 49.4021 80.7172 48.1016 80.7172 47.1326C80.9325 46.4739 81.0025 45.7984 80.9252 45.1266C80.8853 45.0265 80.8106 44.9337 80.7069 44.8556C80.6032 44.7774 80.4732 44.716 80.3272 44.6761C80.3272 44.3956 80.7822 43.8941 80.1322 43.3501C81.0682 43.0271 82.0822 42.6531 81.5622 41.9901C80.5689 40.9513 79.7495 39.8456 79.1182 38.6921C78.7152 37.7061 79.2612 36.4481 79.2352 35.3856C79.2352 34.6546 79.3522 33.7791 79.2352 32.9801C80.2379 32.5224 81.0041 31.8761 81.4322 31.1271C81.527 30.8244 81.5067 30.511 81.373 30.2146C81.2392 29.9182 80.9962 29.6478 80.6652 29.4271C80.2362 29.2486 80.1452 29.4271 80.1582 28.9001C80.2052 28.7152 80.1925 28.5259 80.1208 28.3443C80.0492 28.1628 79.9202 27.9931 79.7422 27.8461C79.1962 27.4976 77.9482 27.1151 77.5582 26.7581C76.8952 26.1206 76.5052 25.4831 75.2572 25.2281C74.3732 25.0411 73.5412 25.4066 72.9432 25.2791C72.1242 25.1091 71.2792 24.5311 70.3432 25.1431C70.1342 25.2172 69.9049 25.2636 69.6684 25.2797C69.432 25.2957 69.193 25.2811 68.9652 25.2366C68.1852 24.8031 67.9902 24.0551 66.6642 23.8936C65.9102 23.8086 64.4282 24.0466 63.8562 23.8936C62.9191 23.4426 61.8853 23.0846 60.7882 22.8311C59.5617 22.7548 58.3241 22.8239 57.1352 23.0351C56.3032 23.1456 55.2372 23.0861 54.3662 23.1711C52.5592 23.3581 52.0392 24.3781 50.8432 24.8711C49.6472 25.3641 47.6322 25.3726 46.4882 26.4776C45.5262 27.4126 45.7342 28.4241 45.3572 29.3591C45.2012 29.7586 44.3692 30.2091 44.0572 30.6171C43.3292 31.5606 43.8882 32.5126 43.8752 33.3286C43.8622 34.1446 42.9912 34.8926 43.2382 35.8786C43.4389 36.3711 43.7688 36.837 44.2132 37.2556C44.2186 37.3934 44.1923 37.531 44.1352 37.6636C43.7386 38.3325 43.6571 39.0637 43.9012 39.7631C44.114 40.4337 44.6093 41.052 45.3312 41.5481C46.2412 42.0666 46.7092 41.9306 47.3722 42.6701C47.651 43.0612 48.0703 43.4024 48.5942 43.6646C49.5562 44.0896 50.7392 43.7241 51.3112 43.9111C51.6671 44.034 52.0552 44.1119 52.4552 44.1406C52.1352 44.2464 51.8587 44.4009 51.6492 44.5911C44.5772 45.1776 35.2432 48.5521 29.5492 53.1676C27.3002 55.0631 23.5172 57.8001 22.1002 59.9931C14.4822 71.2471 18.2002 88.8931 15.1322 94.3416L7.5402 107.287C7.1762 107.908 6.2402 110.993 6.5782 112.056C7.1242 113.637 9.6592 111.656 11.2062 110.534C10.2442 112.77 10.2572 113.356 9.7502 122.154C9.5942 124.908 9.4512 127.908 9.3862 130.433C9.38247 130.451 9.38474 130.469 9.39286 130.487C9.40098 130.504 9.41475 130.52 9.43324 130.534C9.45173 130.548 9.47452 130.559 9.50004 130.566C9.52557 130.574 9.55325 130.577 9.5812 130.577C9.9452 130.577 9.7112 130.849 10.2442 123.828C10.6212 118.89 11.0502 114.283 11.0892 113.909C11.2816 112.456 11.7713 111.026 12.5452 109.659C16.1757 107.885 20.2611 106.55 24.6092 105.715C29.4484 104.868 34.5586 104.954 39.3252 105.961C40.6252 106.242 44.1222 106.811 45.3702 106.429C47.9702 105.579 54.6652 102.765 55.7702 101.057C56.3162 100.207 56.7582 99.5181 57.1872 98.8806C59.1762 98.9996 61.6202 99.3311 63.7912 99.3481C66.2222 99.3481 67.7822 99.0931 70.4732 97.5376C80.3662 97.6821 91.2732 97.4866 96.4732 97.3591C99.9442 98.2091 110.604 100.7 113.191 102.374C114.205 103.02 114.803 104.822 115.167 106.828C115.647 109.226 115.773 111.648 115.544 114.062C108.42 114.954 99.3462 116.365 92.3262 117.504C91.9331 117.433 91.5223 117.412 91.1172 117.445C89.2582 117.572 90.1292 118.065 89.5182 116.833C89.5475 116.837 89.578 116.837 89.607 116.832C89.636 116.827 89.6627 116.817 89.6846 116.803C89.7065 116.79 89.7229 116.773 89.7324 116.755C89.742 116.736 89.7443 116.716 89.7392 116.697C89.7201 115.063 89.428 113.435 88.8682 111.843C88.7772 111.605 88.1402 111.486 87.7502 111.41C83.5382 110.611 67.2752 109.54 63.7002 110.143C61.3732 110.543 45.2662 115.983 44.5382 117.139C43.8102 118.295 41.8342 125.248 41.4702 126.531C33.0462 128.138 26.4032 129.464 23.1532 130.186C23.1263 130.192 23.1014 130.201 23.0801 130.213C23.0588 130.225 23.0415 130.24 23.0294 130.257C23.0172 130.274 23.0104 130.292 23.0093 130.31C23.0083 130.329 23.013 130.347 23.0232 130.365C23.1792 130.679 27.4432 129.234 71.1232 121.729C71.5621 122.461 72.1246 123.16 72.8002 123.811C71.5002 124.015 70.0312 124.389 69.6022 125.171C69.5259 125.336 69.5133 125.511 69.5655 125.68C69.6177 125.849 69.733 126.007 69.9012 126.14C70.9677 126.921 72.3895 127.457 73.9572 127.67C76.706 128.121 79.5623 128.219 82.3682 127.959C85.0625 127.805 87.7174 127.434 90.2722 126.854C93.0542 126.089 92.8722 124.95 91.8062 124.432C90.7077 124.009 89.5006 123.721 88.2442 123.582C89.4272 122.179 88.3222 122.8 90.0902 122.519C91.0907 122.363 92.0046 122.027 92.7292 121.55C93.8732 120.785 94.6402 118.898 93.5482 117.989C99.0342 117.139 121.095 113.569 126.49 113.832C136.279 114.3 207.454 133.433 224.302 137.122C224.329 137.128 224.357 137.13 224.384 137.128C224.412 137.127 224.439 137.122 224.464 137.114C224.488 137.105 224.51 137.094 224.528 137.08C224.546 137.066 224.56 137.05 224.569 137.033C224.577 137.016 224.58 136.997 224.578 136.979C224.576 136.961 224.568 136.943 224.556 136.927C224.543 136.911 224.526 136.897 224.504 136.885C224.483 136.873 224.459 136.864 224.432 136.859C220.025 135.856 210.197 133.297 198.432 130.22C199.004 129.319 200.512 126.412 201.682 125.409C202.163 125.001 202.137 124.967 206.427 125.129C217.672 125.554 227.578 125.358 238.368 123.106C244.959 121.72 248.196 118.524 250.068 114.249C250.445 114.325 251.472 114.546 251.836 114.597C251.94 114.614 252.048 114.614 252.152 114.597C252.256 114.581 252.353 114.549 252.434 114.504C253.721 113.645 253.5 106.667 253.5 104.992ZM75.6862 46.5461C75.3343 46.6299 74.9545 46.6505 74.5864 46.6056C74.2183 46.5608 73.8753 46.4522 73.5932 46.2911C73.3126 46.1443 73.0929 45.9537 72.9543 45.7368C72.8158 45.52 72.7628 45.2839 72.8002 45.0501C72.783 45.0152 72.7877 44.9772 72.8133 44.9445C72.8389 44.9118 72.8833 44.8872 72.9367 44.8759C72.9901 44.8646 73.0482 44.8677 73.0982 44.8844C73.1482 44.9012 73.186 44.9302 73.2032 44.9651C73.845 45.5688 74.7515 46.0311 75.8032 46.2911C75.8367 46.3092 75.8613 46.3334 75.8738 46.3606C75.8864 46.3878 75.8865 46.4168 75.874 46.444C75.8615 46.4712 75.8371 46.4954 75.8037 46.5136C75.7702 46.5317 75.7294 46.5431 75.6862 46.5461ZM63.4792 39.1001C63.5236 38.8504 63.6771 38.6143 63.9212 38.4201C64.2072 38.2331 65.0782 38.3521 65.6892 38.0801C66.1462 37.844 66.4929 37.5289 66.6902 37.1706C67.4182 36.2271 68.5752 36.9581 70.1872 35.4026C70.5987 34.9652 70.9179 34.4934 71.1362 34.0001C72.0462 33.7196 73.2292 34.1276 74.3732 32.8951C74.7502 32.4786 74.9972 32.0451 75.6732 31.9261C76.1802 32.2831 76.6872 33.6261 78.7412 33.1076C78.7412 33.5666 78.5852 35.8871 78.5462 36.0741C78.3777 36.6343 78.2863 37.2033 78.2732 37.7741C78.2732 39.4741 79.4692 40.4091 80.7952 42.1856C81.0032 42.4661 79.9112 42.7381 79.3652 42.9336C78.5949 42.7481 77.7978 42.6143 76.9862 42.5341C74.4642 42.1346 72.4492 42.9931 70.2782 43.3841C69.9102 43.3856 69.5434 43.3571 69.1862 43.2991C68.3672 43.2481 67.5092 43.7921 66.3522 43.8941C66.0505 43.9329 65.738 43.9114 65.4552 43.8326C65.1724 43.7538 64.9324 43.6212 64.7662 43.4521C64.626 43.1408 64.526 42.8224 64.4672 42.5001C64.3502 42.1941 64.2072 41.8881 64.1032 41.5906C63.8952 40.9786 64.5062 40.7406 63.7912 39.8906C63.2972 39.3126 63.3102 39.5676 63.4792 39.1001ZM63.9732 56.4401C64.8485 55.354 65.5625 54.2154 66.1052 53.0401C66.8332 55.9981 67.2232 57.4941 67.4052 58.2421C66.4562 57.7236 66.3652 57.5281 63.9732 56.4061V56.4401ZM67.8732 59.8996C68.5102 62.4496 68.3672 61.8716 68.4842 62.3986C68.1736 62.0161 67.7939 61.6594 67.3532 61.3361C67.4987 60.7747 67.564 60.2055 67.5482 59.6361L67.8732 59.8996ZM63.1672 61.4296C62.3909 60.9019 61.6821 60.3333 61.0482 59.7296C61.691 58.7467 62.4158 57.7876 63.2192 56.8566C65.9492 58.2251 65.7412 58.2081 66.4172 58.7606C66.5164 59.4845 66.5164 60.2128 66.4172 60.9366L63.1672 61.4296ZM63.3362 61.9821C64.8832 64.2346 65.5072 67.9321 65.8322 70.3971C64.2093 67.2924 62.0273 64.3248 59.3322 61.5571C59.8593 61.0862 60.3287 60.5888 60.7362 60.0696C61.2716 60.7216 61.9123 61.3343 62.6472 61.8971C62.7411 61.9357 62.8469 61.9603 62.957 61.9692C63.0671 61.978 63.1788 61.9708 63.2842 61.9481L63.3362 61.9821ZM55.6142 43.7921C55.72 43.8136 55.8289 43.8279 55.9392 43.8346C56.2419 43.8257 56.5321 43.753 56.7664 43.6274C57.0007 43.5018 57.1666 43.33 57.2392 43.1376C57.4472 43.0526 57.6032 42.9591 57.5902 42.7976C57.5772 42.6361 54.7822 40.1371 58.3442 38.8536C58.6583 38.8314 58.9741 38.8847 59.2325 39.0035C59.4909 39.1224 59.6742 39.2988 59.7482 39.4996C59.9164 39.953 60.2716 40.3676 60.7752 40.6981C60.8146 41.2414 60.9233 41.7817 61.1002 42.3131C61.2042 42.6276 60.8402 43.0356 60.7622 43.4691C60.5802 44.3191 61.8412 45.2541 62.2962 46.0191C62.9072 47.0476 62.4912 48.1526 63.9472 49.0621C65.4032 49.9716 65.1302 49.2236 65.6372 51.2636C65.0307 52.8668 64.195 54.4292 63.1412 55.9301C61.6722 54.5701 54.2362 46.6311 52.7412 44.8206C53.3002 44.5996 55.0422 43.9536 55.5622 43.7581L55.6142 43.7921ZM51.7142 44.9226C52.6632 46.3676 62.1142 56.1596 62.1142 56.2446C61.6592 57.1881 59.0462 61.0981 57.8112 61.5231C55.0942 60.2566 47.6452 46.9371 47.1122 45.7301C48.5788 45.3193 50.1217 45.0364 51.7012 44.8886L51.7142 44.9226ZM65.1302 82.4501C63.7002 82.1526 59.0852 71.9101 54.9642 66.2406C52.4942 62.8406 47.6452 57.2221 42.3542 55.7261C36.6342 54.1196 26.0002 57.9701 24.8692 62.9681C24.1786 66.2643 24.5866 69.6192 26.0652 72.8026C32.2012 84.9321 40.5082 94.6051 58.2532 97.3761C58.6692 96.8321 57.2002 97.2826 68.8742 97.4866C68.302 97.7776 67.6932 98.0364 67.0542 98.2601C64.8702 99.0336 60.7232 98.4131 57.6552 98.1921L58.0452 97.6396C39.7672 94.9706 31.2132 84.8896 25.0902 72.9896C23.5438 69.7103 23.1004 66.2511 23.7902 62.8491C24.9602 57.4431 35.9712 53.5671 42.0682 54.9101C43.6228 55.2888 45.046 55.8668 46.2542 56.6101C45.6744 53.2041 45.5309 49.7723 45.8252 46.3506C46.0641 46.2119 46.3207 46.0868 46.5922 45.9766C47.7102 48.5266 54.0802 60.7156 57.3172 62.0671C57.5225 62.1465 57.7629 62.1779 57.999 62.1563C58.2352 62.1347 58.4531 62.0613 58.6172 61.9481C61.5422 65.2376 64.2722 68.6036 65.3642 72.1481C65.982 74.1044 66.1398 76.1108 65.8322 78.0981C63.9862 73.1001 58.8772 65.8751 53.0662 62.4156C59.0072 69.1221 63.3362 79.8491 65.2732 81.9656C66.048 82.1053 66.8395 82.2019 67.6392 82.2546C67.3012 77.1546 67.0412 66.5211 63.7392 61.9056C64.1422 61.9056 66.9892 61.5061 66.9892 61.5061C67.5026 61.9092 67.9392 62.3516 68.2892 62.8236C68.8222 63.4951 68.6402 62.9851 69.4462 66.5551C73.3462 83.0366 73.1252 82.9516 73.6322 83.1301C71.0842 82.9176 66.5992 82.7391 65.1302 82.4501ZM73.7622 79.0501C68.6922 60.2311 68.6402 59.7041 66.5082 51.8501C66.6772 51.4761 66.8072 51.1701 66.8982 50.9491C67.7042 51.6206 72.0982 55.3011 72.5792 56.1086C71.8642 56.5251 69.2902 57.2391 70.0702 57.8086C70.4212 58.0721 73.3202 59.7126 74.2302 60.3076C74.7242 61.6761 73.9442 76.6701 73.7622 79.0501ZM41.9902 126.421C42.3542 125.341 44.7332 118.32 45.3962 117.334C45.8772 116.603 61.5552 111.163 64.0252 110.755C67.5872 110.143 86.9832 111.401 88.3352 111.971C88.9456 113.453 89.3031 114.976 89.4012 116.51C87.2172 114.81 70.3172 115.26 70.1352 117.657C70.1316 117.736 70.1569 117.814 70.2089 117.885C70.2609 117.956 70.3382 118.018 70.4342 118.065C70.4257 119.093 70.6046 120.117 70.9672 121.117C60.9832 122.876 50.9992 124.712 41.9902 126.421ZM91.5592 125.095C92.2222 126.497 84.4352 127.101 82.1862 127.271C79.5157 127.519 76.797 127.43 74.1782 127.007C73.0342 126.803 70.9152 126.259 70.5122 125.579C70.3172 125.256 70.9542 124.95 71.4222 124.789C72.0151 124.586 72.6438 124.432 73.2942 124.33C74.0024 124.968 74.9521 125.474 76.0502 125.8C77.3502 126.174 82.9012 125.911 84.8252 125.639C85.6702 125.52 86.5672 125.358 87.8412 124.024C88.6212 124.1 91.3382 124.627 91.5592 125.095ZM85.3452 124.797C84.3702 125.18 77.4802 125.486 76.4272 125.205C72.9432 124.296 71.0452 120.743 70.9022 118.235C73.7344 118.643 76.6412 118.783 79.5342 118.652C81.7052 118.465 86.8402 117.887 88.7252 117.266C89.8562 120.054 87.4642 123.99 85.3452 124.797ZM92.6122 120.411C92.2603 120.866 91.7659 121.268 91.1613 121.59C90.5566 121.912 89.855 122.148 89.1022 122.281C89.7823 121.089 90.1045 119.822 90.0512 118.55C90.1538 118.409 90.3028 118.285 90.4874 118.187C90.672 118.088 90.8877 118.018 91.1189 117.981C91.3501 117.943 91.5911 117.94 91.8246 117.971C92.0581 118.001 92.2782 118.066 92.4692 118.159C93.4442 118.575 93.0152 119.689 92.6122 120.411ZM226.512 50.3796C235.3 53.5501 239.2 54.8761 242.008 57.6556C240.242 56.6625 237.994 56.1113 235.664 56.1001C227.331 55.9131 223.236 63.9796 221.104 69.1986C217.568 77.9026 219.739 88.9186 219.544 90.5336C217.295 91.9021 205.777 95.8121 200.629 97.6396C201.344 95.6676 203.892 88.0601 205.556 85.0596C207.792 81.0306 214.227 71.6466 214.656 69.6066C214.773 69.0031 214.591 68.9266 211.861 67.7706C212.914 67.7706 215.761 67.5836 216.645 67.4731C217.022 67.4731 217.217 67.3626 217.36 66.8441C217.841 65.0421 218.777 50.1926 218.855 48.6116C218.764 48.5776 225.394 49.9631 226.551 50.3796H226.512ZM216.489 48.3481C217.081 48.3202 217.676 48.3634 218.244 48.4756C217.594 54.6381 216.944 65.4756 216.333 66.8611C215.644 66.9461 213.2 67.0566 212.251 67.0991C210.223 67.1756 210.171 67.0991 209.963 67.2861C209.755 67.4731 210.041 67.7281 210.418 67.8981C211.081 68.2041 213.291 69.1136 213.603 69.3516C213.303 70.3636 212.841 71.3522 212.225 72.3011C204.88 85.0511 205.322 81.1326 200.382 95.1151C200.712 88.4172 201.659 81.7383 203.216 75.1146C204.256 71.4681 205.517 68.0426 209.716 60.2396C211.367 57.2221 214.786 51.4421 214.916 51.4761C215.568 50.4603 216.107 49.4149 216.528 48.3481H216.489ZM193.908 100.513C194.155 101.142 194.155 101.057 194.077 101.065L193.674 101.014C193.674 100.929 192.972 92.3951 193.31 88.8676C193.921 82.6201 194.701 75.8456 195.429 69.3176C195.78 66.1556 197.106 59.3641 197.067 59.6191L198.367 58.9901C198.907 59.6938 199.519 60.3726 200.2 61.0216C200.46 61.2511 200.811 61.5401 201.227 61.5656C200.941 63.1041 196.612 82.0846 195.338 94.2141C194.636 100.819 195.338 99.4161 194.311 100.02C194.189 100.073 194.091 100.147 194.027 100.234C193.963 100.321 193.936 100.417 193.947 100.513H193.908ZM201.63 61.5741C202.618 61.5741 203.684 60.2141 204.984 59.6361C205.491 59.9846 207.025 61.6506 208.039 61.8716C203.736 69.5896 199.134 80.3506 199.147 98.1156C198.042 98.5066 196.547 99.0676 195.442 99.4841C196.092 92.2506 200.798 68.5101 201.669 61.5741H201.63ZM215.28 50.1501C214.864 51.0001 208.689 60.7496 208.26 61.2001C207.59 60.7704 206.993 60.2945 206.479 59.7806C205.387 58.8201 205.01 58.5056 203.151 59.8741C205.907 56.4741 211.289 53.0231 213.551 51.3061C215.709 49.6911 215.423 49.8271 215.28 50.1501ZM186.16 32.3001C187.13 32.4954 188.167 32.4954 189.137 32.3001C189.879 32.0845 190.698 32.008 191.503 32.0791C192.639 32.4216 193.807 32.7168 195 32.9631C196.476 32.9546 197.948 32.8779 199.407 32.7336C200.076 32.9379 200.642 33.2619 201.04 33.6682C201.438 34.0744 201.652 34.5462 201.656 35.0286C199.233 35.2587 196.895 35.7742 194.753 36.5501C194.622 36.271 194.361 36.0255 194.007 35.8474C193.653 35.6693 193.223 35.5673 192.777 35.5556C190.646 35.3879 188.492 35.3708 186.355 35.5046C186.166 34.4185 186.1 33.3246 186.16 32.2321V32.3001ZM185.653 39.5506C185.328 39.1766 184.691 36.2781 185.341 35.9636C185.445 36.0486 184.99 35.7851 187.46 35.8021C189.201 35.8381 190.937 35.9402 192.66 36.1081C193.83 36.2441 194.025 36.5926 193.96 37.3321C193.96 38.7006 194.025 38.5646 193.96 38.9896C193.96 39.1086 193.882 39.4231 193.739 39.4911C191.065 39.8076 188.326 39.8047 185.653 39.4826V39.5506ZM197.6 49.1301C194.038 48.4671 190.775 48.3821 188.578 45.4241C187.161 43.5201 187.941 42.9676 186.654 42.7211C186.177 42.6839 185.707 42.6156 185.25 42.5171C185.25 41.9476 186.342 40.7576 186.55 40.1541C188.709 40.3229 190.891 40.3229 193.05 40.1541C194.35 40.0266 195.039 39.8821 194.831 38.1566V36.8391C196.872 36.4311 201.201 35.7596 201.721 35.6661C201.724 36.1285 201.82 36.5886 202.007 37.0346C202.21 37.3151 202.561 37.5383 202.995 37.6636C203.065 37.6838 203.14 37.6932 203.216 37.6912C203.292 37.6892 203.366 37.6757 203.433 37.6518C203.5 37.628 203.557 37.5944 203.601 37.5537C203.644 37.513 203.673 37.4663 203.684 37.4171C203.983 36.6266 204.217 35.9211 204.308 35.5811C204.308 35.7681 204.425 34.9861 205.283 34.6801C206.583 34.2381 208.598 35.2241 208.741 36.6181C208.819 37.2981 207.779 38.5306 206.999 39.9501C206.531 40.8001 209.365 41.1656 210.353 41.4801C210.717 42.0326 210.496 42.6531 210.99 42.9846C211.732 43.2835 212.545 43.4989 213.395 43.6221C214.292 45.501 214.944 47.426 215.345 49.3766C212.043 51.6461 211.302 52.1901 210.418 52.7766C206.965 54.9222 204.036 57.402 201.734 60.1291C200.811 56.5846 199.056 53.4566 198.861 52.4281C198.705 51.6291 198.965 50.2181 198.393 49.4616C198.306 49.3716 198.19 49.2952 198.053 49.2379C197.916 49.1806 197.762 49.1438 197.6 49.1301ZM197.977 52.0116C198.601 53.5246 200.265 58.4376 200.746 60.4096C199.953 59.6276 198.978 58.3356 198.978 58.3356C198.944 58.2895 198.895 58.249 198.834 58.2171C198.773 58.1851 198.702 58.1626 198.626 58.1512C198.549 58.1397 198.47 58.1397 198.394 58.151C198.318 58.1623 198.246 58.1848 198.185 58.2166L197.236 58.6926C197.6 56.4826 197.964 54.2301 198.016 52.0116H197.977ZM197.6 51.2551C197.483 57.5111 195.572 63.0871 194.792 69.3176C192.192 90.2616 192.192 89.2331 192.452 96.6451C191.048 89.9471 189.085 76.9166 188.006 69.8531C188.773 69.4706 192.478 67.6261 192.894 67.0651C193.089 66.7931 192.894 66.5126 191.958 66.5126C190.331 66.5929 188.697 66.5929 187.07 66.5126C188.058 63.8776 193.713 54.2641 195.221 51.7141C195.988 51.5696 196.625 51.4251 197.6 51.2551ZM137.163 81.7191C139.178 80.3336 164.463 77.1036 165.841 76.2281C167.778 74.9531 173.108 67.0396 178.542 61.0386C183.157 55.9386 185.666 54.0516 194.649 51.8841C192.491 55.3776 188.279 62.2116 186.381 66.1896C186.264 66.4361 186.095 66.7081 186.381 66.8696C187.096 67.3286 190.086 67.0566 191.802 67.0736C190.593 67.8641 187.265 69.4706 187.265 69.4706C187.201 69.5016 187.151 69.543 187.119 69.5907C187.087 69.6385 187.074 69.6908 187.083 69.7426C187.629 73.6866 190.983 97.2231 192.439 100.64L190.099 100.249C188.587 99.7636 186.944 99.4749 185.263 99.3991C188.227 89.7601 187.161 87.0656 187.525 81.8126C187.525 81.2686 184.015 70.3376 183.989 70.2526C183.989 70.2166 183.967 70.182 183.928 70.1565C183.889 70.131 183.836 70.1166 183.781 70.1166C183.726 70.1166 183.673 70.131 183.634 70.1565C183.595 70.182 183.573 70.2166 183.573 70.2526C183.794 73.9756 185.406 77.5201 186.511 81.5831C182.351 84.1331 177.996 87.6606 170.911 88.8081C166.53 89.5306 146.016 92.4546 143.286 92.5821C141.05 90.9501 136.812 82.8071 137.163 81.7191ZM134.693 82.8496C134.693 82.8496 136.253 82.6031 136.227 82.4416C137.441 85.4284 138.97 88.3566 140.803 91.2051C139.621 91.4442 138.413 91.6232 137.189 91.7406C136.448 91.7406 136.968 92.1656 135.161 89.3606C134.048 87.6168 133.093 85.8316 132.301 84.0141C132.08 83.4276 131.703 83.4871 134.693 82.8496ZM119.47 84.6431C120.497 83.9036 121.238 83.7931 131.508 84.6431C132.422 86.6699 133.529 88.6571 134.823 90.5931C132.71 91.6704 130.287 92.4595 127.699 92.9136C127.621 92.5481 127.439 92.6586 127.881 92.6841C128.255 92.691 128.625 92.6431 128.967 92.5438C129.308 92.4445 129.611 92.2964 129.853 92.1104C130.095 91.9244 130.27 91.7053 130.365 91.4692C130.46 91.2331 130.473 90.986 130.403 90.7461C130.299 89.8961 126.581 88.1281 125.528 87.6436C126.153 87.7278 126.802 87.6954 127.4 87.5501C127.454 87.5389 127.498 87.5142 127.524 87.4815C127.549 87.4488 127.554 87.4108 127.537 87.3759C127.519 87.3409 127.482 87.3119 127.432 87.2952C127.382 87.2784 127.324 87.2754 127.27 87.2866C125.086 87.6606 122.876 85.9606 122.59 85.9096C121.589 85.7481 122.213 87.2696 119.99 88.1791C119.665 88.3151 118.417 88.0091 118.339 87.5926C118.176 87.0771 118.192 86.544 118.388 86.0332C118.584 85.5225 118.954 85.0473 119.47 84.6431ZM104.936 87.3206C106.6 86.9296 115.076 85.2126 117.52 85.6206C117.245 86.2997 117.183 87.0081 117.338 87.7031C117.421 87.9239 117.575 88.1305 117.791 88.3087C118.007 88.487 118.279 88.6327 118.588 88.7359C118.898 88.8392 119.238 88.8976 119.586 88.9071C119.933 88.9166 120.279 88.8771 120.601 88.7911C121.507 88.3961 122.188 87.8164 122.538 87.1421C123.695 87.6011 129.441 90.0916 129.363 90.9756C129.363 91.5706 128.882 92.0721 127.972 92.0211C127.204 91.8411 126.478 91.5923 125.814 91.2816C125.147 90.933 124.443 90.6149 123.708 90.3296C123.591 90.29 123.456 90.28 123.329 90.3016C123.201 90.3232 123.091 90.3749 123.018 90.4466C122.946 90.5184 122.916 90.6052 122.935 90.6903C122.955 90.7754 123.022 90.8528 123.123 90.9076C123.123 90.9076 124.098 91.3836 125.177 91.8426C126.802 92.6926 127.361 93.4746 125.346 93.8741C125.031 93.9354 124.699 93.9534 124.373 93.9271C124.046 93.9007 123.731 93.8306 123.448 93.7211C123.117 93.2934 122.677 92.9055 122.148 92.5736C121.912 92.1765 121.489 91.8389 120.939 91.6097C120.39 91.3804 119.743 91.2715 119.093 91.2986C118.417 91.3496 118.365 91.5706 118.43 91.3666C118.742 90.3551 116.766 89.7431 115.388 89.9131C113.165 90.2021 111.93 92.1231 111.202 93.5256C110.76 94.1376 112.502 93.4576 104.897 95.2256C105.111 92.757 105.111 90.2823 104.897 87.8136C104.832 87.2271 104.806 87.3631 104.936 87.3206ZM111.566 93.6191C112.281 92.6161 113.854 90.7376 115.531 90.5676C116.181 90.4911 117.494 90.7801 117.351 91.2136C117.07 92.3647 116.258 93.4322 115.024 94.2736C115.18 94.4436 111.111 94.4946 111.566 93.6191ZM118.924 91.9956C119.236 91.7916 121.056 92.2081 121.108 92.8456C121.199 93.9081 119.652 95.1746 118.313 95.7611C117.884 95.9566 116.194 95.0556 115.804 94.6901C116.733 93.7391 117.776 92.838 118.924 91.9956ZM121.121 94.8261C121.212 94.7411 122.512 92.8541 122.733 94.4181C122.824 95.0301 121.433 95.3531 120.523 95.2681C120.735 95.128 120.934 94.9805 121.121 94.8261ZM150.033 105.876C144.56 108.656 143.78 112.311 144.677 116.671C135.889 114.631 129.181 113.271 126.568 113.127C123.032 113.174 119.512 113.459 116.064 113.977C116.415 111.69 116.259 103.666 113.776 102.017C111.293 100.368 102.284 98.1156 98.8912 97.2656H99.6582C99.9572 97.1636 99.4632 96.2711 100.594 96.2201C101.959 96.1691 103.87 96.5091 104.494 96.1521C104.68 95.9671 104.788 95.7529 104.806 95.5316C106.236 95.2341 109.603 94.5626 111.306 94.2736C111.879 94.5708 112.549 94.7769 113.264 94.8757C113.979 94.9745 114.72 94.9634 115.427 94.8431C115.817 95.4126 117.637 96.6621 118.768 96.2541C119.082 96.1357 119.382 96.0021 119.665 95.8546C120.488 96.0037 121.361 95.9799 122.161 95.7866C122.585 95.7112 122.963 95.5525 123.244 95.3321C123.525 95.1117 123.696 94.8401 123.734 94.5541C124.415 94.682 125.141 94.6615 125.802 94.4959C126.463 94.3303 127.024 94.0285 127.4 93.6361C130.25 93.2174 132.918 92.3802 135.2 91.1881C135.447 91.5366 135.681 91.8341 135.876 92.0381C135.941 92.1098 136.032 92.1699 136.141 92.213C136.249 92.256 136.373 92.2806 136.5 92.2846C137.8 92.3696 140.868 91.4346 140.998 91.4346C141.444 92.0421 141.998 92.6127 142.649 93.1346C142.883 93.2876 143.273 93.2451 143.637 93.2196C147.407 92.9221 166.127 90.2871 171.132 89.4711C177.632 88.4086 181.87 85.4251 186.329 82.5861C186.082 87.4651 187.057 89.8451 184.106 99.4246C177.97 99.9235 171.89 100.684 165.906 101.703C160.667 102.68 154.427 103.649 150.033 105.885V105.876ZM169 122.647L168.545 122.528C168.441 118.21 170.079 114.232 174.915 111.282C175.343 111.353 175.777 111.407 176.215 111.444C171.236 114.232 169.273 118.295 169 122.647ZM189.527 108.477C185.627 109.973 186.771 110.781 183.196 111.027C180.332 111.156 177.455 111.01 174.655 110.594C172.393 110.118 173.589 109.548 175.955 109.378C176.358 109.421 179.53 109.438 181.025 109.378C181.147 109.365 181.259 109.325 181.339 109.263C181.419 109.202 181.463 109.123 181.463 109.042C181.463 108.962 181.419 108.883 181.339 108.822C181.259 108.76 181.147 108.719 181.025 108.707C179.339 108.612 177.645 108.595 175.955 108.656C174.879 108.645 173.807 108.563 172.757 108.409C172.653 108.298 172.592 108.171 172.581 108.04C172.569 107.91 172.608 107.78 172.692 107.661C174.057 107.126 180.492 107.33 181.558 107.304C181.684 107.291 181.798 107.249 181.88 107.186C181.963 107.123 182.008 107.043 182.008 106.96C182.008 106.877 181.963 106.797 181.88 106.733C181.798 106.67 181.684 106.629 181.558 106.616C179.425 106.645 177.292 106.571 175.175 106.395C174.265 106.293 172.146 105.995 172.302 105.392C172.588 104.304 176.007 105.239 178.412 105.128C180.109 105.112 181.789 104.905 183.378 104.516C183.497 104.492 183.597 104.439 183.655 104.367C183.714 104.295 183.726 104.211 183.69 104.134C183.654 104.056 183.572 103.991 183.462 103.952C183.353 103.914 183.224 103.906 183.105 103.93C181.479 104.185 179.828 104.373 178.165 104.491C178.06 104.476 177.966 104.437 177.901 104.381C177.837 104.325 177.806 104.255 177.814 104.185C177.833 104.026 177.894 103.87 177.996 103.726C178.667 103.154 179.567 102.716 180.596 102.459C184.288 101.456 187.096 102.459 191.321 102.638C191.851 104.209 192.524 105.759 193.336 107.279C192.041 107.617 190.785 108.018 189.579 108.477H189.527ZM194.493 107.44C194.038 106.437 192.348 102.799 192.179 101.949C192.85 101.735 193.557 101.572 194.285 101.465C194.883 102.918 195.988 105.443 196.703 106.854C196.006 107.082 195.285 107.278 194.545 107.44H194.493ZM198.172 107.44C197.483 106.42 195.442 101.669 194.974 100.479C197.21 99.2801 217.282 92.8286 220.272 90.8651C221.208 90.2531 218.049 78.7356 221.754 69.2581C223.73 64.1581 227.604 56.1426 235.599 56.3211C241.085 56.4401 244.218 59.1771 245.999 62.5941C249.262 68.8841 247.962 77.6136 247.962 77.5286C247.962 84.6601 244.062 95.3786 236.262 100.479C230.373 104.338 201.838 107.874 198.224 107.466L198.172 107.44ZM251.771 113.9C250.25 113.637 243.269 111.954 240.318 111.792C224.991 110.942 225.94 109.038 216.463 106.318C221.663 105.468 233.22 103.496 237.055 101.014C245.154 95.7611 248.898 84.9321 248.859 77.6051C249.16 75.0391 249.16 72.4617 248.859 69.8956C251.732 80.5546 253.5 110.67 251.771 113.9Z" fill="#FF5100"/>
<path fill-rule="evenodd" clip-rule="evenodd" d="M50.765 56.4402L46.501 56.7632C47.8009 57.5625 48.9846 58.4389 50.037 59.3812L51.22 56.8312C51.2561 56.7855 51.2716 56.734 51.2648 56.6828C51.2579 56.6315 51.229 56.5826 51.1814 56.5417C51.1338 56.5008 51.0694 56.4695 50.9957 56.4515C50.922 56.4336 50.842 56.4296 50.765 56.4402ZM174.083 134.011C173.011 133.567 171.827 133.251 170.586 133.076C173.537 129.94 173.004 126.276 172.224 125.953C171.49 125.464 170.512 125.163 169.468 125.103C165.568 124.568 156.117 124.525 153.621 125.885C153.075 126.183 152.75 126.667 153.283 126.99C153.029 129.005 153.675 131.025 155.142 132.804C153.842 132.966 152.334 133.289 151.84 134.054C151.755 134.218 151.732 134.394 151.772 134.565C151.813 134.737 151.917 134.9 152.074 135.04C153.072 135.849 154.438 136.429 155.974 136.697C158.687 137.237 161.534 137.43 164.359 137.267C167.058 137.195 169.734 136.909 172.328 136.417C175.201 135.72 175.175 134.572 174.083 134.011ZM153.738 127.143C156.532 127.642 159.422 127.877 162.318 127.84C165.476 127.699 168.594 127.299 171.6 126.65C171.86 127.82 171.765 129.011 171.318 130.156C170.872 131.301 170.084 132.377 169 133.323C168.738 133.623 168.36 133.873 167.903 134.047C167.447 134.222 166.929 134.315 166.4 134.317C164.58 134.47 159.614 134.555 158.6 134.258C155.311 133.263 153.686 129.651 153.738 127.143ZM164.307 136.493C161.624 136.659 158.916 136.48 156.338 135.966C155.171 135.758 154.096 135.371 153.205 134.836C152.997 134.691 152.659 134.402 152.763 134.224C153.101 133.663 154.752 133.374 155.662 133.272C156.313 133.921 157.209 134.451 158.262 134.81C159.562 135.244 166.764 135.193 168.103 134.742C168.938 134.409 169.645 133.956 170.17 133.416C170.937 133.561 173.615 134.156 173.797 134.632C174.382 136.094 166.647 136.442 164.307 136.536V136.493Z" fill="#FF5100"/>
</svg>
