<svg width="244" height="162" viewBox="0 0 244 162" fill="none" xmlns="http://www.w3.org/2000/svg">
<path d="M137.835 124.69C137.735 124.708 137.65 124.751 137.599 124.81C137.547 124.869 137.534 124.939 137.562 125.004C137.589 125.07 137.655 125.125 137.746 125.159C137.836 125.192 137.943 125.201 138.043 125.183C141.328 124.713 144.408 123.762 147.052 122.404C157.101 117.55 156.581 110.665 162.301 104.366C166.877 99.564 170.894 100.117 170.582 99.496C170.57 99.4715 170.551 99.4488 170.525 99.4293C170.5 99.4098 170.468 99.394 170.433 99.3829C170.397 99.3717 170.359 99.3654 170.32 99.3644C170.28 99.3634 170.241 99.3677 170.205 99.377C152.213 103.704 162.379 119.131 137.835 124.69ZM210.648 109.577C211.155 109.228 211.662 108.863 212.156 108.498C215.978 105.463 218.656 100.763 218.396 97.303C218.389 97.2657 218.367 97.2303 218.332 97.2007C218.296 97.1711 218.249 97.1485 218.195 97.1353C218.142 97.1221 218.083 97.1189 218.027 97.126C217.97 97.1331 217.918 97.1502 217.876 97.1755C217.486 97.422 218.578 98.782 215.835 103.066C213.235 107.129 210.96 108.166 208.399 110.062C206.104 111.794 204.361 113.807 203.269 115.984C202.178 118.162 201.76 120.46 202.042 122.743C202.057 122.792 202.096 122.835 202.154 122.866C202.213 122.897 202.285 122.914 202.36 122.914C202.435 122.914 202.508 122.897 202.566 122.866C202.624 122.835 202.664 122.792 202.679 122.743C202.59 120.312 203.249 117.893 204.618 115.631C205.987 113.369 208.038 111.31 210.648 109.577ZM96.5077 72.874C97.8077 72.2875 97.7167 70.494 96.5077 69.831C96.1658 69.6506 95.7673 69.5216 95.3405 69.4533C94.9137 69.3851 94.4692 69.3791 94.0385 69.4359C93.6078 69.4927 93.2015 69.6109 92.8486 69.782C92.4957 69.9531 92.2048 70.173 91.9967 70.426C91.7554 70.8215 91.7119 71.2567 91.8725 71.6693C92.0332 72.082 92.3896 72.4507 92.8906 72.7226C93.3917 72.9945 94.0117 73.1556 94.6615 73.1828C95.3113 73.21 95.9576 73.1019 96.5077 72.874ZM92.9327 70.9275C93.3227 69.9585 95.8837 69.8225 96.2737 70.7915C96.5337 71.4545 96.4167 71.922 95.8967 72.177C95.5841 72.3041 95.2287 72.379 94.8615 72.3953C94.4943 72.4116 94.1266 72.3688 93.7907 72.2705C93.4389 72.1414 93.1633 71.939 93.0078 71.6956C92.8523 71.4523 92.8259 71.1819 92.9327 70.9275ZM140.929 57.149C140.879 57.1467 140.829 57.1511 140.781 57.162C140.734 57.1729 140.691 57.1901 140.654 57.2124C140.618 57.2347 140.589 57.2618 140.569 57.2918C140.549 57.3219 140.539 57.3543 140.539 57.387C140.539 58.237 138.342 59.087 137.939 59.172C137.861 59.1844 137.794 59.2164 137.753 59.2611C137.711 59.3057 137.699 59.3593 137.718 59.41C137.737 59.4607 137.786 59.5044 137.854 59.5315C137.922 59.5586 138.004 59.5669 138.082 59.5545C141.501 59.0955 142.021 57.132 140.929 57.149ZM136.366 55.8485C136.21 55.789 135.521 55.4575 135.274 55.33C135.274 55.2195 135.885 53.8 136.002 53.528C136.119 53.256 135.586 53.188 135.443 53.409C134.899 54.0981 134.463 54.8215 134.143 55.568C134.247 55.8145 136.054 56.1375 136.184 56.1375C136.238 56.1423 136.293 56.1353 136.34 56.1175C136.388 56.0996 136.425 56.072 136.445 56.039C136.466 56.0059 136.47 55.9693 136.455 55.9348C136.441 55.9004 136.409 55.87 136.366 55.8485ZM132.076 51.2925C132.057 51.219 131.999 51.1523 131.912 51.1041C131.825 51.056 131.715 51.0295 131.601 51.0295C131.487 51.0295 131.377 51.056 131.29 51.1041C131.203 51.1523 131.145 51.219 131.127 51.2925C131.077 51.8786 131.077 52.466 131.127 53.052C131.208 53.1391 131.332 53.206 131.478 53.2421C131.624 53.2781 131.784 53.2813 131.933 53.251C132.083 53.2208 132.212 53.1589 132.301 53.0751C132.391 52.9913 132.435 52.8905 132.427 52.7885C132.247 52.297 132.129 51.7967 132.076 51.2925ZM141.163 52.78C140.996 52.2926 140.879 51.7985 140.812 51.301C140.812 51.2176 140.761 51.1376 140.671 51.0786C140.581 51.0196 140.458 50.9865 140.331 50.9865C140.203 50.9865 140.081 51.0196 139.991 51.0786C139.9 51.1376 139.85 51.2176 139.85 51.301C139.802 51.8673 139.802 52.4348 139.85 53.001C139.857 53.0668 139.886 53.1308 139.935 53.1884C139.985 53.246 140.053 53.2958 140.135 53.3343C140.217 53.3728 140.31 53.3991 140.41 53.4112C140.509 53.4234 140.611 53.4212 140.709 53.4048C140.806 53.3883 140.897 53.358 140.975 53.3161C141.053 53.2741 141.116 53.2214 141.159 53.1618C141.202 53.1022 141.225 53.0372 141.226 52.9712C141.226 52.9052 141.205 52.8399 141.163 52.78Z" fill="#FF5100"/>
<path d="M242.9 41.203C242.809 35.9075 240.092 33.8165 231.707 33.978C229.315 33.978 186.662 34.2585 183.607 34.3265C181.559 34.3269 179.532 34.6017 177.653 35.134C176.574 35.4145 170.932 37.259 170.308 38.2365C169.632 38.9335 170.425 58.7895 170.308 62.8865C169.405 62.5502 168.476 62.2438 167.526 61.9685C167.354 61.4102 166.99 60.8849 166.46 60.4326C165.931 59.9804 165.25 59.6132 164.471 59.359C163.275 59.053 161.741 59.4185 160.857 58.866C159.973 58.3135 161.559 58.016 161.728 57.166C161.723 56.5766 161.618 55.9894 161.416 55.415C160.632 52.3338 159.538 49.2898 158.14 46.303C156.97 43.8465 155.748 41.764 152.381 40.4295C152.381 36.2985 151.744 12.0905 151.393 10.807C151.047 9.54031 150.014 8.3977 148.483 7.58891C146.952 6.78013 145.027 6.35943 143.06 6.40403C142.93 6.40403 53.4639 6.40403 53.3599 6.47203C49.7849 7.86603 48.8229 10.977 48.5889 13.272C48.5109 14.4195 50.0449 37.5905 50.6559 44.9515C44.3249 45.0365 12.3449 45.5975 10.5119 46.235C6.36494 46.898 1.77594 48.785 0.878944 51.8535C0.319944 53.8255 1.45094 91.71 1.82794 93.5035C2.09793 95.4407 3.42178 97.2503 5.55894 98.6035C7.88594 99.938 11.0579 100.185 13.8529 100.253L73.1719 99.5215C67.3739 108.107 60.6919 120.279 56.2719 127.852C56.2512 127.874 56.2402 127.899 56.2402 127.924C56.2402 127.95 56.2512 127.975 56.2719 127.997C57.4682 128.765 58.7741 129.456 60.1719 130.062C58.0529 134.797 58.2869 135.06 57.8189 135.443C53.8019 138.664 48.9529 140.543 44.1689 140.849C41.9459 141.01 39.7489 141.265 38.9689 142.676C38.3319 143.96 40.0219 144.818 41.9979 145.175C43.2979 145.405 52.1639 146.688 53.4769 146.79C54.6404 146.918 55.8341 146.744 56.8049 146.306C57.7409 145.855 60.8219 143.475 62.0049 142.761C59.8599 149.561 58.3649 147.394 63.4739 148.847C63.5453 148.872 63.6242 148.886 63.7049 148.889C63.7857 148.891 63.8663 148.882 63.9409 148.862C64.0156 148.841 64.0823 148.81 64.1365 148.771C64.1906 148.732 64.2307 148.685 64.2539 148.635C65.1639 146.935 71.3259 137.219 73.8349 134.695C74.4459 144.963 74.3419 144.427 74.5629 144.47C75.4339 144.614 76.3829 144.75 77.3579 144.878C77.3579 146.306 77.4229 147.768 77.6049 149.366C77.6049 149.417 77.5009 149.502 77.3969 149.638C74.1729 154.262 70.5589 156.149 66.6329 157.288C64.8909 157.798 62.4859 158.495 62.5509 160.067C62.5509 161.427 64.6829 161.861 66.7499 161.81C69.8569 161.742 73.8739 161.47 75.6939 161.41C80.8939 161.206 81.0239 160.56 83.2339 157.645C83.7409 156.973 84.3389 156.174 84.6769 155.783C85.2879 160.56 84.4819 161.266 85.4829 161.232C88.1999 161.138 89.3829 161.623 89.3829 160.985C89.4869 159.234 90.6829 152.349 91.3069 150.658C91.3069 150.462 91.0989 150.352 90.7869 150.309C91.1769 148.728 92.0869 145.617 92.2039 145.048C92.8539 144.988 93.5039 144.92 94.0109 144.844C94.1539 144.844 94.0109 145.294 96.2079 139.37C111.99 143.441 128.825 144.419 143.931 142.098C144.464 143.45 148.325 152.664 150.431 156.701C151.149 158.02 152.104 159.279 153.278 160.45C153.577 160.637 154.084 160.968 154.578 160.968C155.072 160.968 155.618 160.518 155.748 160.059C155.878 159.6 153.837 146.195 153.148 141.359C156.237 140.858 159.232 140.137 162.079 139.208L166.291 148.354C166.414 148.49 166.6 148.598 166.822 148.662C167.043 148.725 167.29 148.742 167.527 148.709C167.764 148.676 167.979 148.595 168.142 148.478C168.305 148.361 168.408 148.214 168.436 148.057L168.033 137.1C170.001 136.261 171.886 135.341 173.675 134.346C174.487 134.86 175.401 135.3 176.392 135.655C176.494 135.692 176.614 135.701 176.726 135.68C176.838 135.659 176.933 135.611 176.99 135.545C178.071 134.476 179.284 133.466 180.617 132.527C180.357 133.624 179.85 135.868 179.785 136.565C179.783 136.609 179.795 136.654 179.821 136.696C179.846 136.738 179.885 136.776 179.933 136.808C179.982 136.839 180.04 136.864 180.104 136.881C180.168 136.898 180.236 136.906 180.305 136.905C181.685 136.876 183.064 136.994 184.387 137.253C180.149 138.588 178.212 139.718 178.472 140.653C178.98 142.323 179.693 143.963 180.604 145.558C181.306 146.884 182.034 148.261 184.218 148.839C194.228 151.61 209.1 149.587 219.149 146.824C227.677 144.64 228.925 141.104 228.171 136.106C228.015 135.154 226.325 135.043 222.776 135.103L231.421 127.954C234.021 125.923 231.759 125.991 230.94 122.004C231.723 122.763 232.664 123.446 233.735 124.036C233.799 124.068 233.872 124.092 233.95 124.105C234.028 124.118 234.11 124.121 234.19 124.112C234.541 124.07 234.268 124.189 237.492 120.398C237.553 120.328 237.576 120.248 237.557 120.169C237.538 120.09 237.479 120.018 237.388 119.964C235.971 119.199 232.552 117.414 232.552 117.414C234.314 117.141 236.051 116.801 237.752 116.394C238.157 116.326 238.525 116.183 238.81 115.983C239.096 115.782 239.288 115.533 239.364 115.264C239.533 114.601 239.546 101.247 239.572 99.428C239.572 99.1305 238.844 99.0455 238.766 99.3685C237.245 106.109 230.264 111.719 221.346 113.394C221.632 112.637 222.36 110.997 221.957 110.546C220.487 109.941 218.922 109.439 217.29 109.05C218.915 108.447 222.672 106.874 222.945 106.39C223.114 106.109 222.282 92.9935 222.243 91.557C222.237 91.4978 222.202 91.4415 222.143 91.3961C222.085 91.3507 222.006 91.3186 221.917 91.3045C221.829 91.2903 221.737 91.2948 221.653 91.3172C221.569 91.3397 221.498 91.379 221.45 91.4295C218.933 94.6792 215.21 97.4643 210.621 99.53C210.088 99.768 206.253 101.103 205.954 101.281C204.992 101.885 206.188 102.624 206.695 103.092C207.059 103.415 208.307 104.511 208.554 104.741C203.978 105.106 202.769 104.078 202.535 104.741C202.085 105.606 201.479 106.434 200.728 107.206C200.996 107.951 201.339 108.683 201.755 109.399C200.993 109.481 200.216 109.481 199.454 109.399C199.318 109.379 199.176 109.394 199.056 109.44C198.936 109.485 198.846 109.558 198.804 109.645C198.44 110.419 198.154 111.065 197.894 111.668C196.318 109.921 194.582 108.237 192.694 106.628C191.771 102.021 188.443 96.64 181.41 95.926C186.701 94.481 190.172 90.7665 191.004 87.001C193.5 87.001 229.562 86.933 231.018 87.001C238.909 87.1455 242.432 85.1735 243.173 79.912C243.472 77.8125 242.9 41.5855 242.9 41.203ZM63.3829 142.404C63.4157 142.314 63.395 142.219 63.3251 142.139C63.2551 142.058 63.141 141.998 63.0059 141.971C61.9529 141.716 61.1469 142.319 60.5619 142.753C59.081 143.931 57.4549 145.029 55.6999 146.034C54.7249 146.34 43.3759 144.801 41.9589 144.512C41.1962 144.399 40.5327 144.094 40.1129 143.662C39.9488 143.348 39.9667 143.006 40.1632 142.701C40.3598 142.395 40.7213 142.147 41.1789 142.005C42.1799 141.605 42.9209 141.639 45.7289 141.299C48.5369 140.959 51.3189 140.628 56.2069 137.619C56.8879 137.192 57.5222 136.735 58.1049 136.25C58.9166 137.43 60.2829 138.41 62.0049 139.047C64.312 139.716 66.8886 139.88 69.3499 139.514C68.0499 141.214 64.4619 146.527 63.5649 148.15C62.8499 147.963 62.1219 147.793 61.4069 147.657C62.2121 145.931 62.8718 144.177 63.3829 142.404ZM177.549 95.858C175.72 95.9093 173.904 96.0801 172.128 96.368C166.305 96.7984 160.451 97.0197 154.591 97.031C153.733 93.631 153.993 94.26 153.772 93.3165C153.681 92.9085 153.551 92.3475 154.006 92.169C160.233 90.35 166.707 88.701 172.908 86.9245C174.208 87.545 174.312 87.4685 174.429 87.4175C174.485 87.3782 174.516 87.3266 174.516 87.273C174.516 87.2194 174.485 87.1678 174.429 87.1285C173.922 86.7933 173.388 86.4755 172.83 86.1765C167.839 83.2584 164.363 79.3961 162.885 75.1265C162.868 75.0758 162.82 75.0317 162.753 75.0038C162.686 74.9759 162.605 74.9665 162.527 74.9778C162.45 74.9891 162.382 75.02 162.34 75.0639C162.297 75.1077 162.283 75.1608 162.3 75.2115C163.401 79.6516 166.914 83.6834 172.193 86.5675L154.266 91.4125C153.748 91.512 153.292 91.7176 152.966 91.999C152.069 91.8395 151.258 91.5185 150.626 91.0725C147.246 89.296 145.894 90.5115 141.526 92.7725C141.104 92.9808 140.704 93.208 140.33 93.4525C138.021 92.1097 135.72 90.7611 133.427 89.4065C132.842 88.8455 127.512 76.8265 125.328 71.9985C127.016 69.3221 129.74 66.9787 133.232 65.1985C133.636 66.0047 134.145 66.7868 134.753 67.536C135.728 68.148 136.989 67.8505 138.211 67.655C137.874 68.1119 137.68 68.608 137.64 69.1144C137.6 69.6208 137.714 70.1274 137.977 70.6045C138.897 71.9538 140.335 73.1248 142.15 74.0045C146.596 76.5545 146.375 76.4865 146.635 76.4865C146.755 76.4826 146.869 76.4503 146.955 76.3955C147.041 76.3408 147.094 76.2674 147.103 76.189C147.545 73.2225 149.001 72.4065 153.109 71.463C155.356 70.9835 157.257 69.9834 158.454 68.6511C159.651 67.3187 160.062 65.7462 159.609 64.2295C162.326 64.243 165.033 64.0142 167.656 63.5495C167.78 63.5313 167.888 63.4817 167.956 63.4116C168.024 63.3415 168.047 63.2567 168.02 63.1755C168.02 63.031 167.929 62.861 167.864 62.6825C186.831 68.709 198.388 87.4855 183.087 94.464C181.423 95.1927 179.531 95.6689 177.549 95.858ZM181.917 96.827C185.258 97.2945 188.053 99.1305 189.873 102.361C198.557 117.703 178.316 136.293 153.187 140.611C153.031 139.582 152.173 133.615 152.004 133.173C151.879 132.783 151.536 132.437 151.042 132.204C149.443 131.626 146.7 132.264 145.244 132.825C143.856 133.427 142.616 134.164 141.565 135.009C141.565 135.281 143.385 140.407 143.775 141.452C127.975 143.613 111.552 142.69 96.5459 138.8C98.8599 132.51 101.928 123.9 102.786 121.231C111.73 123.05 124.301 122.88 124.431 122.871C124.473 122.864 124.509 122.848 124.536 122.826C124.562 122.803 124.576 122.776 124.576 122.748C124.576 122.72 124.562 122.692 124.536 122.67C124.509 122.648 124.473 122.632 124.431 122.625C117.216 121.052 110.989 116.998 106.907 111.201C100.628 102.539 87.6019 102.641 82.5319 106.951C75.1999 113.173 74.0169 131.278 73.8999 133.462C73.4449 134.006 70.8319 137.347 69.8439 138.707C62.0439 139.922 59.8209 137.007 58.8719 135.757C58.7159 135.545 58.7939 136.106 61.2119 130.521C62.5119 130.938 71.7549 133.071 71.7679 132.442C71.8719 125.217 74.5499 108.03 81.8039 104.078C87.0039 101.29 98.2489 101.774 103.228 104.188C106.393 106.077 108.983 108.341 110.859 110.861C115.032 116.717 122.221 121.061 130.203 122.149C140.434 121.562 152.303 110.903 155.696 104.086C161.962 98.8925 172.297 95.9175 181.917 96.827ZM202.262 131.397C202.279 131.447 202.327 131.491 202.394 131.519C202.461 131.547 202.542 131.557 202.619 131.545C202.697 131.534 202.765 131.503 202.807 131.459C202.85 131.415 202.864 131.362 202.847 131.312C202.028 128.575 199.714 126.212 198.258 123.662C195.736 119.301 197.569 114.618 199.701 110.189C200.652 110.305 201.635 110.222 202.509 109.951C203.224 109.586 202.652 108.965 201.846 107.401C202.509 106.746 203.029 106.033 203.393 105.285C205.425 105.599 207.538 105.616 209.581 105.336C209.66 105.322 209.734 105.297 209.795 105.262C209.857 105.226 209.905 105.182 209.935 105.132C209.966 105.083 209.978 105.029 209.97 104.976C209.963 104.922 209.936 104.871 209.893 104.826C209.022 104.078 206.721 102.029 206.604 101.876C206.487 101.723 206.604 101.74 206.981 101.63C213.195 99.7806 218.29 96.6315 221.463 92.679C221.619 95.4585 222.126 105.803 221.983 106.22C219.963 107.175 217.833 108.028 215.613 108.77C215.516 108.805 215.437 108.858 215.386 108.922C215.336 108.986 215.315 109.059 215.328 109.131C215.34 109.203 215.385 109.271 215.457 109.326C215.528 109.381 215.623 109.421 215.73 109.441C217.569 109.852 219.352 110.364 221.06 110.971C221.294 111.218 220.475 113.164 220.332 113.666L219.032 113.836C218.903 113.858 218.791 113.912 218.721 113.986C218.651 114.06 218.627 114.15 218.655 114.235C218.993 115.74 219.76 119.446 219.76 119.446C216.029 117.176 216.055 115.918 215.249 115.867C215.169 115.86 215.088 115.867 215.013 115.886C214.938 115.906 214.872 115.937 214.82 115.978C208.707 120.615 205.275 126.508 205.122 132.629C205.137 132.675 205.175 132.716 205.23 132.746C205.286 132.775 205.356 132.792 205.427 132.792C205.499 132.792 205.569 132.775 205.624 132.746C205.68 132.716 205.718 132.675 205.733 132.629C206.222 126.837 209.509 121.296 215.119 116.802C216.412 118.258 218.109 119.544 220.124 120.593C220.21 120.643 220.317 120.674 220.432 120.681C220.546 120.689 220.661 120.673 220.76 120.635C220.86 120.597 220.938 120.54 220.985 120.472C221.032 120.403 221.044 120.327 221.021 120.253C221.021 120.253 220.085 116.114 219.721 114.431C228.574 113.402 236.179 108.481 238.74 102.208C238.74 105.701 238.558 114.363 238.558 114.448C238.558 115 238.558 115.527 237.804 115.774C235.672 116.263 233.502 116.68 231.304 117.023C231.214 117.039 231.132 117.07 231.067 117.113C231.001 117.156 230.955 117.21 230.932 117.269C230.91 117.328 230.912 117.39 230.938 117.449C230.965 117.507 231.015 117.56 231.083 117.601C231.694 117.924 235.204 119.803 236.361 120.406C236.361 120.406 234.775 122.387 233.969 123.364C232.651 122.567 231.559 121.623 230.745 120.576C230.692 120.517 230.611 120.47 230.514 120.444C230.417 120.417 230.309 120.412 230.207 120.43C230.106 120.447 230.015 120.486 229.951 120.54C229.886 120.594 229.85 120.66 229.848 120.729C230.212 126.407 232.994 125.668 230.693 127.529C222.763 134.049 221.372 136.157 212.831 137.806C214.547 132.706 220.423 130.64 222.776 126.96C224.076 124.945 223.79 122.71 224.817 120.687C225.532 119.283 226.701 117.996 228.244 116.913C229.787 115.831 231.669 114.978 233.761 114.414C233.837 114.397 233.899 114.361 233.935 114.314C233.97 114.267 233.975 114.212 233.949 114.163C233.924 114.113 233.869 114.072 233.797 114.049C233.725 114.026 233.642 114.023 233.566 114.04C230.842 114.668 228.438 115.779 226.622 117.248C224.806 118.717 223.65 120.487 223.283 122.361C222.724 124.971 222.841 126.254 220.345 128.541C217.589 131.048 213.078 133.267 211.622 138.018C209.361 138.386 207.047 138.597 204.719 138.647C204.446 137.126 203.016 136.233 202.002 136.199C201.066 135.128 191.199 125.311 187.559 123.16C191.584 118.424 193.435 113.029 192.889 107.622C194.449 109.127 197.114 111.949 197.582 112.501C193.045 123.942 200.455 125.659 202.262 131.397ZM181.761 131.771C181.761 131.711 181.734 131.652 181.684 131.602C181.635 131.551 181.564 131.511 181.481 131.486C181.397 131.461 181.305 131.452 181.214 131.46C181.123 131.469 181.038 131.494 180.968 131.533C179.306 132.611 177.796 133.786 176.457 135.043C175.691 134.751 174.973 134.409 174.312 134.023C177.454 132.238 180.303 130.244 182.814 128.073C196.62 138.902 195.957 138.588 196.347 138.384C196.378 138.37 196.404 138.352 196.424 138.332C196.444 138.312 196.457 138.289 196.463 138.265C196.469 138.241 196.468 138.217 196.459 138.193C196.45 138.17 196.434 138.148 196.412 138.129C195.502 137.228 186.233 129.629 183.412 127.495C184.752 126.285 185.976 125.021 187.078 123.713C192.278 127.036 200.351 135.783 201.105 136.607C200.387 137.282 200.052 138.1 200.156 138.919C198.514 139.219 196.788 139.268 195.112 139.064C193.123 138.809 185.687 136.42 180.812 136.327C181.124 135.4 181.618 132.57 181.8 131.771H181.761ZM147.727 132.85H147.948C148.962 132.697 150.548 132.468 150.925 133.139C151.12 133.598 155.046 158.954 155.046 159.736C155.067 159.859 155.046 159.983 154.986 160.101C154.925 160.218 154.826 160.326 154.695 160.416C151.315 159.566 142.995 137.015 142.67 135.103C143.98 134.043 145.739 133.259 147.727 132.85ZM9.30295 92.713C9.30295 90.7665 7.32694 52.1765 7.52194 50.7825C7.85994 48.156 9.30294 46.9745 12.4879 46.7025C15.8549 46.2775 47.2889 45.691 50.7209 45.6315C50.7989 46.4815 50.8639 47.0765 50.8899 47.187C51.034 47.8558 51.5218 48.4725 52.2731 48.936C53.0244 49.3994 53.9945 49.6819 55.0239 49.737C55.0239 49.652 54.1659 49.737 81.0239 49.7965C81.0239 52.4485 81.2709 64.9095 81.2839 65.496C73.6399 65.683 65.7619 65.887 64.2539 65.9805C64.0459 65.9805 63.8639 66.227 63.9419 66.346C66.2039 70.001 76.2789 84.842 79.0999 88.65C79.3631 89.0827 79.8152 89.4552 80.3999 89.721C80.7639 90.078 81.1929 90.4775 81.6999 90.877C77.5789 93.0275 76.0969 95.4075 73.7049 98.8925C62.6939 99.0455 18.0649 99.649 17.0639 99.6235C14.2819 99.547 12.3189 99.02 11.0969 98.017C9.23794 96.572 9.31595 94.6 9.30295 92.713ZM159.7 58.764C159.973 59.41 161 59.7585 162.586 59.784C165.316 59.7075 166.486 61.246 166.98 63.014C164.322 63.3536 161.627 63.5498 158.92 63.6005C158.842 63.6011 158.765 63.6135 158.695 63.6368C158.625 63.6601 158.564 63.6936 158.518 63.7348C158.471 63.776 158.44 63.8237 158.426 63.8741C158.412 63.9246 158.417 63.9764 158.439 64.0255C158.854 64.9958 158.858 66.0217 158.45 66.9933C158.043 67.965 157.239 68.846 156.125 69.542C152.628 71.7435 147.025 70.528 146.206 75.6025C145.036 74.9395 140.707 72.534 139.823 71.8285C138.302 70.681 137.691 68.777 139.251 67.5785C142.591 67.2216 145.968 67.0255 149.352 66.992C149.428 66.992 149.501 66.9723 149.554 66.9373C149.608 66.9022 149.638 66.8546 149.638 66.805C149.638 66.7554 149.608 66.7079 149.554 66.6728C149.501 66.6377 149.428 66.618 149.352 66.618C145.458 66.4375 141.545 66.6207 137.73 67.162C136.274 67.4255 135.559 67.6125 134.909 66.72C134.584 66.2695 132.647 62.4105 132.309 61.6965C131.711 60.77 132.075 61.0505 133.167 60.6085C134.237 61.1997 135.438 61.6812 136.729 62.0365C136.729 62.1385 137.405 63.49 137.509 63.7365C137.553 63.9408 137.709 64.1275 137.948 64.262C138.188 64.3965 138.493 64.4696 138.809 64.4675C141.84 64.6496 144.895 64.3594 147.722 63.6207C150.549 62.8819 153.067 61.7157 155.072 60.2175C155.112 60.1819 155.13 60.1379 155.123 60.094C155.116 60.0501 155.085 60.0094 155.034 59.9798C154.984 59.9502 154.919 59.9338 154.852 59.9338C154.784 59.9337 154.719 59.95 154.669 59.9795C152.656 61.3101 150.237 62.3489 147.569 63.0284C144.902 63.7079 142.045 64.0129 139.186 63.9235C138.276 63.881 138.393 64.0085 137.626 62.2235C141.136 62.8695 142.02 61.994 140.772 62.8015C140.731 62.8333 140.709 62.8734 140.708 62.9148C140.708 62.9562 140.729 62.9965 140.769 63.0287C140.809 63.0608 140.865 63.0829 140.927 63.0911C140.989 63.0993 141.054 63.0931 141.11 63.0735C145.839 60.7619 149.288 57.5068 150.938 53.8C150.95 53.776 150.954 53.7507 150.951 53.7256C150.947 53.7005 150.936 53.6761 150.918 53.6538C150.9 53.6316 150.875 53.612 150.845 53.5962C150.815 53.5805 150.78 53.5688 150.743 53.562C150.067 53.409 150.522 54.2845 147.35 57.676C146.05 54.276 146.921 50.6805 145.517 47.2635C145.498 47.2151 145.45 47.1735 145.385 47.148C145.319 47.1225 145.24 47.1151 145.166 47.1275C145.092 47.1399 145.028 47.1711 144.989 47.2141C144.95 47.2572 144.939 47.3086 144.958 47.357C145.186 48.0801 145.333 48.813 145.4 49.55C142.631 47.7565 136.781 44.892 132.166 45.5465C131.172 45.5665 130.23 45.8418 129.543 46.3127C128.857 46.7836 128.482 47.4122 128.5 48.0625C127.382 47.0765 128.162 45.572 129.176 44.739C131.854 42.4525 136.612 41.339 141.357 40.489C145.556 39.758 151.172 39.86 154.357 42.342C155.739 43.5807 156.737 44.984 157.295 46.473C158.955 49.8285 160.114 53.2816 160.753 56.7835C160.802 56.9248 160.792 57.0721 160.724 57.2099C160.655 57.3476 160.53 57.4706 160.363 57.5655C160.103 57.7108 159.906 57.8976 159.79 58.1076C159.673 58.3177 159.643 58.5438 159.7 58.764ZM80.0489 88.446C78.8269 86.746 66.7499 69.236 64.8259 66.346C69.1289 66.346 117.684 65.1815 118.529 65.1645C120.18 68.6325 129.8 89.5765 129.8 89.755C129.8 89.755 118.308 89.942 112.107 90.1035C101.642 86.6525 91.9569 87.0265 84.9109 89.466C80.9329 89.3555 80.7509 89.4065 80.0489 88.446ZM129.449 53.188C129.267 50.638 129.449 48.8615 130.06 48.683C132.296 48.02 136.469 47.833 141.11 48.7935C141.695 48.921 143.567 49.5585 145.452 50.077C145.66 52.797 145.452 55.6785 146.752 58.3135C145.603 59.6311 144.127 60.8145 142.384 61.8155C134.519 62.4955 129.8 58.3815 129.423 53.188H129.449ZM141.383 104.018C141.071 104.409 146.362 107.01 146.934 107.291C148.806 108.447 146.518 109.076 144.62 107.962C134.22 101.851 125.354 94.8465 113.797 90.6645C120.531 90.52 128.864 90.3585 130.294 90.35C131.737 91.2595 148.494 101.519 152.823 103.95C140.733 104.01 141.5 103.882 141.357 104.018H141.383ZM154.149 103.899C154.019 103.823 132.049 90.843 131.204 90.197C130.71 89.653 121.597 69.4315 119.504 65.36C120.788 65.9326 121.74 66.7709 122.208 67.74C122.988 69.1935 131.841 88.5735 131.88 88.667C131.986 89.1377 132.308 89.5763 132.803 89.925C136.222 92.0755 150.73 100.678 155.449 103.228C155.176 103.449 154.903 103.67 154.643 103.899H154.149ZM153.2 95.7305C150.938 95.6115 150.223 95.4415 149.664 95.892C149.482 96.079 148.962 96.4955 148.299 96.402C148.184 96.3845 148.076 96.3517 147.981 96.3056C147.886 96.2594 147.807 96.201 147.749 96.134C147.69 96.067 147.653 95.9928 147.641 95.9161C147.628 95.8393 147.64 95.7617 147.675 95.688C148.312 95.297 148.975 94.957 149.573 94.5405C149.605 94.5112 149.621 94.4756 149.618 94.4396C149.616 94.4036 149.595 94.3692 149.559 94.3418C149.523 94.3144 149.474 94.2957 149.42 94.2886C149.366 94.2815 149.31 94.2864 149.261 94.3025C148.598 94.583 147.961 95.0335 147.207 95.331C147.145 95.3316 147.083 95.341 147.027 95.3586C146.971 95.3762 146.922 95.4016 146.882 95.433C146.726 95.4744 146.558 95.4916 146.39 95.4834C146.223 95.4753 146.06 95.4419 145.916 95.386C145.771 95.3301 145.648 95.2531 145.556 95.161C145.465 95.0689 145.407 94.9642 145.387 94.855C145.387 94.175 146.505 93.7245 147.155 93.223C147.415 93.053 147.025 92.798 146.752 92.9595C146.055 93.344 145.408 93.7647 144.815 94.2175C144.066 94.3733 143.301 94.4954 142.527 94.583C142.176 94.583 142.527 94.7275 140.993 93.869C142.592 92.8881 144.334 92.0113 146.193 91.251C149.352 89.891 149.937 92.2455 152.784 92.5175C152.781 93.5944 152.92 94.6693 153.2 95.7305ZM156.125 102.735L143.034 95.0845C143.509 95.0233 143.977 94.9438 144.438 94.8465C144.427 95.0311 144.483 95.2147 144.6 95.3829C144.716 95.5511 144.891 95.6991 145.111 95.8154C145.33 95.9317 145.588 96.013 145.864 96.0528C146.14 96.0927 146.426 96.09 146.7 96.045C146.752 96.2253 146.868 96.395 147.04 96.5403C147.211 96.6856 147.432 96.8023 147.686 96.881C147.939 96.9598 148.218 96.9982 148.498 96.9933C148.779 96.9883 149.053 96.9401 149.3 96.8525C151.094 96.317 149.3 96.113 152.199 96.283C152.576 96.283 152.979 96.334 153.369 96.3425C153.486 96.742 153.603 97.1075 153.733 97.456C153.764 97.5256 153.829 97.5865 153.919 97.6295C154.008 97.6724 154.116 97.6951 154.227 97.694C177.471 97.371 166.057 95.2715 156.099 102.735H156.125ZM124.925 71.0805C123.456 67.859 122.689 65.258 119.725 64.595C119.725 64.697 120.83 64.4845 82.3499 65.445C82.3499 61.3055 82.0769 51.2925 82.0379 49.771H128.643C128.279 53.4515 128.643 57.421 132.543 60.158C132.075 60.277 131.243 60.532 131.048 60.7445C131.527 62.1183 132.171 63.4655 132.972 64.7735C129.484 66.3829 126.694 68.5559 124.873 71.0805H124.925ZM119.582 44.807C119.582 43.617 119.166 37.2165 119.075 36.0435H122.39C122.39 37.2505 122.637 43.6255 122.715 44.7985C121.675 44.7815 120.622 44.79 119.582 44.807ZM100.537 45.062C100.55 42.75 100.095 23.2 100.03 20.65H103.345C103.345 27.11 103.631 43.2685 103.683 45.028L100.537 45.062ZM80.0229 23.931H83.3509C83.3509 29.5155 83.6239 43.617 83.6889 45.2915H80.5429C80.5559 43.2005 80.1009 26.26 80.0229 23.931ZM51.7999 46.813C51.6179 46.0905 50.1099 23.455 49.4989 14.785C49.3559 12.116 50.4349 8.83503 53.1779 7.31353C53.1779 13.2635 54.3479 46.099 54.6079 49.074C53.8428 48.9297 53.1637 48.6356 52.6617 48.2314C52.1597 47.8273 51.859 47.3323 51.7999 46.813ZM171.075 39.7495C170.968 39.1947 171.171 38.6333 171.647 38.1685C172.665 37.6446 173.757 37.1863 174.91 36.8C173.61 38.33 173.948 37.905 174.637 64.765C173.565 64.2306 172.449 63.7341 171.296 63.2775C171.166 58.9935 171.101 43.4215 171.114 39.7495H171.075ZM182.437 49.193C183.041 48.6324 183.844 48.1757 184.776 47.8619C185.709 47.5481 186.744 47.3866 187.793 47.391C193.084 47.391 195.008 51.505 196.048 54.854C196.958 57.4805 197.023 60.5745 199.948 62.7165C213.546 70.7745 214.573 59.529 222.841 59.9625C225.441 60.158 227.17 61.7135 229.029 62.8355C229.824 63.4192 230.938 63.7742 232.131 63.8235C233.324 63.8729 234.498 63.6125 235.399 63.099V75.1775C232.201 75.1775 191.589 74.982 187.13 75.016C186.044 73.5304 184.766 72.1085 183.308 70.766C183.464 69.7375 182.502 50.111 182.476 49.193H182.437ZM187.637 75.594C193.617 75.6535 231.564 75.7215 235.503 75.7215C235.509 76.0453 235.539 76.3687 235.594 76.6905C235.603 76.759 235.651 76.8228 235.728 76.8698C235.804 76.9168 235.905 76.9437 236.01 76.9455C236.777 76.9455 236.426 77.719 236.296 54.667C236.296 54.6107 236.262 54.5566 236.201 54.5168C236.14 54.4769 236.057 54.4545 235.971 54.4545C235.885 54.4545 235.802 54.4769 235.741 54.5168C235.68 54.5566 235.646 54.6107 235.646 54.667C235.646 56.18 235.503 61.178 235.49 62.164C235.192 62.4713 234.786 62.7279 234.307 62.913C233.828 63.098 233.288 63.2061 232.732 63.2285C232.177 63.2509 231.621 63.1869 231.111 63.0418C230.6 62.8967 230.15 62.6745 229.796 62.3935C226.039 59.8435 222.321 57.7185 216.887 60.9995C212.441 64 209.997 66.533 203.887 63.9405C201.413 63.0786 199.548 61.6217 198.687 59.8775C196.633 55.058 197.205 47.6205 188.521 46.6345C187.36 46.5569 186.187 46.6667 185.106 46.9542C184.025 47.2417 183.069 47.6981 182.32 48.2835C182.32 46.9915 182.177 45.7335 182.099 44.4245C182.099 44.3704 182.066 44.3185 182.008 44.2803C181.949 44.242 181.87 44.2205 181.787 44.2205C181.704 44.2205 181.625 44.242 181.566 44.2803C181.508 44.3185 181.475 44.3704 181.475 44.4245C181.475 45.8355 182.151 65.5385 182.359 69.865C180.356 68.1508 178.052 66.596 175.495 65.2325C175.495 61.994 175.053 40.965 175.001 39.6645C174.923 37.3015 176.366 35.933 179.694 35.3635C182.424 34.8705 231.512 34.3775 236.179 34.794C239.273 35.049 241.041 37.0295 241.483 38.7465C242.029 40.88 242.185 76.1465 242.198 76.614C242.302 80.779 241.548 85.5305 234.918 86.117C233.423 86.253 196.438 86.3125 191.069 86.2785C191.235 82.5914 190.068 78.9307 187.663 75.594H187.637ZM149.573 9.43003C151.133 11.215 150.249 10.722 151.354 40.081C145.972 38.4915 138.354 39.9535 133.154 41.781V16.5955C133.154 16.4 133.83 16.4595 129.254 16.4595C128.968 16.4595 128.994 14.7085 129.956 43.192C129.176 43.6524 128.498 44.1817 127.941 44.7645H123.573C123.573 43.6595 123.079 35.8225 123.027 35.7545C123.012 35.7103 122.974 35.6709 122.919 35.643C122.865 35.6151 122.797 35.6005 122.728 35.6015C121.323 35.5707 119.917 35.5906 118.516 35.661C118.474 35.6796 118.441 35.7053 118.421 35.7353C118.4 35.7653 118.393 35.7984 118.399 35.831C118.399 36.681 118.633 43.583 118.724 44.807L113.823 44.875C114.07 30.357 114.161 31.122 113.823 31.105C110.3 31.1985 110.222 31.156 110.222 31.326V44.926L104.502 45.0025C104.502 43.107 104.06 21.687 103.969 20.446C103.973 20.3901 103.944 20.3354 103.889 20.2928C103.833 20.2502 103.755 20.2229 103.67 20.2165C103.67 20.2165 99.6009 20.2165 99.4709 20.3015C99.0939 20.497 99.6789 44.1015 99.6789 45.0705L93.5039 45.147V32.4565C93.458 32.4447 93.4069 32.4447 93.3609 32.4565C89.7729 32.4565 89.8119 32.4565 89.8119 32.6435V45.198L84.5339 45.3C84.1699 23.353 83.8709 23.7525 84.0009 23.7525C84.0015 23.6981 83.9713 23.6454 83.9161 23.6046C83.8609 23.5638 83.7847 23.5378 83.7019 23.5315C83.7019 23.5315 79.6589 23.5315 79.5289 23.5995C79.0869 23.778 79.7109 43.855 79.7109 45.368L72.5609 45.453C72.5999 12.3285 72.7429 13.85 72.4049 13.85L69.2199 13.9265C68.9989 13.9265 69.0769 11.895 69.0769 45.487C63.7209 45.555 63.8769 45.487 63.7989 45.623C63.774 45.6495 63.76 45.6799 63.7585 45.711C63.757 45.7421 63.7679 45.7729 63.7903 45.8004C63.8126 45.8279 63.8455 45.8511 63.8858 45.8677C63.9261 45.8843 63.9724 45.8937 64.0199 45.895C71.9109 45.895 119.699 45.5805 127.486 45.4275C126.706 46.728 126.849 48.1645 128.656 48.921V49.108C121.142 49.2525 56.8439 49.108 55.6869 49.108C55.6869 47.9945 54.2309 9.10703 54.2179 6.93103C63.2269 6.93103 142.618 7.00753 144.685 7.22853C145.698 7.33584 146.662 7.58901 147.508 7.96975C148.353 8.35048 149.058 8.84926 149.573 9.43003ZM7.87294 47.595C6.37794 49.006 6.29994 50.842 6.29994 52.6185C6.29994 53.0095 8.11994 94.8465 8.39294 95.8665C8.54842 96.6068 8.94442 97.3167 9.55431 97.9486C10.1642 98.5805 10.9739 99.1197 11.9289 99.53C10.4009 99.4797 8.90704 99.216 7.54794 98.7565C4.66194 97.7195 3.56994 95.586 3.17994 94.4045C2.49094 92.2795 1.58094 55.7805 1.73694 53.8935C1.64594 50.7655 3.27094 49.074 7.84694 47.595H7.87294ZM202.873 143.722C208.076 143.484 213.174 142.644 217.927 141.24C221.307 140.22 225.519 138.605 227.261 137.321C227.534 141.333 226.286 143.926 219.981 145.821C211.635 148.371 191.836 151.499 183.282 147.768C182.515 147.283 180.682 143.603 179.954 141.903C183.685 143.526 194.553 144.155 202.847 143.722H202.873ZM85.3009 154.857C84.2089 154.797 83.6889 155.511 83.3249 156.03C80.2829 160.28 80.3219 160.552 77.2279 160.688C76.2529 160.73 67.0749 161.223 66.3989 161.223C64.0329 161.334 62.7199 160.271 64.3969 158.971C65.3529 158.499 66.414 158.126 67.5429 157.866C71.1569 156.769 76.8769 153.871 78.1379 150.284C79.4428 151.286 81.2229 151.974 83.1949 152.239C85.6364 152.41 88.099 152.08 90.2409 151.295C89.7469 153.131 88.6029 158.852 88.4599 160.645C87.7 160.593 86.936 160.57 86.1719 160.577C86.1589 160.093 85.9119 154.891 85.2749 154.857H85.3009ZM90.0849 150.479C88.3956 151.26 86.3688 151.668 84.2999 151.644C83.2055 151.59 82.1398 151.389 81.1692 151.054C80.1985 150.719 79.3437 150.257 78.6579 149.697C78.6579 149.434 78.5149 146.586 78.5539 145.056C82.766 145.273 86.9941 145.327 91.2159 145.218C91.0079 145.966 90.3449 149 90.0589 150.479H90.0849Z" fill="#FF5100"/>
<path d="M219.5 40.761C219.573 40.7513 219.639 40.7252 219.687 40.6873C219.734 40.6493 219.76 40.6018 219.76 40.5528C219.76 40.5038 219.734 40.4563 219.687 40.4183C219.639 40.3803 219.573 40.3543 219.5 40.3445H217.316C200.975 40.676 201.508 40.6675 201.521 40.965C201.534 41.2625 201.027 41.3305 219.5 40.761ZM220.046 42.75C217.134 42.75 205.746 42.852 202.821 43.005C202.718 43.0167 202.625 43.0516 202.558 43.1037C202.491 43.1558 202.454 43.2217 202.454 43.2898C202.454 43.3579 202.491 43.4238 202.558 43.4759C202.625 43.528 202.718 43.5629 202.821 43.5745C205.798 43.5745 217.121 43.192 220.059 43.1155C220.122 43.1055 220.179 43.0816 220.218 43.0478C220.258 43.0139 220.279 42.9721 220.278 42.9293C220.276 42.8866 220.252 42.8455 220.21 42.8129C220.168 42.7802 220.11 42.7581 220.046 42.75ZM217.186 45.878C215.158 45.929 208.645 45.878 202.431 45.878C202.293 45.878 202.16 45.9139 202.063 45.9776C201.965 46.0414 201.911 46.1279 201.911 46.218C201.911 46.3082 201.965 46.3947 202.063 46.4584C202.16 46.5222 202.293 46.558 202.431 46.558C203.731 46.6175 215.925 46.286 217.199 46.252C217.274 46.2509 217.347 46.2301 217.399 46.1943C217.451 46.1584 217.48 46.1104 217.478 46.0608C217.476 46.0112 217.445 45.9641 217.39 45.9298C217.335 45.8955 217.261 45.8769 217.186 45.878ZM175.3 3.40353C173.776 3.64814 172.383 4.15836 171.268 4.87985C170.153 5.60134 169.358 6.50706 168.969 7.50053C167.526 11.113 172.531 15.0485 178.29 14.4195C179.548 14.2458 180.739 13.9059 181.79 13.4206C182.84 12.9354 183.728 12.315 184.4 11.5975C185.055 10.8057 185.428 9.92679 185.488 9.02717C185.549 8.12754 185.297 7.23063 184.751 6.40403C183.971 4.94203 181.657 2.60453 175.3 3.40353ZM178.446 10.569C175.937 11.6995 172.999 9.64253 174.156 8.37603C176.236 6.11503 179.928 7.82353 180.019 8.67353C180.017 9.05092 179.871 9.42208 179.594 9.75316C179.317 10.0842 178.918 10.3647 178.433 10.569H178.446ZM178.29 6.70153C177.412 6.52102 176.468 6.53573 175.605 6.74335C174.742 6.95097 174.008 7.3398 173.519 7.84903C173.119 8.30748 172.968 8.84094 173.091 9.36259C173.213 9.88424 173.602 10.3634 174.195 10.722C174.666 11.0181 175.246 11.2301 175.879 11.3377C176.512 11.4453 177.177 11.4449 177.809 11.3366C178.442 11.2283 179.022 11.0157 179.493 10.7191C179.964 10.4225 180.31 10.0518 180.5 9.64253C181.609 10.1183 182.85 10.4475 184.153 10.6115C183.692 11.3458 182.986 12.0033 182.087 12.5358C181.187 13.0682 180.116 13.4621 178.953 13.6885C173.753 14.6745 169.125 11.589 169.71 8.25703C169.881 7.48101 170.32 6.74058 170.993 6.09162C171.666 5.44266 172.555 4.90214 173.594 4.51085C174.633 4.11955 175.795 3.88771 176.991 3.83283C178.187 3.77795 179.387 3.90145 180.5 4.19403C179.47 4.90532 178.709 5.76394 178.277 6.70153H178.29Z" fill="#FF5100"/>
<path d="M163.6 17.998C166.772 17.8875 224.856 17.5985 229.094 16.774C232.357 16.383 233.475 15.397 233.306 13.2465C233.306 12.5325 233.488 4.34702 233.15 2.89352C232.851 1.10002 231.382 0.250017 228.288 0.139517C225.688 -0.0219826 165.433 0.590017 162.586 0.989517C160.272 1.28702 158.686 1.83952 158.374 3.53952C158.231 4.05802 158.855 13.6545 158.933 14.5895C159.115 16.6125 160.662 17.811 163.6 17.998ZM168.67 17.42C167.904 17.3597 167.169 17.1888 166.517 16.9198C165.865 16.6508 165.312 16.2903 164.9 15.8645C163.983 14.8326 163.512 13.6577 163.535 12.4645C163.392 11.0195 162.976 5.66452 162.924 4.37252C162.924 3.84552 162.924 2.09452 164.9 1.46552C167.955 1.26152 224.869 0.709017 227.3 0.760017C228.6 0.760017 230.355 0.828017 231.343 1.48252C232.799 2.44302 232.331 4.03252 232.422 13.17C232.708 15.499 231.356 16.009 228.028 16.3235C225.038 16.621 169.19 17.42 168.696 17.42H168.67ZM162.04 3.29302C161.871 4.05802 162.56 11.368 162.625 12.337C162.781 14.7425 163.834 16.451 165.914 17.437H164.614C161.442 17.437 159.999 16.4425 159.856 14.326C159.778 13.119 159.18 4.12602 159.31 3.61602C159.583 2.06902 161.182 1.72902 163.301 1.55902C162.644 2.04783 162.215 2.64965 162.066 3.29302H162.04Z" fill="#FF5100"/>
<path d="M192.72 5.49449C193.201 5.49449 208.125 5.24799 207.995 5.24799C208.063 5.2387 208.123 5.21463 208.166 5.17981C208.209 5.145 208.232 5.10155 208.232 5.05674C208.232 5.01193 208.209 4.96848 208.166 4.93367C208.123 4.89885 208.063 4.87478 207.995 4.86549C206.89 4.86549 194.008 4.72099 192.695 4.86549C192.594 4.88921 192.508 4.93295 192.448 4.99051C192.388 5.04806 192.358 5.11651 192.36 5.18613C192.363 5.25574 192.4 5.323 192.464 5.37836C192.529 5.43371 192.619 5.47434 192.72 5.49449ZM212.571 8.16349C210.699 8.28249 191.901 7.86599 191.771 8.48649C191.771 8.60549 191.94 8.69899 192.07 8.71599C193.708 8.84349 212.507 8.57999 212.637 8.57149C212.677 8.5687 212.717 8.56066 212.753 8.54783C212.79 8.535 212.822 8.51763 212.848 8.49672C212.874 8.4758 212.893 8.45174 212.905 8.42593C212.916 8.40011 212.92 8.37303 212.916 8.34624C212.912 8.31945 212.899 8.29347 212.88 8.26979C212.86 8.24611 212.834 8.22519 212.802 8.20822C212.77 8.19125 212.733 8.17856 212.693 8.17089C212.654 8.16321 212.612 8.1607 212.571 8.16349ZM212.195 11.4275C208.984 11.4275 192.798 11.3765 191.953 11.47C191.87 11.4844 191.797 11.5164 191.744 11.561C191.692 11.6056 191.663 11.6602 191.663 11.7165C191.663 11.7728 191.692 11.8274 191.744 11.872C191.797 11.9166 191.87 11.9486 191.953 11.963C192.85 12.0565 210.882 11.7845 212.208 11.759C212.265 11.7495 212.315 11.7276 212.351 11.6969C212.386 11.6661 212.405 11.6284 212.404 11.5898C212.402 11.5513 212.381 11.5142 212.343 11.4847C212.305 11.4552 212.252 11.435 212.195 11.4275ZM28.4005 65.8785C37.2015 65.411 41.8685 57.999 35.0305 53.885C34.7835 53.7405 35.2515 53.4175 28.0495 60.226C19.3395 54.8285 19.8075 55.0325 19.6125 55.126C12.7225 59.5715 19.5475 66.3545 28.4005 65.8785Z" fill="#FF5100"/>
<path d="M27.4379 57.438C27.6849 57.6165 27.5679 57.642 33.4569 51.148C33.471 51.1336 33.4805 51.1175 33.4849 51.1006C33.4893 51.0837 33.4884 51.0664 33.4824 51.0497C33.4763 51.0331 33.4652 51.0174 33.4496 51.0036C33.4341 50.9898 33.4144 50.9782 33.3919 50.9695C31.3152 50.2549 28.9359 50.0084 26.623 50.2681C24.3101 50.5278 22.193 51.2793 20.5999 52.406C20.4439 52.5335 20.2099 52.287 27.4379 57.438ZM13.8529 88.9305C14.1863 88.9291 14.5117 88.8632 14.788 88.7412C15.0643 88.6191 15.2792 88.4464 15.4056 88.2446C15.5321 88.0429 15.5645 87.8212 15.4987 87.6075C15.4329 87.3938 15.2719 87.1975 15.0359 87.0435C15.6859 86.355 19.8979 81.8245 21.1329 80.6005C21.453 80.6973 21.8102 80.7288 22.158 80.6909C22.5058 80.653 22.8281 80.5474 23.0829 80.388L29.0889 83.414C28.991 83.6035 28.9735 83.8067 29.0384 84.0022C29.1032 84.1976 29.248 84.3779 29.4572 84.5237C29.6664 84.6696 29.9323 84.7756 30.2264 84.8305C30.5205 84.8853 30.8319 84.8869 31.1273 84.8352C31.4227 84.7834 31.6912 84.6802 31.9039 84.5366C32.1167 84.3929 32.2659 84.2142 32.3355 84.0195C32.4052 83.8247 32.3927 83.6213 32.2994 83.4309C32.2061 83.2404 32.0356 83.0701 31.8059 82.938L33.9379 81.102C34.3195 81.2162 34.7521 81.2342 35.1527 81.1526C35.5534 81.0711 35.8939 80.8956 36.1089 80.66L42.3229 82.037C42.2893 82.2198 42.3262 82.4053 42.43 82.5764C42.5339 82.7476 42.7016 82.899 42.9178 83.017C43.134 83.135 43.3919 83.2159 43.668 83.2521C43.9441 83.2884 44.2297 83.279 44.4988 83.2247C44.768 83.1704 45.0121 83.0731 45.209 82.9414C45.4059 82.8098 45.5494 82.648 45.6264 82.4709C45.7034 82.2938 45.7115 82.1069 45.65 81.9272C45.5884 81.7475 45.4591 81.5807 45.2739 81.442C45.7939 80.2265 50.2919 71.242 50.7469 70.392C51.1834 70.3671 51.5885 70.2332 51.8779 70.018C53.1129 70.6555 56.8179 72.466 58.0139 72.993C57.9456 73.169 57.9446 73.3532 58.011 73.5294C58.0774 73.7057 58.2093 73.8685 58.3948 74.0035C58.5804 74.1386 58.8139 74.2416 59.0749 74.3036C59.3358 74.3656 59.6161 74.3846 59.8909 74.3589C60.1657 74.3332 60.4267 74.2637 60.6506 74.1564C60.8746 74.0492 61.0547 73.9074 61.175 73.7439C61.2953 73.5803 61.3521 73.3998 61.3404 73.2184C61.3287 73.0371 61.2488 72.8604 61.1079 72.704C64.5659 69.1 64.7219 69.1595 64.3579 68.998C64.2894 68.9702 64.2076 68.9601 64.1284 68.9695C64.0491 68.9789 63.978 69.0073 63.9289 69.049C63.3179 69.627 60.4319 72.279 60.4319 72.279C60.1244 72.18 59.7791 72.1425 59.4391 72.1713C59.0992 72.2 58.7798 72.2937 58.5209 72.4405C57.3119 71.888 53.4769 70.0945 52.2549 69.474C52.3071 69.2779 52.2773 69.0761 52.1686 68.8901C52.0599 68.7041 51.8764 68.5408 51.6374 68.4174C51.3984 68.294 51.1129 68.2151 50.811 68.189C50.5091 68.163 50.2021 68.1908 49.9223 68.2694C49.6426 68.3481 49.4005 68.4747 49.2218 68.6359C49.043 68.7971 48.9342 68.9868 48.9068 69.1851C48.8794 69.3834 48.9344 69.5829 49.0661 69.7624C49.1978 69.9419 49.4012 70.0949 49.6549 70.205C48.5369 72.194 45.2869 79.079 44.4549 81.085C44.1425 81.0323 43.8138 81.0378 43.506 81.1009C43.1981 81.164 42.9234 81.2822 42.7129 81.442C41.4129 81.153 37.5129 80.3795 36.3299 80.133C36.3299 79.8422 36.1532 79.5633 35.8387 79.3577C35.5242 79.152 35.0977 79.0365 34.6529 79.0365C34.2081 79.0365 33.7816 79.152 33.4671 79.3577C33.1526 79.5633 32.9759 79.8422 32.9759 80.133C32.9787 80.3758 33.1019 80.6114 33.3269 80.8045L30.9999 82.7C30.777 82.6681 30.5464 82.6667 30.3227 82.6959C30.0989 82.7252 29.8869 82.7845 29.6999 82.87L23.4989 79.8015C23.5666 79.5384 23.4852 79.2682 23.27 79.0415C23.0549 78.8148 22.7206 78.6471 22.33 78.57C21.9394 78.4929 21.5191 78.5115 21.148 78.6224C20.7769 78.7333 20.4803 78.9289 20.3139 79.1725C20.1846 79.3477 20.1319 79.5428 20.1618 79.7364C20.1916 79.9299 20.3027 80.1142 20.4829 80.269C19.2609 81.4675 14.8279 86.1 14.1909 86.7715C13.9576 86.7332 13.7144 86.7282 13.4778 86.7567C13.2412 86.7853 13.0168 86.8468 12.8198 86.9371C12.6228 87.0274 12.4578 87.1443 12.3361 87.28C12.2143 87.4156 12.1386 87.5669 12.1141 87.7233C12.0896 87.8798 12.1169 88.0379 12.1941 88.1869C12.2713 88.3359 12.3966 88.4722 12.5616 88.5867C12.7265 88.7013 12.9272 88.7912 13.15 88.8505C13.3728 88.9099 13.6125 88.9371 13.8529 88.9305ZM36.4729 91.9395C36.3764 91.9395 36.2838 91.9646 36.2155 92.0092C36.1472 92.0539 36.1089 92.1144 36.1089 92.1775C36.1089 92.2406 36.1472 92.3012 36.2155 92.3458C36.2838 92.3904 36.3764 92.4155 36.4729 92.4155C38.7479 92.4155 65.4499 91.7355 66.3729 91.727C66.4335 91.7182 66.4878 91.6961 66.5266 91.6645C66.5655 91.6328 66.5867 91.5934 66.5867 91.5528C66.5867 91.5122 66.5655 91.4727 66.5266 91.4411C66.4878 91.4094 66.4335 91.3873 66.3729 91.3785C62.7459 91.387 38.7999 91.7695 36.4729 91.9395ZM47.8999 85.862C47.9826 85.862 48.062 85.8405 48.1205 85.8023C48.179 85.764 48.2119 85.7121 48.2119 85.658C48.2119 85.6039 48.179 85.552 48.1205 85.5138C48.062 85.4755 47.9826 85.454 47.8999 85.454C46.8729 85.454 43.1549 85.3095 42.2839 85.335C42.1322 85.335 41.9867 85.3744 41.8794 85.4446C41.7722 85.5147 41.7119 85.6098 41.7119 85.709C41.7119 85.8082 41.7722 85.9033 41.8794 85.9735C41.9867 86.0436 42.1322 86.083 42.2839 86.083C43.1419 86.151 46.8209 85.9215 47.8999 85.862ZM34.0029 86.95H28.3999C28.2787 86.9537 28.1613 86.9787 28.06 87.0223C27.9587 87.0659 27.8771 87.1265 27.824 87.1977C27.7708 87.269 27.7479 87.3483 27.7578 87.4274C27.7676 87.5064 27.8098 87.5823 27.8799 87.647C28.2309 87.987 28.5039 87.7235 34.0289 87.4175C34.0975 87.3961 34.155 87.362 34.1943 87.3195C34.2337 87.277 34.2532 87.2279 34.2504 87.1782C34.2477 87.1285 34.2228 87.0805 34.1788 87.0399C34.1348 86.9994 34.0737 86.9681 34.0029 86.95ZM11.8379 91.489C12.1109 91.489 16.0629 91.2085 16.9339 91.183C17.0304 91.183 17.123 91.1579 17.1913 91.1133C17.2595 91.0687 17.2979 91.0081 17.2979 90.945C17.2979 90.8819 17.2595 90.8214 17.1913 90.7767C17.123 90.7321 17.0304 90.707 16.9339 90.707C16.4269 90.707 12.0329 90.826 11.7339 90.9195C11.6545 90.9508 11.5906 90.9963 11.5499 91.0507C11.5092 91.1052 11.4934 91.1661 11.5044 91.2262C11.5154 91.2864 11.5527 91.3432 11.6118 91.3898C11.671 91.4364 11.7495 91.4709 11.8379 91.489Z" fill="#FF5100"/>
<path d="M57.7154 76.75H57.9234C63.4484 76.427 63.2534 76.6735 63.4874 76.5035C63.5306 76.4701 63.5589 76.4297 63.5692 76.3865C63.5796 76.3433 63.5716 76.2991 63.5461 76.2588C63.5206 76.2184 63.4785 76.1834 63.4246 76.1576C63.3707 76.1318 63.3069 76.1162 63.2404 76.1125C61.3034 76.1125 59.4834 76.002 57.7414 76.053C57.0004 76.0615 57.0654 76.75 57.7154 76.75ZM28.6474 69.3295C28.506 69.3295 28.3704 69.3662 28.2705 69.4315C28.1705 69.4969 28.1144 69.5855 28.1144 69.678C28.1144 69.7704 28.1705 69.859 28.2705 69.9244C28.3704 69.9898 28.506 70.0265 28.6474 70.0265C30.5064 70.0265 37.7474 69.593 39.5024 69.474C39.5855 69.4636 39.6605 69.4345 39.7144 69.3919C39.7684 69.3492 39.7979 69.2956 39.7979 69.2402C39.7979 69.1849 39.7684 69.1312 39.7144 69.0886C39.6605 69.0459 39.5855 69.0169 39.5024 69.0065C37.6954 69.1 30.4414 69.2275 28.6474 69.3295ZM27.7634 71.3185C27.6588 71.3354 27.5673 71.3768 27.506 71.4347C27.4448 71.4927 27.4181 71.5633 27.4309 71.6332C27.4436 71.7032 27.495 71.7677 27.5754 71.8146C27.6558 71.8615 27.7596 71.8876 27.8674 71.888C29.9214 71.888 37.9814 71.412 40.0094 71.4035C40.099 71.4035 40.185 71.3802 40.2484 71.3387C40.3117 71.2973 40.3473 71.2411 40.3473 71.1825C40.3473 71.1239 40.3117 71.0676 40.2484 71.0262C40.185 70.9848 40.099 70.9615 40.0094 70.9615C35.9198 70.9026 31.8287 71.0219 27.7634 71.3185ZM38.9694 72.6785C35.5672 72.6464 32.165 72.7344 28.7774 72.942C28.1534 72.993 28.1274 73.6135 28.7774 73.6135C29.9344 73.6135 36.2524 73.1885 38.9824 73.1205C39.0267 73.1199 39.0705 73.1136 39.1112 73.102C39.1519 73.0904 39.1887 73.0737 39.2194 73.0527C39.2502 73.0318 39.2744 73.0071 39.2906 72.9801C39.3068 72.9531 39.3147 72.9242 39.3139 72.8952C39.313 72.8662 39.3034 72.8376 39.2856 72.811C39.2679 72.7844 39.2422 72.7603 39.2103 72.7402C39.1783 72.7201 39.1405 72.7043 39.0992 72.6937C39.0579 72.6831 39.0137 72.6779 38.9694 72.6785ZM43.2463 54.3695C43.8833 54.3695 50.3704 53.9275 51.6444 53.868C51.734 53.868 51.82 53.8447 51.8834 53.8032C51.9467 53.7618 51.9824 53.7056 51.9824 53.647C51.9824 53.5884 51.9467 53.5321 51.8834 53.4907C51.82 53.4493 51.734 53.426 51.6444 53.426C51.0074 53.426 44.0524 53.562 43.2854 53.596C42.5184 53.63 42.5183 54.3695 43.2463 54.3695ZM44.5854 56.0865C46.6264 56.0865 54.5824 55.5935 56.5974 55.5085C56.6708 55.4987 56.7369 55.4726 56.7843 55.4347C56.8318 55.3967 56.8577 55.3492 56.8577 55.3002C56.8577 55.2512 56.8318 55.2037 56.7843 55.1657C56.7369 55.1278 56.6708 55.1017 56.5974 55.092C54.5694 55.1515 46.5613 55.177 44.5723 55.313C44.4307 55.3277 44.302 55.3753 44.2095 55.447C44.117 55.5186 44.067 55.6096 44.0686 55.7034C44.0701 55.7971 44.1232 55.8874 44.2181 55.9577C44.3129 56.028 44.4433 56.0737 44.5854 56.0865Z" fill="#FF5100"/>
</svg>
