<svg width="192" height="154" viewBox="0 0 192 154" fill="none" xmlns="http://www.w3.org/2000/svg">
<path d="M162.839 93.168C164.742 92.168 166.659 91.112 166.268 89.648C166.067 88.866 165.357 88.162 164.288 87.6876C163.22 87.2132 161.88 87.0065 160.557 87.112L153.105 67.296C153.659 67.696 153.726 67.84 154.091 67.84C154.182 67.8401 154.271 67.827 154.351 67.8019C154.431 67.7768 154.499 67.7405 154.55 67.696C156.684 65.9305 158.597 64.0749 160.274 62.144C163.325 59.264 158.181 57.68 155.346 60.544C155.119 60.0612 154.723 59.6122 154.183 59.2263C153.644 58.8403 152.973 58.5261 152.214 58.304C151.411 58.1357 150.534 58.1357 149.73 58.304L130.601 7.48002C129.766 5.29861 127.509 3.40147 124.322 2.20249C121.135 1.00351 117.278 0.600015 113.591 1.08002C62.0885 7.84802 29.1215 12 25.8005 12.456C17.957 13.544 12.3005 22.856 14.0555 27.36L30.215 70.168C30.1182 70.1206 29.9964 70.0946 29.8707 70.0946C29.7451 70.0946 29.6233 70.1206 29.5265 70.168C16.7015 75.72 7.83199 84.568 3.61999 93.448C-2.83301 106.912 1.91899 122.248 10.1675 135.304C11.8897 138.217 14.3823 140.95 17.552 143.4C17.876 143.648 18.551 143.344 18.2675 143.088C12.7595 138.128 10.2755 133.88 7.33249 127.768C2.06749 117.224 -0.0925102 105.976 4.18699 95.24C11.4095 77.856 29.702 71.288 30.404 70.68L36.263 86.272C30.903 89.763 26.5475 93.7521 23.3705 98.08C23.114 98.424 23.6405 98.576 23.951 98.2C28.9892 92.0311 36.2032 86.5749 45.1055 82.2C49.898 79.888 55.0685 77.568 60.9815 76.936C63.4146 76.6653 65.9273 76.8067 68.231 77.344C77.438 79.568 74.441 85.48 69.419 90.576C57.593 102.576 56.432 103.824 54.785 106.52C51.4505 112.536 54.785 117.72 56.405 123.736C60.1985 137.432 51.2885 142.016 49.4525 143.576C48.7235 144.208 49.574 144.328 49.9115 144.16C52.6451 142.772 54.7711 141.013 56.108 139.032L58.9025 146.48C59.3112 147.573 60.0801 148.608 61.165 149.525C62.2498 150.442 63.6294 151.223 65.2247 151.824C66.8199 152.424 68.5994 152.832 70.4612 153.025C72.323 153.217 74.2306 153.189 76.0745 152.944L161.867 141.616C169.008 140.64 177.527 133.488 175.704 128.056C175.65 126.888 176.595 129.72 162.839 93.168ZM41.231 83.264L18.281 22.32C17.5748 20.459 18.0755 18.5086 19.6836 16.8561C21.2917 15.2037 23.8896 13.97 26.9615 13.4C27.4745 13.296 112.943 1.88802 113.847 1.76802C115.517 1.54774 117.243 1.52501 118.927 1.70115C120.612 1.87729 122.221 2.24883 123.662 2.79443C125.103 3.34003 126.348 4.04895 127.326 4.88049C128.304 5.71204 128.995 6.64983 129.359 7.64002L148.569 58.704C148.039 58.9584 147.633 59.2928 147.395 59.672C145.802 61.808 148.907 64.096 151.31 65.968L159.315 87.256C158.441 87.4208 157.636 87.6935 156.953 88.056C156.858 86.144 155.535 84.416 152.511 84.304L150.081 77.824C151.688 75.584 152.349 74.872 152.876 73.104C153.029 72.6179 152.983 72.117 152.741 71.6436C152.499 71.1703 152.069 70.7382 151.487 70.3838C150.905 70.0295 150.188 69.7631 149.396 69.6072C148.604 69.4513 147.76 69.4105 146.936 69.488L125.336 11.888C124.592 9.97295 122.601 8.30973 119.797 7.26079C116.992 6.21185 113.602 5.8622 110.364 6.28802L35.2505 16.152C32.0206 16.5948 29.2162 17.7751 27.4467 19.4364C25.6772 21.0977 25.0856 23.1057 25.8005 25.024L46.712 80.624C44.7005 81.456 42.9455 82.328 41.231 83.264ZM64.9505 76.136C58.4975 75.728 52.8005 77.944 47.6435 80.136L26.84 24.872C26.1962 23.1357 26.7396 21.3189 28.3514 19.8195C29.9632 18.3201 32.5119 17.2602 35.4395 16.872C116.777 6.09602 111.228 6.78402 113.051 6.77602C115.635 6.77358 118.142 7.29529 120.156 8.25441C122.17 9.21353 123.569 10.5523 124.121 12.048L145.721 69.648C142.13 70.216 140.078 72.544 139.605 74.448C137.216 72.488 132.774 71.648 130.155 73.552C129.56 74.1527 129.276 74.8437 129.339 75.5393C129.401 76.2349 129.807 76.9042 130.506 77.464C131.518 78.3132 132.637 79.1156 133.854 79.864L126.74 81.08C126.24 76.904 122.487 69.4 115.049 63.296C113.759 62.1193 112.067 61.1163 110.081 60.352C112.503 59.0283 114.534 57.4734 116.088 55.752C116.151 55.6875 116.176 55.6125 116.159 55.5387C116.142 55.465 116.084 55.3966 115.995 55.3444C115.905 55.2922 115.789 55.2592 115.664 55.2504C115.539 55.2416 115.413 55.2577 115.305 55.296C115.008 55.408 114.684 55.512 114.374 55.608C114.786 55.2374 115.104 54.8331 115.319 54.408C115.34 54.3521 115.335 54.294 115.306 54.2394C115.277 54.1848 115.225 54.1356 115.154 54.0968C115.083 54.0579 114.996 54.0308 114.902 54.018C114.808 54.0053 114.709 54.0073 114.617 54.024C113.267 54.352 112.146 53.504 111.795 52.656C110.783 50.16 111.795 49.104 109.352 46.064C111.443 44.005 112.735 41.6957 113.132 39.304C113.375 38.7763 113.332 38.2167 113.01 37.704C112.784 37.4766 112.439 37.2989 112.028 37.1979C111.616 37.0969 111.16 37.078 110.729 37.144C107.487 37.4831 104.347 38.1059 101.414 38.992C101.846 36.968 102.372 35.056 102.48 33.136C104.775 32.536 111.161 30.816 109.824 27.592C109.136 25.904 105.248 23.784 102.17 24.32C102.336 23.2545 101.878 22.1875 100.872 21.2988C99.8666 20.41 98.375 19.7536 96.6485 19.44C94.7036 19.1844 92.6705 19.3183 90.8677 19.8206C89.0648 20.323 87.594 21.1654 86.6855 22.216C85.312 21.2801 83.6485 20.5088 81.785 19.944C80.3792 19.5904 78.8433 19.4576 77.3256 19.5583C75.8079 19.6591 74.3596 19.99 73.1207 20.5191C71.8817 21.0483 70.8939 21.7578 70.2526 22.5791C69.6112 23.4004 69.3381 24.3059 69.4595 25.208C65.045 24.616 60.104 26.376 60.347 29.208C60.3821 29.8542 60.688 30.485 61.2371 31.0437C61.7862 31.6023 62.5613 32.0712 63.4925 32.408C64.7504 32.7187 66.0573 32.9545 67.394 33.112C68.1356 33.2627 68.8057 33.5163 69.3482 33.8517C69.8907 34.1871 70.2899 34.5945 70.5125 35.04C71.8801 37.2633 72.9631 39.5444 73.7525 41.864C73.7525 41.944 73.982 41.704 72.7805 42.464C71.8354 41.9224 70.8097 41.4324 69.716 41C68.5145 40.416 67.421 39.896 66.3005 39.4C59.105 36.088 58.8485 42.656 62.0075 46.856C63.0214 48.2698 64.3865 49.5857 66.0575 50.76C65.9765 50.992 65.9225 51.232 65.8685 51.464C65.2745 51.344 64.5185 51.984 64.37 52.344C64.3442 52.3925 64.3383 52.4439 64.3528 52.494C64.3672 52.5441 64.4016 52.5914 64.4531 52.6321C64.5045 52.6728 64.5716 52.7056 64.6487 52.7278C64.7258 52.7501 64.8107 52.7611 64.8965 52.76H65.6525C65.4682 53.8792 65.405 55.0041 65.4635 56.128C65.558 57.376 65.4635 60.312 63.4115 60.416C63.318 60.4144 63.2259 60.4298 63.1476 60.4601C63.0693 60.4904 63.0084 60.5341 62.9732 60.5854C62.938 60.6368 62.93 60.6932 62.9504 60.7473C62.9709 60.8014 63.0187 60.8505 63.0875 60.888C63.6203 61.1572 64.2048 61.3881 64.829 61.576H63.587C63.5031 61.5749 63.4204 61.5878 63.3483 61.6133C63.2763 61.6388 63.2179 61.6758 63.1798 61.7201C63.1417 61.7644 63.1255 61.8142 63.1331 61.8637C63.1406 61.9132 63.1716 61.9605 63.2225 62C67.016 64.696 72.6725 65.624 78.6935 66C78.2075 67.424 77.141 69.688 75.467 70.872C74.8634 71.2326 74.1544 71.5254 73.3745 71.736C69.743 72.256 67.9745 74.936 69.8105 77.128C68.3284 76.5958 66.6713 76.2575 64.9505 76.136ZM121.367 92.432C118.91 94.936 116.858 95.32 112.092 95.688L82.3925 98.192C79.0985 98.544 67.2725 99.584 68.204 97.704C69.149 96.304 74.495 92.416 75.8585 91.424C75.1025 94.832 77.411 96.224 82.9595 95.648C112.659 92.448 111.309 92.968 111.89 92.36C112.997 92.488 113.82 91.848 114.59 91.28C115.877 90.199 117.049 89.0714 118.1 87.904C119.031 86.9946 119.655 85.9866 119.936 84.936C122.738 84.6135 125.607 84.5515 128.441 84.752C128.55 84.8083 128.636 84.8786 128.693 84.9577C128.749 85.0367 128.774 85.1224 128.765 85.208C128.481 85.632 129.372 84.264 121.38 92.432H121.367ZM129.21 86.184C129.553 87.4042 129.068 88.655 127.86 89.664L123.284 94.248C122.321 95.4569 121.071 96.5776 119.571 97.576C118.586 98.0522 117.372 98.3322 116.102 98.376C114.995 98.472 76.7765 101.304 76.7765 101.304C71.5925 101.84 69.2165 101.736 68.1635 98.848C71.5655 100.048 80.597 98.76 111.917 96.336C116.709 95.968 119.544 95.64 122.19 92.824L129.21 86.184ZM87.0095 83.24C87.2991 83.3585 87.5662 83.4953 87.806 83.648C87.0628 84.0452 86.4134 84.5 85.8755 85C85.8684 85.021 85.8683 85.0427 85.8754 85.0637C85.8824 85.0847 85.8963 85.1047 85.9164 85.1225C85.9364 85.1404 85.9622 85.1557 85.9923 85.1676C86.0223 85.1795 86.056 85.1878 86.0915 85.192C86.1269 85.1962 86.1634 85.1963 86.1989 85.1921C86.2344 85.1879 86.2681 85.1797 86.2982 85.1678C86.3283 85.1559 86.3541 85.1406 86.3743 85.1228C86.3944 85.105 86.4084 85.085 86.4155 85.064C86.9729 84.6777 87.5873 84.3216 88.2515 84C88.5371 84.2773 88.7897 84.566 89.0075 84.864C88.8995 84.952 88.832 84.984 88.832 85.04C88.8283 85.0663 88.8334 85.0928 88.847 85.1179C88.8607 85.143 88.8825 85.1662 88.9114 85.1863C88.9403 85.2064 88.9755 85.2229 89.0152 85.2348C89.0548 85.2468 89.0981 85.254 89.1425 85.256C89.4395 85.256 89.885 84.672 91.8425 83.656C91.9775 83.76 92.0585 83.856 92.288 83.856C92.3376 83.8573 92.387 83.8522 92.4331 83.8413C92.4791 83.8304 92.5208 83.8138 92.5552 83.7926C92.5896 83.7714 92.6161 83.7462 92.6329 83.7185C92.6497 83.6908 92.6563 83.6614 92.6525 83.632C92.6272 83.5286 92.5725 83.4285 92.4905 83.336C92.9372 83.1052 93.4317 82.909 93.962 82.752C94.2528 82.9627 94.5062 83.1905 94.718 83.432C93.8845 83.9295 93.1172 84.4644 92.423 85.032C92.3818 85.062 92.3603 85.0998 92.3624 85.1384C92.3646 85.177 92.3902 85.2138 92.4347 85.2421C92.4791 85.2704 92.5393 85.2882 92.6042 85.2922C92.669 85.2963 92.7341 85.2862 92.7875 85.264C92.9765 85.264 93.1655 84.936 95.1095 83.864C95.1818 84.0202 95.3325 84.1597 95.5415 84.264C93.962 85.264 92.6255 86.264 93.2735 87.664C93.3766 87.9014 93.5587 88.1241 93.809 88.3192C94.0594 88.5143 94.373 88.6778 94.7315 88.8C94.8467 89.1589 95.1927 89.4771 95.6965 89.6876C96.2003 89.8981 96.8224 89.9843 97.4315 89.928C98.2399 89.8638 99.0144 89.6944 99.6995 89.432C101.373 90.088 102.912 89.112 103.938 88.52C105.274 87.7284 106.485 86.8661 107.556 85.944C108.231 85.368 108.002 85.512 108.15 85.536C108.528 85.6 108.65 85.208 110.027 84.312C110.197 84.5141 110.41 84.7024 110.661 84.872C110.706 84.9155 110.778 84.9467 110.862 84.9587C110.945 84.9707 111.034 84.9626 111.107 84.936C111.18 84.9095 111.233 84.8668 111.253 84.8173C111.273 84.7678 111.26 84.7155 111.215 84.672C111.038 84.429 110.816 84.1982 110.553 83.984C110.992 83.6886 111.481 83.4205 112.011 83.184C112.276 83.4158 112.511 83.6591 112.713 83.912C111.809 84.4558 111.02 85.0629 110.364 85.72C110.229 85.968 110.891 86.024 110.891 85.808C111.53 85.2681 112.258 84.767 113.064 84.312C113.348 84.64 113.55 84.968 113.928 84.872C114.019 84.8422 114.091 84.7955 114.132 84.7391C114.174 84.6827 114.183 84.6198 114.158 84.56C114.073 84.3364 113.946 84.1191 113.78 83.912C114.728 83.4411 115.734 83.0132 116.79 82.632C113.535 84.9231 111.584 87.7649 111.215 90.752C111.243 91.1021 111.215 91.4529 111.134 91.8V91.864C110.796 92.32 109.527 92.328 109.352 92.344C108.798 92.344 110.877 92.184 83.702 94.96C80.6105 95.272 77.681 95.32 77.1275 93.52C76.2905 90.048 79.5845 85.472 87.0095 83.24ZM87.8465 83.024C88.6109 82.7917 89.4233 82.6196 90.263 82.512C87.671 83.4 88.8995 83.528 87.9005 83.024H87.8465ZM90.8975 82.896C91.694 83.472 91.451 82.896 89.5475 84.392C89.3953 84.1329 89.1668 83.8918 88.8725 83.68C89.4911 83.3708 90.1711 83.1075 90.8975 82.896ZM91.6535 82.664C92.1896 82.5537 92.7017 82.406 93.179 82.224C93.4625 82.4 93.476 82.224 92.2205 82.808C91.856 82.968 92.126 82.96 91.6535 82.664ZM97.0535 82.848C97.175 83 97.0535 82.968 97.2425 83.088C97.013 83.264 96.3515 83.752 96.095 83.888C96.017 83.7406 95.9129 83.5985 95.7845 83.464C96.0005 83.4 96.1895 83.28 97.1075 82.848H97.0535ZM95.3525 83.048C95.2559 82.9357 95.143 82.8287 95.015 82.728C94.9052 82.647 94.788 82.5695 94.664 82.496C95.1291 82.3506 95.6068 82.2198 96.095 82.104C96.2794 82.2 96.4509 82.3043 96.608 82.416C96.19 82.6147 95.789 82.8257 95.4065 83.048H95.3525ZM110.04 83.568C110.403 83.1889 110.723 82.7961 110.999 82.392L111.512 82.824C110.961 83.0429 110.473 83.3131 110.067 83.624L110.04 83.568ZM112.646 82.896C113.24 82.672 113.361 82.64 113.78 82.464C114.374 82.464 114.981 82.464 115.589 82.52C112.605 83.576 114.023 83.92 112.7 82.896H112.646ZM117.641 85.688C117.561 85.6189 117.44 85.5704 117.302 85.5526C117.164 85.5347 117.02 85.5488 116.898 85.592C116.655 85.704 116.655 85.736 115.953 86.312C115.805 86.216 115.656 86.136 115.521 86.04C115.468 85.998 115.389 85.9697 115.301 85.9608C115.213 85.9519 115.123 85.963 115.049 85.992C114.644 86.152 115.13 86.504 115.427 86.792C115.184 87.016 114.941 87.248 114.738 87.472C114.693 87.5086 114.666 87.5523 114.662 87.5977C114.658 87.6431 114.677 87.6881 114.716 87.7273C114.755 87.7665 114.812 87.7981 114.881 87.8182C114.95 87.8382 115.027 87.8458 115.103 87.84C115.103 87.84 115.305 87.84 115.346 87.784C116.412 87.144 115.724 87.176 116.696 87.576C116.813 87.619 116.952 87.636 117.087 87.624C116.439 88.328 113.402 91.576 112.16 91.896C112.193 88.5319 114.301 85.291 118.086 82.784C118.088 82.8115 118.102 82.8383 118.125 82.862C118.149 82.8857 118.182 82.9056 118.221 82.92C118.356 83.08 118.491 83.24 118.613 83.408C119.08 84.702 118.667 86.0529 117.465 87.168C117.465 87.064 117.371 87.056 116.709 86.76C117.6 86.136 117.978 85.944 117.695 85.688H117.641ZM118.329 81.96C118.258 81.9311 118.173 81.9157 118.086 81.9157C118 81.9157 117.915 81.9311 117.843 81.96C115.758 81.7712 113.646 81.7095 111.539 81.776C115.355 76.7831 116.095 71.1552 113.631 65.872C113.613 65.83 113.58 65.7906 113.536 65.756C113.492 65.7214 113.436 65.6923 113.373 65.6704C113.31 65.6484 113.24 65.6341 113.167 65.6282C113.095 65.6224 113.021 65.625 112.95 65.636C112.879 65.6471 112.812 65.6663 112.754 65.6925C112.695 65.7188 112.646 65.7516 112.609 65.7892C112.572 65.8267 112.548 65.8681 112.538 65.9112C112.528 65.9542 112.533 65.998 112.551 66.04C113.937 69.2206 114.207 72.536 113.343 75.7808C112.479 79.0256 110.501 82.1308 107.529 84.904C106.312 85.9671 104.991 86.9875 103.574 87.96C102.845 88.464 102.129 89.176 100.307 88.904C100.169 88.8592 100.055 88.7915 99.9809 88.709C99.9066 88.6266 99.8744 88.5331 99.8885 88.44C100.01 87.688 100.604 87.64 100.847 86.712C100.847 86.659 100.811 86.6081 100.748 86.5706C100.685 86.5331 100.599 86.512 100.509 86.512C100.42 86.512 100.334 86.5331 100.271 86.5706C100.208 86.6081 100.172 86.659 100.172 86.712C99.8958 87.0552 99.5801 87.3866 99.227 87.704C99.0374 87.8984 98.919 88.1143 98.8795 88.3376C98.84 88.5608 98.8802 88.7866 98.9975 89L98.3765 89.184C96.9185 89.592 95.9465 89.288 95.6765 88.768C95.0285 87.528 97.607 86.48 97.526 86.2C97.5191 86.1649 97.4967 86.1315 97.461 86.1033C97.4253 86.075 97.3776 86.0528 97.3227 86.039C97.2679 86.0251 97.2078 86.0202 97.1486 86.0246C97.0895 86.029 97.0334 86.0426 96.986 86.064C95.8527 86.5198 95.0484 87.2104 94.7315 88C93.3815 87.008 94.7315 85.656 96.0815 84.88C103.925 80.4 104.87 73.384 101.481 67.28C101.414 67.072 100.82 67.12 100.887 67.28C102.71 72.256 103.142 77.088 98.903 81.544C95.6932 81.4484 92.4761 81.599 89.3315 81.992C85.4435 82.648 87.077 83.016 87.05 81.64C87.6771 78.422 87.0442 75.1616 85.2005 72.112C84.971 71.736 84.3905 71.92 84.5255 72.208C84.8045 72.7414 85.0475 73.3014 85.2545 73.888C84.9685 74.609 84.6124 75.3195 84.188 76.016C83.6683 76.9098 82.6522 77.6727 81.3059 78.1799C79.9596 78.687 78.3628 78.9085 76.7765 78.808C77.0336 78.7671 77.2734 78.6948 77.4803 78.5955C77.6873 78.4963 77.8568 78.3725 77.978 78.232C78.0821 78.2653 78.1974 78.2844 78.3155 78.288C79.0985 78.288 80.3405 77.488 80.813 77.16C81.1855 76.8136 81.3743 76.4089 81.355 75.9982C81.3358 75.5876 81.1094 75.1897 80.705 74.856C80.1483 74.1103 79.4653 73.4 78.6665 72.736C78.6976 72.687 78.6976 72.633 78.6665 72.584C77.9115 72.0677 76.8837 71.718 75.7505 71.592C78.113 70.368 79.3685 67.744 79.8005 65.944C89.993 66.376 101.859 64.672 109.5 60.696C110.219 61.038 110.9 61.4067 111.539 61.8C115.967 64.448 122.541 71.248 125.039 78.84C125.147 79.16 125.7 80.936 125.93 81.24C123.23 81.696 121.178 82.04 119.18 82.48C118.983 82.2739 118.711 82.0963 118.383 81.96H118.329ZM67.232 61.56C67.097 61.216 66.2735 61.448 64.397 60.696C67.313 59.632 66.044 55.44 66.422 52.648C67.772 52.648 69.122 52.56 70.472 52.456C70.4866 53.102 70.7553 53.737 71.2569 54.3106C71.7584 54.8841 72.4789 55.3805 73.361 55.76C72.74 55.76 72.119 55.688 71.5115 55.68C70.904 55.672 68.987 55.68 68.8115 55.928C68.7918 55.9531 68.7811 55.9803 68.78 56.0079C68.779 56.0356 68.7876 56.063 68.8054 56.0886C68.8231 56.1141 68.8496 56.1372 68.8832 56.1564C68.9168 56.1756 68.9567 56.1905 69.0005 56.2C70.6042 56.1837 72.2083 56.2157 73.8065 56.296C75.4458 56.4251 77.066 56.6284 78.653 56.904C78.7317 56.904 78.8073 56.8855 78.863 56.8525C78.9187 56.8195 78.95 56.7747 78.95 56.728C78.95 56.6814 78.9187 56.6366 78.863 56.6036C78.8073 56.5706 78.7317 56.552 78.653 56.552L78.383 56.496C80.0781 56.3725 81.6406 55.8898 82.782 55.137C83.9234 54.3841 84.5666 53.412 84.593 52.4C84.7969 52.3918 85.001 52.4138 85.187 52.464C85.4446 53.3998 86.232 54.2557 87.4194 54.891C88.6069 55.5264 90.1239 55.9034 91.721 55.96C91.6837 55.9778 91.6562 56.0017 91.6418 56.0288C91.6273 56.0558 91.6267 56.0848 91.64 56.112C91.775 56.264 92.099 56.112 92.693 55.952C94.3591 55.8808 95.9284 55.4612 97.121 54.768C100.118 53.968 101.711 53.616 103.668 53.056C104.087 53 103.763 52.6 103.466 52.696C94.151 54.648 100.091 54.544 99.092 51.096C104.303 51.096 105.95 50.184 109.46 47.992C110.54 50.52 109.932 53.592 112.673 54.536C113.048 54.6757 113.486 54.7428 113.928 54.728C113.505 55.2739 112.866 55.7513 112.065 56.12C111.962 56.1654 111.888 56.2302 111.855 56.3039C111.821 56.3776 111.832 56.4558 111.884 56.5256C111.935 56.5954 112.026 56.6526 112.14 56.688C112.254 56.7233 112.385 56.7346 112.511 56.72C113.08 56.6258 113.639 56.5109 114.185 56.376C112.221 58.2495 109.663 59.8796 106.652 61.176C91.4375 67.4 70.3505 65.856 64.5995 62.032C65.3705 62.0281 66.1391 61.9799 66.8945 61.888C67.0126 61.871 67.1144 61.8269 67.1777 61.7654C67.2409 61.7039 67.2605 61.63 67.232 61.56ZM81.7985 20.76C83.5475 21.41 85.0879 22.2389 86.348 23.208C86.4283 23.2569 86.5286 23.2925 86.6392 23.3113C86.7498 23.3301 86.8668 23.3315 86.9786 23.3153C87.0904 23.2992 87.1931 23.266 87.2766 23.2191C87.3602 23.1723 87.4217 23.1133 87.455 23.048C88.1257 22.037 89.3747 21.1979 90.9836 20.6773C92.5926 20.1567 94.4591 19.9877 96.257 20.2C97.8921 20.4859 99.2699 21.1436 100.089 22.0295C100.909 22.9153 101.104 23.9574 100.631 24.928C100.593 25.0116 100.601 25.1004 100.655 25.1809C100.709 25.2614 100.806 25.3293 100.931 25.3744C101.056 25.4195 101.202 25.4394 101.348 25.431C101.493 25.4227 101.63 25.3865 101.738 25.328C103.29 24.528 105.531 25.48 106.179 25.784C106.89 26.0734 107.483 26.4523 107.917 26.8935C108.351 27.3346 108.615 27.8273 108.69 28.336C108.69 30.664 104.37 31.776 101.495 32.52C101.393 32.554 101.308 32.6041 101.251 32.6649C101.194 32.7256 101.166 32.7945 101.171 32.864C101.076 35 100.496 37.216 100.064 39.376C98.714 39.784 98.1875 39.96 98.1875 39.96C98.0609 39.9388 97.9386 39.9092 97.823 39.872C97.985 39.2 98.9165 35.52 98.876 34.84C98.8493 34.792 98.7978 34.7502 98.7287 34.7206C98.6596 34.6909 98.5765 34.675 98.4912 34.675C98.4059 34.675 98.3228 34.6909 98.2537 34.7206C98.1846 34.7502 98.1331 34.792 98.1065 34.84C97.85 35.392 97.202 39.64 97.1885 39.688C95.4491 39.2166 93.5946 38.9115 91.694 38.784C91.802 38.144 92.0315 28.384 92.0315 28.04C92.0315 27.912 91.8155 27.92 91.6805 27.92C91.629 27.92 91.5795 27.9315 91.5419 27.9523C91.5042 27.9731 91.4814 28.0016 91.478 28.032C90.8165 32.216 90.668 37.432 90.7625 38.728H90.3575C87.0513 38.4731 83.6901 38.7039 80.57 39.4C80.408 38.456 79.22 34.808 78.3695 32.568C78.3695 32.384 77.816 32.32 77.816 32.568C77.8101 32.5865 77.8101 32.6055 77.816 32.624C78.842 35.984 79.409 38.8 79.679 39.608C77.7218 40.1228 75.9025 40.8047 74.279 41.632C73.7395 39.8006 73.0365 37.9874 72.173 36.2C70.094 31.952 67.7045 32.664 64.694 32.032C63.9167 31.8372 63.2272 31.537 62.681 31.1557C62.1349 30.7744 61.7471 30.3226 61.5489 29.8364C61.3507 29.3502 61.3475 28.8433 61.5397 28.3563C61.7319 27.8692 62.114 27.4157 62.6555 27.032C63.5417 26.432 64.728 26.0153 66.0417 25.8426C67.3554 25.6699 68.7278 25.7503 69.959 26.072C70.4045 26.176 70.7825 25.912 70.7285 25.64C70.4511 24.8007 70.5797 23.932 71.0996 23.1342C71.6195 22.3363 72.5094 21.6419 73.6667 21.1308C74.824 20.6198 76.2015 20.3131 77.6404 20.2461C79.0792 20.1791 80.5206 20.3545 81.7985 20.752V20.76ZM97.3505 40.2L96.9995 40.304C96.9194 40.3446 96.867 40.4011 96.8523 40.4629C96.8376 40.5248 96.8615 40.5876 96.9196 40.6397C96.9777 40.6918 97.0659 40.7296 97.1676 40.7458C97.2693 40.7621 97.3776 40.7558 97.472 40.728C100.943 39.5805 104.614 38.6604 108.42 37.984C109.433 37.824 111.714 37.312 112.241 37.912C112.249 37.984 112.249 38.0561 112.241 38.128C110.775 38.1546 109.36 38.451 108.191 38.976L101.076 41.376C100.523 41.568 101.427 41.912 101.495 41.616C101.495 41.536 101.171 41.68 109.946 38.912C110.148 38.848 112.025 38.304 112.295 38.776C111.309 43.632 108.893 44.968 107.637 46.464C107.583 46.5234 107.568 46.5926 107.595 46.6582C107.621 46.7239 107.689 46.7812 107.783 46.8191C107.877 46.8571 107.992 46.8728 108.105 46.8634C108.218 46.8539 108.321 46.82 108.393 46.768C108.474 46.712 108.528 46.648 108.609 46.592C108.773 46.7951 108.917 47.0034 109.041 47.216C102.966 50.96 104.006 49.728 98.93 50.736C98.4944 49.7431 97.4572 48.88 96.0164 48.3112C94.5756 47.7425 92.8319 47.508 91.1179 47.6523C89.4039 47.7967 87.8395 48.31 86.7233 49.0941C85.607 49.8783 85.0169 50.8785 85.0655 51.904C84.883 51.8534 84.6861 51.8235 84.485 51.816C84.2613 50.814 83.4308 49.8943 82.1481 49.2281C80.8654 48.5619 79.2179 48.1947 77.5122 48.1947C75.8066 48.1947 74.1591 48.5619 72.8764 49.2281C71.5937 49.8943 70.7632 50.814 70.5395 51.816C69.1895 51.928 67.8395 51.96 66.4895 52C67.014 49.4428 68.4795 46.9849 70.7825 44.8C80.0435 36.032 97.1885 40.2 97.3505 40.2ZM96.284 54.512C93.584 55.312 93.584 55.448 92.234 55.448C90.7894 55.4581 89.3847 55.1675 88.2646 54.6269C87.1445 54.0862 86.3802 53.3297 86.1047 52.4894C85.8293 51.649 86.0602 50.7779 86.7573 50.0281C87.4544 49.2783 88.5735 48.6972 89.9194 48.3862C91.2653 48.0751 92.7527 48.0538 94.1224 48.326C95.4921 48.5981 96.6572 49.1465 97.4146 49.8755C98.1721 50.6045 98.4737 51.4679 98.2671 52.3152C98.0605 53.1625 97.3587 53.9399 96.284 54.512ZM83.6885 52.768C83.5159 53.6931 82.7519 54.5439 81.5535 55.1454C80.3551 55.747 78.8134 56.0537 77.2452 56.0025C75.677 55.9513 74.2014 55.5461 73.1219 54.8701C72.0423 54.1941 71.4407 53.2987 71.4407 52.368C71.4407 51.4373 72.0423 50.542 73.1219 49.866C74.2014 49.19 75.677 48.7848 77.2452 48.7335C78.8134 48.6823 80.3551 48.989 81.5535 49.5906C82.7519 50.1922 83.5159 51.043 83.6885 51.968C82.7975 52.368 82.892 53.072 83.6615 52.8L83.6885 52.768ZM70.3505 44.552C69.1625 43.352 66.692 41.584 65.612 40.712C64.532 39.84 63.9515 39.312 62.5205 39.4C62.1965 39.4 62.156 39.568 62.2775 39.648C62.6555 39.912 63.0335 39.224 64.6265 40.592C65.8845 41.5132 67.0563 42.4747 68.1365 43.472C70.148 45.2 70.2425 44.624 69.635 45.2C69.0052 44.6204 68.164 44.132 67.1734 43.7706C66.1827 43.4092 65.0679 43.1842 63.911 43.112C63.8224 43.1109 63.7359 43.1282 63.6667 43.1609C63.5975 43.1937 63.5498 43.2398 63.5322 43.2913C63.5145 43.3427 63.5278 43.3962 63.5699 43.4424C63.612 43.4886 63.6802 43.5246 63.7625 43.544C65.9752 43.7648 67.9532 44.4916 69.2705 45.568L68.9735 45.872C68.3943 45.5318 67.664 45.2959 66.8675 45.192C65.9755 45.0865 65.074 45.0117 64.1675 44.968C64.0838 44.9637 64.0002 44.9774 63.9321 45.0065C63.8639 45.0357 63.8156 45.0783 63.796 45.1267C63.7764 45.1751 63.7868 45.2261 63.8252 45.2704C63.8636 45.3147 63.9276 45.3493 64.0055 45.368C65.5715 45.72 67.2185 45.44 68.7035 46.264C68.4875 46.496 68.285 46.736 68.1095 46.976C67.4551 47.0175 66.824 47.1431 66.26 47.344C65.2205 47.64 65.666 48.048 66.1385 47.904C66.6081 47.7329 67.1175 47.6036 67.6505 47.52C67.0715 48.3668 66.6197 49.2422 66.3005 50.136C61.5485 46.648 60.239 42.184 61.5485 39.696C61.6396 39.4506 61.8869 39.2355 62.2389 39.0954C62.591 38.9553 63.0207 38.9011 63.4385 38.944C64.2344 39.0997 64.9658 39.3533 65.585 39.688C70.526 42.016 69.959 41.976 72.2135 42.832C71.4792 43.3594 70.8538 43.9368 70.3505 44.552ZM71.0795 77.472C71.1072 77.4145 71.1072 77.3535 71.0795 77.296C68.3795 73.384 73.4015 70.968 77.546 72.712C77.4515 72.936 78.1265 73.56 78.356 73.744C80.7185 76.2 80.597 76.424 78.5855 77.456C78.329 77.584 78.248 77.608 78.194 77.584C78.039 77.4861 77.9155 77.3722 77.8295 77.248C76.682 76.016 76.4795 75.648 76.088 75.744C76.038 75.754 75.9931 75.7713 75.9575 75.7944C75.922 75.8175 75.8969 75.8456 75.8848 75.876C75.8726 75.9065 75.8737 75.9382 75.888 75.9683C75.9023 75.9984 75.9293 76.0258 75.9665 76.048C76.1015 76.12 75.7505 75.896 76.8035 77.384C77.384 78.184 77.492 77.792 76.8035 78.064C75.737 78.408 74.9135 78.44 74.1035 76.544C74.0721 76.4932 74.0127 76.4501 73.9348 76.4218C73.857 76.3935 73.7652 76.3816 73.6745 76.3881C73.5838 76.3946 73.4995 76.419 73.4352 76.4575C73.3709 76.496 73.3305 76.5462 73.3205 76.6C73.2161 77.1651 73.4607 77.7335 74.009 78.2C73.6999 78.3411 73.3392 78.437 72.956 78.48C72.449 78.0739 71.8112 77.7313 71.0795 77.472ZM73.6445 79.072C73.9392 79.0229 74.2177 78.9445 74.468 78.84C79.652 80.272 84.296 78.344 85.7405 75.48C86.2693 77.4695 86.3871 79.4897 86.0915 81.496C85.9521 81.916 85.9521 82.3481 86.0915 82.768C82.5171 83.8712 79.6177 85.6118 77.8025 87.744C75.9736 88.0199 74.171 88.3538 72.4025 88.744C74.9675 85.664 76.7225 81.96 73.6445 79.064V79.072ZM71.7005 89.576C78.14 88.272 75.7505 88.696 77.3705 88.368C76.838 89.0855 76.4309 89.8334 76.1555 90.6C72.9687 92.6155 70.1203 94.8098 67.6505 97.152C67.4056 97.3521 67.2733 97.5929 67.2725 97.84C67.2662 97.8489 67.2629 97.8584 67.2629 97.868C67.2629 97.8777 67.2662 97.8872 67.2725 97.896C67.2361 99.1059 67.8508 100.291 69.0275 101.28C69.5929 101.581 70.2591 101.808 70.9826 101.946C71.7061 102.083 72.4706 102.129 73.226 102.08C74.6975 102.08 70.526 102.304 115.845 99.08C119.895 98.968 121.475 97.664 123.432 95.544C124.661 94.208 129.116 89.808 129.21 89.728C129.937 89.0323 130.382 88.2463 130.511 87.4316C130.64 86.617 130.449 85.7957 129.953 85.032C129.964 84.9044 129.931 84.7767 129.857 84.6567C129.783 84.5366 129.669 84.4267 129.521 84.3334C129.374 84.24 129.196 84.1653 128.999 84.1135C128.802 84.0617 128.589 84.034 128.373 84.032C125.599 83.8349 122.79 83.8916 120.044 84.2C120.041 83.6973 119.871 83.1999 119.544 82.736C123 82.232 124.134 81.992 134.651 80.264C137.449 81.9264 140.411 83.4892 143.52 84.944C143.573 84.9855 143.642 85.0191 143.72 85.0422C143.799 85.0653 143.885 85.0774 143.973 85.0774C144.06 85.0774 144.147 85.0653 144.225 85.0422C144.304 85.0191 144.372 84.9855 144.425 84.944C146.193 82.864 147.827 80.832 149.285 78.88L151.323 84.296C150.635 84.3802 149.99 84.5606 149.443 84.8222C148.896 85.0838 148.462 85.419 148.178 85.8C146.949 87.208 147.273 89 147.557 90.56C147.557 90.856 148.421 96.088 148.772 98.024C148.779 98.1202 148.849 98.211 148.968 98.2768C149.087 98.3426 149.244 98.3782 149.406 98.376C151.631 97.7686 153.774 97.0626 155.819 96.264L163.325 116.224C163.969 117.96 163.425 119.777 161.814 121.277C160.202 122.776 157.653 123.836 154.725 124.224L79.6115 134.144C76.6804 134.519 73.6182 134.193 71.0903 133.237C68.5624 132.281 66.7732 130.773 66.1115 129.04L57.1475 105.2C59.3885 101.856 68.5685 93.04 71.7005 89.576ZM174.381 128.504C174.355 130.224 173.342 131.887 171.509 133.22C169.677 134.553 167.133 135.477 164.297 135.84L78.4505 147.176C75.1114 147.606 71.6209 147.238 68.7368 146.152C65.8528 145.066 63.8081 143.35 63.047 141.376C59.537 132.104 58.7405 129.712 58.7405 129.712C58.8097 128.53 58.7013 127.347 58.4165 126.176C57.161 118.808 52.409 113.376 56.297 106.488L64.9505 129.256C65.6618 131.17 67.6232 132.84 70.4059 133.9C73.1886 134.96 76.5663 135.324 79.8005 134.912L154.968 125C158.2 124.559 161.007 123.379 162.777 121.717C164.547 120.056 165.137 118.047 164.418 116.128L156.818 95.92C158.505 95.24 160.125 94.504 161.691 93.728C175.731 130.896 174.408 126.888 174.368 128.504H174.381Z" fill="#FF5100"/>
<path d="M118.951 131.4C117.819 132.036 116.999 132.842 116.576 133.732C116.153 134.622 116.143 135.563 116.548 136.456C116.922 137.432 117.842 138.304 119.157 138.932C120.473 139.559 122.108 139.904 123.797 139.912C125.46 139.919 127.068 139.561 128.313 138.909C129.559 138.256 130.354 137.354 130.547 136.376C130.743 135.477 130.568 134.563 130.036 133.713C129.505 132.863 128.633 132.102 127.496 131.496C126.331 130.871 124.824 130.518 123.254 130.5C121.683 130.482 120.155 130.802 118.951 131.4ZM125.701 139.136C118.951 140.44 115.184 135.608 118.951 132.4C119.81 131.8 121.012 131.41 122.327 131.302C123.641 131.194 124.977 131.377 126.079 131.816C130.061 133.496 130.979 138.096 125.701 139.152V139.136ZM103.466 42.5039C104.897 41.8973 106.517 41.4649 108.232 41.2319C109.163 41.1359 109.487 41.0959 109.582 40.9359C109.586 40.8845 109.558 40.834 109.503 40.7941C109.448 40.7542 109.37 40.7278 109.285 40.7199C107.06 40.7779 104.943 41.3057 103.318 42.2079C103.28 42.2304 103.254 42.2583 103.241 42.289C103.228 42.3196 103.229 42.3517 103.244 42.382C103.259 42.4123 103.288 42.4396 103.327 42.461C103.366 42.4825 103.414 42.4973 103.466 42.5039ZM109.298 42.5999C108.33 42.4398 107.313 42.4098 106.323 42.5123C105.333 42.6147 104.394 42.8469 103.574 43.1919C103.523 43.216 103.486 43.2495 103.47 43.2872C103.454 43.3249 103.46 43.3647 103.486 43.4003C103.512 43.4359 103.558 43.4654 103.615 43.4842C103.673 43.5029 103.739 43.5099 103.804 43.5039C105 43.1091 106.349 42.9051 107.719 42.9119C108.704 42.9119 109.352 43.0959 109.487 42.8399C109.514 42.7932 109.509 42.7422 109.474 42.6975C109.438 42.6528 109.376 42.6179 109.298 42.5999ZM104.182 43.8799C104.135 43.8741 104.086 43.8746 104.039 43.8814C103.992 43.8882 103.949 43.901 103.911 43.919C103.874 43.937 103.844 43.9597 103.823 43.9855C103.803 44.0112 103.792 44.0394 103.792 44.0679C103.792 44.0965 103.803 44.1246 103.823 44.1504C103.844 44.1761 103.874 44.1988 103.911 44.2168C103.949 44.2348 103.992 44.2477 104.039 44.2545C104.086 44.2612 104.135 44.2617 104.182 44.2559C105.039 44.3044 105.857 44.4927 106.544 44.7999C106.588 44.8239 106.643 44.8392 106.702 44.8437C106.761 44.8481 106.82 44.8415 106.873 44.8247C106.925 44.8079 106.967 44.7818 106.993 44.7501C107.019 44.7183 107.027 44.6826 107.017 44.6479C106.668 44.4049 106.233 44.2103 105.743 44.0776C105.253 43.9449 104.72 43.8774 104.182 43.8799ZM92.7337 56.7839C96.0277 55.6719 98.6332 55.6639 101.104 55.2399C101.509 55.2399 101.414 54.8079 101.104 54.8399C98.0435 54.9791 95.0847 55.5526 92.4772 56.5119C92.0587 56.6239 92.3287 56.9359 92.7337 56.7839ZM68.2042 58.1119C71.5072 57.4761 75.0107 57.2929 78.4507 57.5759C78.8287 57.5759 78.8962 57.2399 78.3832 57.1759C74.9142 56.6983 71.279 56.886 68.0017 57.7119C67.6507 57.7519 67.8667 58.1119 68.2042 58.1119Z" fill="#FF5100"/>
<path d="M71.9168 59.8159C73.8316 59.1926 75.8929 58.7423 78.0323 58.4799C78.4752 58.9425 79.1296 59.3217 79.9201 59.5736C80.7107 59.8255 81.6052 59.94 82.5007 59.9039C82.7307 60.3358 83.1725 60.7174 83.7698 60.9999C84.2734 61.2673 84.8919 61.4471 85.5571 61.5195C86.2222 61.5918 86.9082 61.5539 87.5393 61.41C88.1704 61.266 88.7221 61.0215 89.1337 60.7036C89.5453 60.3856 89.8007 60.0064 89.8717 59.6079C90.8076 59.5619 91.7013 59.3571 92.4458 59.0181C93.1904 58.679 93.7544 58.2199 94.0702 57.6959C100.483 57.5519 101.239 57.5839 104.101 57.3919C104.546 57.3919 104.506 56.9839 104.101 56.9519C100.811 56.9358 97.5237 57.048 94.2592 57.2879C94.2942 57.2252 94.3212 57.161 94.3402 57.0959C94.3687 57.0543 94.3817 57.0095 94.3783 56.9647C94.3749 56.9198 94.3552 56.8759 94.3205 56.836C94.2858 56.7961 94.237 56.761 94.1774 56.7333C94.1178 56.7056 94.0489 56.6858 93.9752 56.6753C93.9015 56.6648 93.8249 56.6639 93.7505 56.6726C93.6762 56.6813 93.6059 56.6993 93.5444 56.7256C93.483 56.7519 93.4318 56.7857 93.3944 56.8247C93.357 56.8638 93.3343 56.9072 93.3277 56.9519C93.301 57.0938 93.2467 57.2334 93.1658 57.3679C92.8283 57.3679 92.3153 57.3679 92.3423 57.5839C92.3693 57.7999 92.6798 57.7279 92.9228 57.7279C92.6696 58.0283 92.3129 58.2939 91.8758 58.5075C91.4386 58.7211 90.9306 58.8779 90.3847 58.9679C88.6837 59.1919 87.3742 58.5759 86.3347 57.1039C87.9412 55.8079 87.1987 55.3199 86.3347 55.5039C86.0512 55.5599 86.3348 55.5439 84.8768 55.5439C83.4188 55.5439 83.2567 56.3039 84.3772 56.9039L85.0117 57.2159C84.7147 58.2639 84.0532 59.3759 82.2037 59.3999C81.5647 59.3916 80.9373 59.2973 80.3689 59.124C79.8006 58.9508 79.3062 58.7031 78.9232 58.3999L79.4497 58.3439C79.8007 58.3439 80.0032 57.9599 79.2202 57.9599C76.4692 57.9544 73.7839 58.4578 71.5387 59.3999C71.4926 59.4146 71.4519 59.4345 71.4188 59.4586C71.3857 59.4826 71.361 59.5103 71.3459 59.54C71.3309 59.5697 71.3259 59.6009 71.3311 59.6318C71.3364 59.6626 71.3519 59.6926 71.3768 59.7199C71.4016 59.7472 71.4352 59.7714 71.4758 59.791C71.5164 59.8106 71.5631 59.8252 71.6132 59.8342C71.6633 59.8431 71.716 59.8461 71.768 59.8429C71.8201 59.8398 71.8707 59.8306 71.9168 59.8159ZM85.7677 57.7199C86.0117 58.1421 86.4161 58.5255 86.9498 58.8404C87.4835 59.1552 88.1322 59.3932 88.8457 59.5359C88.8457 59.6559 88.8457 59.7759 88.7647 59.8879C88.6018 60.1357 88.3401 60.3564 88.0019 60.5313C87.6638 60.7062 87.2592 60.8299 86.8228 60.892C86.3864 60.9541 85.9312 60.9527 85.4959 60.8879C85.0606 60.8231 84.6583 60.6968 84.3232 60.5199C83.9116 60.3169 83.5798 60.0629 83.3512 59.7759C84.0077 59.5769 84.5714 59.2853 84.9928 58.9268C85.4142 58.5682 85.6804 58.1537 85.7677 57.7199ZM72.2272 48.1359C72.6862 48.1359 72.7807 47.6799 74.1442 47.1759C74.8171 46.9659 75.5224 46.7945 76.2503 46.6639C76.8173 46.4559 76.5742 45.8639 75.2512 46.0399L74.6032 46.1839C73.4094 46.5088 72.4515 47.0764 71.9032 47.7839C71.875 47.8192 71.8613 47.858 71.8632 47.8971C71.8651 47.9362 71.8825 47.9744 71.9141 48.0087C71.9457 48.0431 71.9905 48.0725 72.045 48.0946C72.0994 48.1167 72.1618 48.1308 72.2272 48.1359ZM93.8813 45.3999C94.2219 45.3959 94.5621 45.4174 94.8938 45.4639C95.6216 45.5802 96.3239 45.7466 96.9863 45.9599C98.3363 45.9599 96.4058 44.7519 93.9893 44.7199C93.5098 44.6917 93.0296 44.7685 92.6393 44.9359C91.9508 45.3519 92.9363 45.5359 93.8813 45.3999ZM81.0562 92.7359C81.1797 92.7241 81.292 92.6866 81.3731 92.6301C81.4542 92.5737 81.4987 92.502 81.4987 92.4279C81.4987 92.3538 81.4542 92.2821 81.3731 92.2256C81.292 92.1692 81.1797 92.1317 81.0562 92.1199C80.9328 92.1317 80.8205 92.1692 80.7394 92.2256C80.6583 92.2821 80.6138 92.3538 80.6138 92.4279C80.6138 92.502 80.6583 92.5737 80.7394 92.6301C80.8205 92.6866 80.9328 92.7241 81.0562 92.7359ZM84.8768 93.1679C85.0002 93.1561 85.1125 93.1186 85.1936 93.0621C85.2747 93.0057 85.3192 92.934 85.3192 92.8599C85.3192 92.7858 85.2747 92.7141 85.1936 92.6576C85.1125 92.6012 85.0002 92.5637 84.8768 92.5519C84.6878 92.5519 84.2962 92.6879 84.3772 92.9199C84.4036 92.9878 84.4666 93.0488 84.5568 93.0936C84.6469 93.1383 84.7593 93.1644 84.8768 93.1679ZM88.9268 91.8639C89.0401 91.8526 89.1429 91.8178 89.2171 91.7659C89.2913 91.7139 89.332 91.648 89.332 91.5799C89.332 91.5118 89.2913 91.4459 89.2171 91.3939C89.1429 91.3419 89.0401 91.3072 88.9268 91.2959C88.8134 91.3072 88.7106 91.3419 88.6364 91.3939C88.5622 91.4459 88.5215 91.5118 88.5215 91.5799C88.5215 91.648 88.5622 91.7139 88.6364 91.7659C88.7106 91.8178 88.8134 91.8526 88.9268 91.8639ZM90.8438 93.4079C90.9655 93.4079 91.0822 93.3792 91.1683 93.3282C91.2544 93.2772 91.3027 93.208 91.3027 93.1359C91.3027 93.0637 91.2544 92.9946 91.1683 92.9436C91.0822 92.8925 90.9655 92.8639 90.8438 92.8639C90.722 92.8639 90.6053 92.8925 90.5192 92.9436C90.4331 92.9946 90.3847 93.0637 90.3847 93.1359C90.3847 93.208 90.4331 93.2772 90.5192 93.3282C90.6053 93.3792 90.722 93.4079 90.8438 93.4079ZM95.8253 91.1519C95.8253 91.0819 95.7783 91.0147 95.6948 90.9652C95.6112 90.9157 95.4979 90.8879 95.3798 90.8879C95.2616 90.8879 95.1483 90.9157 95.0647 90.9652C94.9812 91.0147 94.9342 91.0819 94.9342 91.1519C94.9342 91.2219 94.9812 91.2891 95.0647 91.3386C95.1483 91.3881 95.2616 91.4159 95.3798 91.4159C95.4979 91.4159 95.6112 91.3881 95.6948 91.3386C95.7783 91.2891 95.8253 91.2219 95.8253 91.1519ZM99.4298 92.9999C99.5161 92.9863 99.5925 92.9562 99.647 92.9143C99.7015 92.8723 99.7311 92.8208 99.7311 92.7679C99.7311 92.7149 99.7015 92.6635 99.647 92.6215C99.5925 92.5795 99.5161 92.5494 99.4298 92.5359C99.369 92.5357 99.309 92.544 99.2545 92.5599C99.2 92.5759 99.1525 92.5992 99.1159 92.6279C99.0792 92.6566 99.0543 92.69 99.0432 92.7254C99.032 92.7608 99.035 92.7973 99.0518 92.8319C99.0732 92.8812 99.1223 92.9247 99.191 92.9552C99.2597 92.9857 99.3439 93.0015 99.4298 92.9999ZM107.503 92.2399C107.692 92.2399 107.975 92.1279 107.894 91.9439C107.813 91.7599 107.624 91.7439 107.503 91.7679C107.41 91.7781 107.326 91.8073 107.265 91.8504C107.205 91.8935 107.171 91.9478 107.171 92.0039C107.171 92.06 107.205 92.1143 107.265 92.1574C107.326 92.2005 107.41 92.2297 107.503 92.2399ZM109.231 90.3039C109.352 90.3039 109.469 90.2752 109.555 90.2242C109.641 90.1732 109.69 90.104 109.69 90.0319C109.69 89.9597 109.641 89.8906 109.555 89.8396C109.469 89.7885 109.352 89.7599 109.231 89.7599C109.109 89.7599 108.992 89.7885 108.906 89.8396C108.82 89.8906 108.772 89.9597 108.772 90.0319C108.772 90.104 108.82 90.1732 108.906 90.2242C108.992 90.2752 109.109 90.3039 109.231 90.3039ZM103.277 91.3999C103.399 91.3999 103.516 91.3712 103.602 91.3202C103.688 91.2692 103.736 91.2 103.736 91.1279C103.736 91.0558 103.688 90.9866 103.602 90.9356C103.516 90.8845 103.399 90.8559 103.277 90.8559C103.156 90.8559 103.039 90.8845 102.953 90.9356C102.867 90.9866 102.818 91.0558 102.818 91.1279C102.818 91.2 102.867 91.2692 102.953 91.3202C103.039 91.3712 103.156 91.3999 103.277 91.3999ZM79.0988 94.4159C79.1716 94.4158 79.2435 94.4059 79.3091 94.3871C79.3747 94.3683 79.4324 94.341 79.4777 94.3072C79.5231 94.2734 79.5551 94.234 79.5713 94.1918C79.5874 94.1497 79.5874 94.106 79.5713 94.0639C79.5627 94.0112 79.5258 93.9615 79.4661 93.922C79.4064 93.8826 79.327 93.8556 79.2395 93.8448C79.1519 93.8341 79.0609 93.8403 78.9797 93.8624C78.8985 93.8845 78.8314 93.9215 78.7882 93.9679C78.7451 94.0079 78.7189 94.0535 78.7117 94.1008C78.7046 94.1481 78.7167 94.1957 78.7472 94.2397C78.7776 94.2836 78.8255 94.3225 78.8867 94.3532C78.9478 94.3839 79.0206 94.4054 79.0988 94.4159ZM101.968 121.928L80.5567 124.576C79.2119 124.744 78.0256 125.209 77.2398 125.877C76.4539 126.546 76.1275 127.366 76.3272 128.172C76.5269 128.978 77.2375 129.708 78.3144 130.214C79.3912 130.72 80.7532 130.964 82.1228 130.896C82.7168 130.896 80.9752 130.968 104.087 128.168C104.84 128.126 105.57 127.99 106.23 127.77C106.889 127.55 107.463 127.25 107.914 126.89C108.365 126.531 108.684 126.118 108.849 125.681C109.014 125.243 109.022 124.79 108.873 124.351C108.724 123.911 108.42 123.495 107.982 123.129C107.544 122.764 106.981 122.457 106.33 122.229C105.679 122 104.954 121.855 104.203 121.803C103.451 121.752 102.69 121.794 101.968 121.928ZM103.844 127.432L82.5007 130.08C81.4784 130.166 80.4395 130.017 79.5962 129.664C78.753 129.311 78.1691 128.78 77.964 128.18C77.7589 127.581 77.9479 126.957 78.4926 126.438C79.0372 125.918 79.8963 125.541 80.8942 125.384C96.9187 123.376 101.293 122.816 102.494 122.688C103.524 122.612 104.564 122.767 105.411 123.122C106.258 123.477 106.85 124.007 107.071 124.608C107.264 125.231 107.034 125.875 106.429 126.398C105.825 126.921 104.895 127.281 103.844 127.4V127.432Z" fill="#FF5100"/>
<path d="M100.995 124.784C99.3211 124.912 92.7466 126.496 82.6351 127.368C82.2436 127.368 82.2841 127.744 82.6351 127.744C85.8616 127.744 98.4301 126.144 101.279 125.224C101.347 125.191 101.396 125.146 101.419 125.096C101.441 125.045 101.437 124.992 101.405 124.943C101.374 124.895 101.317 124.853 101.244 124.824C101.17 124.796 101.083 124.782 100.995 124.784ZM144.6 116.792C139.605 117.832 139.47 122.056 144.519 122.648C145.194 122.713 145.885 122.696 146.548 122.597C147.211 122.497 147.833 122.318 148.375 122.071C148.916 121.823 149.367 121.513 149.697 121.158C150.028 120.803 150.232 120.412 150.297 120.008C151.256 118.208 147.678 116.288 144.6 116.792ZM145.64 122.168C145.096 122.196 144.548 122.153 144.035 122.043C143.522 121.932 143.057 121.756 142.671 121.527C142.285 121.299 141.988 121.023 141.801 120.719C141.614 120.415 141.542 120.09 141.59 119.768C141.873 118.28 144.128 116.936 146.531 117.368C151.593 118.44 149.258 121.992 145.694 122.168H145.64Z" fill="#FF5100"/>
<path d="M144.398 118.848C144.017 118.864 143.658 118.961 143.386 119.12C142.873 119.576 143.264 119.92 144.02 119.92C143.912 120.552 143.791 121.32 144.736 121.352C145.06 121.352 146.464 121.192 147.22 121.096C147.309 121.1 147.399 121.094 147.484 121.077C147.569 121.059 147.647 121.032 147.713 120.996C147.779 120.959 147.832 120.916 147.868 120.867C147.904 120.818 147.922 120.765 147.922 120.712C147.922 120.44 147.922 120.888 147.773 119.752C148.151 119.752 148.327 119.648 148.34 119.464L148.259 118.976C148.258 118.941 148.244 118.907 148.22 118.876C148.196 118.844 148.162 118.815 148.119 118.792C148.077 118.768 148.027 118.749 147.972 118.737C147.917 118.725 147.859 118.719 147.8 118.72C147.436 118.72 146.896 118.76 146.896 118.76C146.896 118.76 147.49 118.648 147.571 118.4C147.598 118.34 147.597 118.277 147.569 118.217C147.54 118.157 147.485 118.103 147.409 118.061C147.333 118.018 147.239 117.988 147.136 117.975C147.034 117.961 146.928 117.965 146.828 117.984C146.601 118.057 146.4 118.156 146.238 118.276C146.076 118.395 145.955 118.533 145.883 118.68C144.911 117.632 143.399 118.28 144.398 118.848ZM146.869 119.768C146.869 120.136 146.963 120.288 147.017 120.568C146.518 120.568 145.262 120.792 144.79 120.832C144.774 120.787 144.774 120.741 144.79 120.696V119.896C145.476 119.82 146.171 119.777 146.869 119.768ZM133.301 117.704C129.251 117.44 126.551 119.872 127.672 122.072C128.095 122.695 128.834 123.225 129.786 123.589C130.739 123.953 131.858 124.133 132.991 124.104C139.201 123.864 139.741 118.072 133.301 117.704ZM136.001 122.712C135.172 123.23 134.029 123.532 132.825 123.552C131.62 123.571 130.451 123.307 129.575 122.816C128.866 122.39 128.414 121.838 128.288 121.245C128.162 120.652 128.369 120.05 128.878 119.534C129.386 119.017 130.168 118.615 131.102 118.388C132.036 118.161 133.07 118.123 134.044 118.28C134.778 118.42 135.44 118.668 135.968 119.002C136.495 119.335 136.871 119.743 137.06 120.186C137.249 120.629 137.245 121.093 137.048 121.535C136.851 121.977 136.468 122.382 135.934 122.712H136.001ZM153.565 117.968L155.657 118.528C155.023 119.176 154.442 119.824 153.929 120.44C153.868 120.498 153.849 120.569 153.876 120.635C153.902 120.702 153.973 120.76 154.071 120.796C154.169 120.832 154.288 120.844 154.401 120.828C154.513 120.812 154.611 120.77 154.672 120.712C155.306 120.144 156.022 119.528 156.71 118.808C157.426 119.024 157.669 119.072 159.005 119.4C159.29 119.507 159.632 119.547 159.964 119.512C160.031 119.5 160.092 119.479 160.143 119.451C160.193 119.422 160.232 119.387 160.256 119.348C160.279 119.309 160.287 119.268 160.279 119.227C160.27 119.186 160.246 119.146 160.207 119.112C159.896 118.88 159.869 118.912 157.237 118.312C157.898 117.632 159.181 116.64 158.276 116.472C157.615 116.352 156.926 117.272 156.157 118.072L153.902 117.528C153.376 117.352 153.079 117.848 153.565 117.968ZM103.439 111.288C100.82 111.504 96.4598 112.216 88.4678 113.144C76.9523 114.488 77.3168 114.304 73.4828 114.92C73.3996 114.933 73.3262 114.962 73.2739 115.003C73.2215 115.043 73.1932 115.093 73.1932 115.144C73.1932 115.195 73.2215 115.245 73.2739 115.285C73.3262 115.326 73.3996 115.355 73.4828 115.368C75.9668 115.368 98.9303 112.656 103.628 111.864C103.743 111.841 103.84 111.794 103.901 111.732C103.961 111.67 103.982 111.597 103.959 111.527C103.936 111.457 103.871 111.394 103.775 111.35C103.679 111.306 103.56 111.284 103.439 111.288ZM115.441 105.424C119.491 104.976 123.878 104.624 127.942 104.048C128.455 104.048 128.414 103.512 127.942 103.544C120.139 104.008 72.2813 109.72 71.5658 110.432C70.6613 111.304 82.1633 109 115.441 105.424ZM137.918 105.904C136.244 105.256 134.3 105.848 133.22 106.784C131.33 108.792 132.005 110.672 133.355 112.84C133.22 112.84 74.2793 119.784 74.1848 119.904C74.0903 120.024 74.1848 120.208 74.4548 120.208C78.2483 120.208 129.008 114.2 133.72 113.392C134.109 113.994 134.56 114.582 135.07 115.152C135.123 115.205 135.198 115.249 135.288 115.28C135.377 115.31 135.479 115.327 135.583 115.328C136.231 115.328 141.901 113.016 143.224 112.456C145.141 111.656 147.112 110.776 147.409 109.368C147.922 106.888 142.414 106.312 139.673 107.768C139.522 107.035 138.892 106.365 137.918 105.904ZM41.1098 19.248C40.3026 18.967 39.3821 18.8208 38.446 18.8248C37.5099 18.8288 36.5931 18.983 35.793 19.271C34.9929 19.5589 34.3392 19.9699 33.9015 20.4602C33.4637 20.9506 33.2582 21.502 33.3068 22.056C33.2629 22.0906 33.2393 22.1327 33.2393 22.176C33.2393 22.2193 33.2629 22.2614 33.3068 22.296C33.9519 22.7653 34.7967 23.1241 35.754 23.3352C36.7113 23.5463 37.7464 23.6022 38.7523 23.497C39.7582 23.3918 40.6985 23.1294 41.4761 22.7368C42.2536 22.3443 42.8402 21.8358 43.1753 21.264C43.5398 21.088 43.3238 20.864 43.2698 20.76C42.9108 20.1081 42.1355 19.5654 41.1098 19.248ZM33.9008 22.112C33.941 21.5848 34.229 21.0748 34.7323 20.6394C35.2356 20.204 35.9342 19.8607 36.7493 19.648C34.9673 20.448 35.5208 22.696 37.6538 22.92C36.2763 22.9383 34.9372 22.65 33.9008 22.112ZM38.9768 22.792C39.4652 22.5752 39.8475 22.2854 40.0848 21.9523C40.322 21.6191 40.4055 21.2546 40.3268 20.896C40.2837 20.5705 40.0893 20.2584 39.7653 19.9944C39.4412 19.7303 39.0001 19.5246 38.4908 19.4C39.2781 19.4022 40.0473 19.5403 40.7043 19.7975C41.3612 20.0546 41.8774 20.4197 42.1898 20.848C41.9629 21.2978 41.5578 21.709 41.0083 22.0472C40.4588 22.3853 39.7807 22.6407 39.0308 22.792H38.9768ZM48.0083 18.176C47.9829 18.1098 47.9189 18.051 47.8275 18.01C47.7361 17.969 47.6232 17.9484 47.5088 17.952C46.6583 17.952 47.3063 18.56 46.1588 20.424C46.1344 20.4702 46.137 20.52 46.1661 20.5652C46.1952 20.6105 46.2491 20.6487 46.3192 20.6736C46.3893 20.6985 46.4714 20.7087 46.5525 20.7026C46.6336 20.6966 46.7089 20.6745 46.7663 20.64C47.0639 20.3405 47.2996 20.0209 47.4683 19.688C47.7113 20.432 47.9678 21.152 48.2243 21.84C48.2402 21.881 48.2696 21.9197 48.3108 21.9539C48.352 21.9882 48.4042 22.0173 48.4644 22.0395C48.5245 22.0618 48.5915 22.0769 48.6615 22.0838C48.7315 22.0908 48.8031 22.0895 48.8723 22.08C48.9414 22.0706 49.0067 22.0531 49.0645 22.0287C49.1223 22.0043 49.1714 21.9734 49.209 21.9377C49.2466 21.9021 49.272 21.8624 49.2837 21.8209C49.2954 21.7794 49.2932 21.737 49.2773 21.696C48.8993 20.544 48.4673 19.4 48.0083 18.176ZM56.4323 20.36C55.2038 20.488 54.4343 20.576 53.4758 20.728C54.4412 19.9973 54.9896 19.1036 55.0418 18.176C55.0054 17.9189 54.8372 17.6746 54.5597 17.4758C54.2821 17.277 53.9086 17.1333 53.4893 17.064C53.098 16.9801 52.6729 16.9692 52.2709 17.0326C51.8688 17.0961 51.5092 17.2309 51.2403 17.4191C50.9713 17.6072 50.806 17.8395 50.7664 18.085C50.7268 18.3304 50.8148 18.5771 51.0188 18.792C51.1133 19.024 51.7748 18.792 51.6803 18.656C51.5615 18.4626 51.5599 18.2507 51.6756 18.0566C51.7914 17.8625 52.0173 17.6983 52.3148 17.592C52.6185 17.5179 52.9575 17.5119 53.2681 17.5752C53.5788 17.6385 53.8398 17.7668 54.0023 17.936C54.1109 18.2091 54.1214 18.4927 54.033 18.7684C53.9447 19.044 53.7594 19.3056 53.4893 19.536C52.2338 21.008 51.3293 21.136 51.8693 21.472C51.9281 21.5097 52.0032 21.5372 52.0866 21.5513C52.1699 21.5654 52.2582 21.5656 52.3418 21.552C53.8247 21.4307 55.291 21.2462 56.7293 21C56.8388 20.9616 56.924 20.9028 56.9717 20.8329C57.0194 20.7629 57.027 20.6856 56.9932 20.6128C56.9594 20.54 56.8862 20.4759 56.7849 20.4302C56.6835 20.3845 56.5596 20.3599 56.4323 20.36ZM62.3588 19.536C62.5535 19.2017 62.5643 18.8394 62.3897 18.5012C62.215 18.163 61.8639 17.8664 61.3868 17.6539C60.9097 17.4414 60.3312 17.3241 59.7345 17.3187C59.1378 17.3133 58.5535 17.4202 58.0658 17.624C57.9789 17.3859 57.8137 17.1603 57.5798 16.96C58.6162 16.8834 59.6269 16.7134 60.5768 16.456C60.7025 16.4418 60.8193 16.4074 60.9145 16.3566C61.0097 16.3059 61.0796 16.2406 61.1168 16.168C61.1383 16.1072 61.1279 16.0439 61.0868 15.9867C61.0458 15.9294 60.9761 15.881 60.8873 15.848C60.5093 15.712 60.0638 15.896 59.7668 15.968C54.3668 17.192 57.3638 16.248 57.2558 18.232C57.2583 18.2933 57.2937 18.3525 57.3569 18.401C57.4201 18.4495 57.5078 18.4848 57.6072 18.5017C57.7065 18.5187 57.8124 18.5164 57.9095 18.4952C58.0065 18.4741 58.0896 18.4351 58.1468 18.384C58.18 18.3642 58.2034 18.3392 58.2143 18.312C58.483 18.0929 58.8826 17.9428 59.3316 17.8923C59.7806 17.8418 60.2452 17.8946 60.6308 18.04C60.8914 18.1531 61.0984 18.3041 61.2316 18.4785C61.3649 18.6529 61.4199 18.8447 61.3914 19.0354C61.3629 19.2261 61.2518 19.4092 61.0689 19.5669C60.886 19.7247 60.6374 19.8519 60.3473 19.936C59.6585 20.0893 58.9163 20.1388 58.1873 20.08C57.7823 20.08 57.5933 20.328 57.8633 20.472C58.2446 20.6306 58.6843 20.733 59.1459 20.7707C59.6074 20.8084 60.0775 20.7803 60.517 20.6888C60.9566 20.5973 61.353 20.445 61.6733 20.2445C61.9936 20.044 62.2286 19.8011 62.3588 19.536ZM63.7763 18.344C64.6319 18.2852 65.4768 18.1808 66.3008 18.032C66.3201 18.5752 66.4701 19.1139 66.7463 19.632C66.8001 19.6779 66.8743 19.7141 66.9607 19.7366C67.047 19.7591 67.1421 19.7671 67.2356 19.7596C67.3291 19.7522 67.4173 19.7296 67.4905 19.6944C67.5638 19.6592 67.6192 19.6127 67.6508 19.56C67.7291 18.9829 67.6237 18.4021 67.3403 17.848C67.8412 17.8061 68.3105 17.6781 68.6903 17.48C68.7403 17.4422 68.7732 17.3974 68.7856 17.3499C68.798 17.3024 68.7895 17.2538 68.761 17.2088C68.7326 17.1638 68.685 17.1239 68.623 17.0929C68.5609 17.062 68.4864 17.041 68.4068 17.032C66.7598 16.904 67.2863 17.664 66.8543 16.408C66.8543 16.3422 66.8102 16.2792 66.7317 16.2326C66.6532 16.1861 66.5467 16.16 66.4358 16.16C66.3248 16.16 66.2183 16.1861 66.1398 16.2326C66.0614 16.2792 66.0173 16.3422 66.0173 16.408C66.0173 16.536 66.0173 16.48 66.1118 17.304C65.6258 17.384 65.1938 17.48 64.7618 17.584C64.3298 17.688 65.0858 16.712 65.2478 15.456C65.2489 15.4144 65.2252 15.3739 65.1807 15.3416C65.1362 15.3094 65.0738 15.2876 65.0048 15.28C64.5188 15.224 64.5053 15.528 63.5333 17.96C63.4822 18.0302 63.4791 18.1094 63.5244 18.181C63.5697 18.2526 63.6599 18.311 63.7763 18.344Z" fill="#FF5100"/>
<path d="M71.7 18.5281C74.6565 18.5281 75.3315 15.6241 72.4695 14.3921C71.025 13.7761 69.594 13.9281 68.946 14.9281C68.136 16.2801 69.351 18.5281 71.7 18.5281ZM72.4155 15.3281C73.563 16.1921 73.266 17.5921 71.9565 17.8801C70.647 18.1681 69.54 16.9121 69.648 15.7841C69.8235 14.2401 71.4435 14.5281 72.456 15.2961L72.4155 15.3281Z" fill="#FF5100"/>
<path d="M77.4245 17.7999C80.732 17.7999 81.4745 14.5199 78.5585 13.3839C78.2909 13.2625 77.9806 13.1784 77.6506 13.1379C77.3205 13.0974 76.9794 13.1015 76.6524 13.1499C76.3255 13.1984 76.0212 13.2899 75.7622 13.4177C75.5032 13.5454 75.2961 13.7062 75.1565 13.8879C74.7955 14.2042 74.5814 14.5711 74.5355 14.9519C74.0225 16.1999 75.2105 17.7999 77.4245 17.7999ZM75.602 14.3599C75.6783 14.2311 75.7993 14.1132 75.9574 14.0139C76.1154 13.9145 76.3068 13.8359 76.5193 13.7831C76.7317 13.7304 76.9605 13.7046 77.1909 13.7075C77.4212 13.7104 77.6479 13.7419 77.8565 13.7999C79.976 14.5999 79.5575 17.5759 76.5875 16.9999C76.1601 16.8218 75.8191 16.5802 75.5988 16.2994C75.3785 16.0186 75.2864 15.7084 75.332 15.3999C75.3225 15.0467 75.4138 14.6951 75.602 14.3599ZM81.6635 16.4319C81.92 16.4319 81.3665 16.4319 83.189 16.2719C84.161 16.1839 84.0125 16.1999 85.403 16.0319C85.8877 16.02 86.3564 15.9256 86.753 15.7599C86.8643 15.6926 86.9266 15.6022 86.9266 15.5079C86.9266 15.4137 86.8643 15.3232 86.753 15.2559C86.429 15.0639 85.619 15.1359 85.2005 15.2559C83.729 15.4479 83.9315 15.4159 83.0135 15.5679C83.7077 14.9218 84.1675 14.1971 84.3635 13.4399C84.539 12.6399 83.405 11.9279 82.298 12.1519C82.0756 12.1898 81.8781 12.2671 81.732 12.3734C81.5859 12.4796 81.4981 12.6099 81.4805 12.7466C81.4629 12.8833 81.5162 13.0199 81.6334 13.1381C81.7505 13.2563 81.9259 13.3505 82.136 13.4079C82.8785 13.5999 82.9189 13.0639 82.6219 13.0399C82.5555 13.0289 82.4976 13.0045 82.4581 12.9709C82.4187 12.9374 82.4003 12.8967 82.406 12.8559C82.406 12.5759 82.865 12.5919 83.1215 12.7279C84.215 13.3599 82.4195 15.1679 81.2855 15.9279C81.2347 15.9738 81.2041 16.0265 81.1966 16.0812C81.1891 16.1359 81.2049 16.1909 81.2425 16.241C81.2801 16.2912 81.3384 16.3349 81.4119 16.3683C81.4854 16.4016 81.5719 16.4235 81.6635 16.4319ZM87.995 14.3119C88.4675 14.3119 88.3325 14.1519 88.9805 12.8239C89.9255 15.2239 89.9795 15.3759 90.4655 15.5119C90.5388 15.5457 90.6291 15.564 90.722 15.564C90.8148 15.564 90.9051 15.5457 90.9785 15.5119C91.3295 15.2319 91.181 15.1039 90.2765 13.2159C89.5205 11.6559 89.5205 11.5759 89.0075 11.5679C88.9119 11.5709 88.8209 11.5931 88.7497 11.631C88.6785 11.6688 88.6313 11.72 88.616 11.7759C88.3595 12.5199 88.022 13.2479 87.6305 14.0559C87.6319 14.117 87.669 14.1759 87.7354 14.2226C87.8019 14.2693 87.8936 14.3008 87.995 14.3119ZM130.493 100.808L132.261 101.816C132.68 102.128 133.719 102.752 134.381 102.752C135.042 102.752 135.731 102.2 136.217 101.768C137.452 100.93 138.397 99.9573 138.998 98.9039C139.605 97.0399 135.636 95.5919 133.679 98.1039C132.207 96.7279 126.632 97.1359 127.793 98.9039C128.433 99.6535 129.357 100.305 130.493 100.808ZM176.217 46.7759C175.77 46.6027 175.241 46.52 174.708 46.5402C174.175 46.5604 173.667 46.6824 173.261 46.8879C172.291 47.4761 171.598 48.2041 171.249 48.9999C170.517 50.0053 169.877 51.0334 169.332 52.0799C169.076 52.7279 169.683 52.7279 169.926 52.6079C172.329 52.7199 180.321 51.6319 180.146 50.0319C180.009 49.6554 179.632 49.3246 179.094 49.1085C178.556 48.8924 177.898 48.8077 177.257 48.8719C177.454 48.5009 177.461 48.1034 177.276 47.7302C177.091 47.3569 176.722 47.0247 176.217 46.7759ZM175.907 73.4239C177.824 71.8799 179.565 70.0479 179.201 67.9519C179.165 67.4006 178.923 66.8608 178.494 66.3712C178.064 65.8816 177.458 65.4544 176.717 65.1199C175.016 64.5199 173.085 65.3839 171.789 65.9679C165.228 68.8959 163.19 73.8799 161.354 78.1519C160.976 79.0559 160.571 79.9839 160.341 80.8959C159.491 82.6319 161.786 82.9919 163.743 83.0879C169.535 83.3519 178.013 81.4079 183.872 80.4319C186.707 79.9599 191.459 79.1679 191.378 76.7199C191.324 74.0239 183.224 71.5279 175.907 73.4239ZM168.347 45.6799C168.397 45.7197 168.462 45.7519 168.537 45.7742C168.612 45.7964 168.695 45.8079 168.779 45.8079C168.863 45.8079 168.945 45.7964 169.02 45.7742C169.095 45.7519 169.161 45.7197 169.211 45.6799C173.155 42.2485 176.683 38.6554 179.768 34.9279C182.265 31.7279 179.228 27.6079 173.544 28.3359C171.222 28.6559 169.211 29.7199 167.577 31.4959C167.022 30.3819 165.772 29.4351 164.081 28.8479C158.478 26.9759 152.093 30.5759 155.184 33.8959C158.778 38.1159 163.196 42.0711 168.347 45.6799ZM77.1005 51.6239C77.1106 51.8477 77.1604 52.0703 77.249 52.2879C77.33 52.7679 77.438 53.2799 78.248 53.2799C78.3543 53.2779 78.459 53.2634 78.5559 53.2373C78.6529 53.2113 78.7402 53.1742 78.8129 53.1281C78.8857 53.082 78.9423 53.0279 78.9798 52.9689C79.0172 52.9098 79.0346 52.847 79.031 52.7839C78.9035 52.3503 78.7092 51.9245 78.4505 51.5119C78.3847 51.4309 78.2772 51.3644 78.1435 51.3219C78.0097 51.2795 77.8567 51.2633 77.7064 51.2758C77.5562 51.2882 77.4165 51.3287 77.3076 51.3913C77.1987 51.4538 77.1261 51.5353 77.1005 51.6239ZM92.585 50.3279C92.4394 50.2628 92.2585 50.2317 92.0768 50.2406C91.895 50.2494 91.7251 50.2976 91.5995 50.3759C91.019 50.5359 90.9245 52.4079 92.207 52.4079C92.4026 52.4115 92.5938 52.3729 92.7452 52.2994C92.8966 52.2259 92.9979 52.1223 93.0305 52.0079C93.0305 51.6479 92.9495 51.6879 92.9495 51.4479C92.9495 50.5999 92.8415 50.4479 92.585 50.3279ZM135.447 119.704C134.84 119.04 133.247 119.248 132.747 119.936C132.619 119.838 132.458 119.756 132.275 119.696C132.091 119.636 131.889 119.599 131.68 119.587C131.472 119.575 131.261 119.589 131.062 119.627C130.862 119.665 130.678 119.726 130.52 119.808C130.294 119.929 130.114 120.078 129.994 120.244C129.874 120.411 129.815 120.59 129.823 120.771C129.831 120.952 129.904 121.129 130.039 121.292C130.173 121.454 130.365 121.598 130.601 121.712C131.411 122.054 132.274 122.348 133.179 122.592C133.32 122.647 133.483 122.681 133.652 122.688C134.03 122.688 134.192 122.328 134.34 122.16C135.258 121.048 135.866 120.464 135.447 119.704ZM118.329 121.856C118.559 122.656 118.761 123.552 118.856 123.816L121.421 123.464C121.61 123.464 121.623 123.52 120.948 121.568C120.062 121.613 119.184 121.709 118.329 121.856Z" fill="#FF5100"/>
<path d="M118.465 119.752C117.487 119.98 116.632 120.361 115.99 120.854C115.349 121.347 114.944 121.934 114.82 122.552C114.706 122.943 114.738 123.344 114.911 123.726C115.085 124.109 115.397 124.465 115.826 124.77C116.255 125.074 116.79 125.32 117.395 125.489C118 125.659 118.66 125.748 119.329 125.752C120.366 125.725 121.375 125.54 122.257 125.215C123.139 124.89 123.865 124.436 124.364 123.896C125.876 121.8 122.528 119.08 118.465 119.752ZM122.515 123.576V123.688C122.218 124.12 121.786 124.16 119.396 124.408L119.018 124.448C118.876 124.475 118.727 124.485 118.578 124.477C118.429 124.469 118.285 124.443 118.154 124.4C118.048 124.359 117.96 124.303 117.896 124.238C117.833 124.172 117.797 124.099 117.79 124.024C117.79 123.944 117.79 123.712 117.682 123.416C117.528 122.887 117.443 122.352 117.425 121.816C117.371 121.714 117.371 121.606 117.425 121.504C117.472 121.441 117.542 121.385 117.631 121.34C117.72 121.296 117.825 121.264 117.938 121.248C118.941 121.092 119.96 120.977 120.989 120.904C121.169 120.902 121.344 120.935 121.49 120.997C121.636 121.059 121.744 121.147 121.799 121.248C122.056 122 122.204 122.472 122.312 122.784C122.457 123.039 122.526 123.307 122.515 123.576Z" fill="#FF5100"/>
</svg>
