<svg width="237" height="162" viewBox="0 0 237 162" fill="none" xmlns="http://www.w3.org/2000/svg">
<path fill-rule="evenodd" clip-rule="evenodd" d="M156.316 38.9992C156.804 39.118 157.324 39.1717 157.844 39.1571C158.364 39.1425 158.874 39.0599 159.345 38.9142C159.037 39.3702 158.488 39.7384 157.798 39.9512C157.783 39.954 157.768 39.9588 157.756 39.9652C157.743 39.9716 157.733 39.9796 157.725 39.9887C157.717 39.9977 157.712 40.0077 157.71 40.0181C157.708 40.0284 157.709 40.0389 157.714 40.049C157.718 40.059 157.725 40.0684 157.735 40.0766C157.745 40.0849 157.757 40.0917 157.771 40.0969C157.785 40.102 157.8 40.1053 157.816 40.1065C157.832 40.1078 157.848 40.107 157.863 40.1042C159.735 39.8577 160.203 38.5232 160.307 38.4042C160.323 38.3613 160.316 38.3161 160.288 38.2759C160.26 38.2358 160.212 38.2031 160.151 38.1832C159.54 37.9537 160.151 38.8037 156.394 38.8292C156.377 38.8259 156.359 38.8248 156.341 38.8259C156.324 38.8271 156.306 38.8306 156.291 38.8361C156.275 38.8416 156.261 38.8491 156.25 38.8581C156.239 38.8672 156.23 38.8776 156.225 38.8887C156.22 38.8999 156.218 38.9116 156.22 38.9232C156.222 38.9348 156.227 38.946 156.236 38.9563C156.244 38.9666 156.256 38.9756 156.269 38.983C156.283 38.9904 156.299 38.9959 156.316 38.9992ZM77.5881 41.9997C77.6124 42.0153 77.6451 42.024 77.6791 42.024C77.7132 42.024 77.7458 42.0153 77.7701 41.9997C77.9391 41.8127 77.2371 42.0932 77.3021 40.4612C77.818 40.718 78.4366 40.8716 79.0831 40.9032C79.1011 40.9071 79.1201 40.9083 79.1389 40.9069C79.1576 40.9054 79.1757 40.9013 79.1918 40.8949C79.2078 40.8884 79.2216 40.8797 79.232 40.8694C79.2424 40.8591 79.2493 40.8474 79.2521 40.8352C79.256 40.8117 79.2461 40.7881 79.2244 40.7692C79.2026 40.7502 79.1708 40.7374 79.1351 40.7332C78.9036 40.6712 78.6779 40.6002 78.4591 40.5207C77.9726 40.361 77.5797 40.1012 77.3411 39.7812C77.3157 39.7373 77.2687 39.7002 77.2076 39.6756C77.1464 39.651 77.0745 39.6403 77.0031 39.6452C76.4051 39.6452 76.3921 41.6597 77.5881 41.9997ZM78.7581 35.3527C79.3118 35.2487 79.8023 35.0349 80.1621 34.7407C80.1961 34.7313 80.2232 34.7137 80.2377 34.6915C80.2523 34.6693 80.2531 34.6443 80.2401 34.6217C80.2166 34.6086 80.1866 34.6013 80.1556 34.6013C80.1247 34.6013 80.0947 34.6086 80.0711 34.6217C79.7883 34.6087 79.5056 34.6491 79.2568 34.738C79.0079 34.8269 78.8033 34.9606 78.6671 35.1232C78.6285 35.169 78.598 35.2175 78.5761 35.2677C78.4461 35.3187 78.6411 35.4377 78.7581 35.3527Z" fill="#FF5100"/>
<path fill-rule="evenodd" clip-rule="evenodd" d="M225.619 77.1896C225.346 66.6921 223.539 0.434603 223.539 0.434603C223.539 0.403743 223.528 0.37331 223.508 0.34542C223.487 0.31753 223.458 0.292852 223.422 0.273103C223.388 0.251793 223.346 0.236063 223.301 0.227199C223.256 0.218335 223.208 0.216589 223.162 0.222103L116.9 9.4021C116.77 9.4021 116.835 9.4786 116.835 9.5636V55.6336C114.846 55.6336 81.6309 56.3901 81.6309 56.3901C81.5964 56.3901 81.5634 56.3991 81.539 56.415C81.5146 56.4309 81.5009 56.4526 81.5009 56.4751C81.5008 56.487 81.5046 56.4988 81.5119 56.5097C81.5192 56.5206 81.53 56.5304 81.5435 56.5384C81.5569 56.5464 81.5729 56.5525 81.5902 56.5562C81.6075 56.56 81.6258 56.5613 81.6439 56.5601L99.8439 56.3136C99.8439 56.6536 100.741 70.1601 100.806 70.7636C100.91 71.8856 101.326 75.4556 101.352 75.6086C101.179 75.5699 101.01 75.5245 100.845 75.4726C96.6867 74.3097 92.4077 73.3411 88.0399 72.5741C86.7399 72.3616 85.5569 72.1831 84.3999 72.0386C84.2481 67.4671 83.4518 62.9145 82.0209 58.4386C80.9029 55.1746 79.2389 52.0296 76.8209 49.9386C75.4749 48.7537 73.9362 47.6679 72.2319 46.7001L72.3229 44.4561C73.2004 44.6171 74.1034 44.7112 75.0139 44.7366C76.5829 44.8218 78.151 44.5647 79.4729 44.0056C80.9809 43.3086 82.0729 41.9996 81.9949 39.6451C82.7489 39.6451 83.5549 39.7811 83.5549 39.4411C83.5549 38.8546 80.8379 35.2761 80.7729 33.6696C80.9557 33.6358 81.1428 33.613 81.3319 33.6016C82.4499 33.6016 88.8069 32.6411 89.2099 32.2501C89.4403 32.0561 89.5599 31.8156 89.5479 31.5701L80.6429 32.4201C78.0429 27.9491 76.8599 27.0311 74.1429 26.6911C69.9439 26.1726 62.4429 27.0056 60.1419 29.3176C58.8419 30.5501 58.8419 33.0151 58.8419 34.6301C58.8135 35.1052 58.8615 35.581 58.9849 36.0496V36.2366C59.0765 36.5279 59.2115 36.8125 59.3879 37.0866C59.6125 37.4498 59.9004 37.795 60.2459 38.1151C60.712 38.5492 61.2828 38.931 61.9359 39.2456C61.7929 39.4666 60.8179 40.9456 60.6359 41.2006C60.4539 41.4556 59.5309 42.9856 59.4139 43.1811C54.4999 43.3001 49.4429 45.1276 45.3999 50.1001C42.4626 53.9114 40.558 58.0269 39.7709 62.2636C39.1003 65.4153 38.7572 68.5931 38.7439 71.7751C38.6161 74.9847 38.8682 78.1959 39.4979 81.3801C39.4979 81.3801 39.6799 85.7236 39.9789 88.6816C39.4329 88.6816 38.9779 89.2426 38.8219 89.6761C38.6738 90.0765 38.6125 90.4885 38.6399 90.9001C38.2323 90.4683 37.7284 90.0787 37.1449 89.7441C36.2609 89.2681 34.9089 88.8431 33.9079 89.4636C32.6079 90.3136 31.7499 92.5916 31.3859 93.7646C29.9169 91.7161 27.2649 91.3166 25.5879 94.3681C23.2869 91.2911 21.0769 91.5376 20.5049 93.3056C19.7769 92.1921 18.4379 91.3166 17.4889 92.2771C17.1561 92.6691 16.9234 93.0941 16.7999 93.5351C15.5649 91.9456 13.6019 92.2091 13.1209 93.0166C12.9204 93.4749 12.9204 93.9608 13.1209 94.4191C13.1209 94.4416 13.1346 94.4633 13.159 94.4792C13.1834 94.4951 13.2164 94.5041 13.2509 94.5041C13.2854 94.5041 13.3184 94.4951 13.3428 94.4792C13.3672 94.4633 13.3809 94.4416 13.3809 94.4191C13.2029 94.0021 13.2029 93.5611 13.3809 93.1441C13.4737 93.0178 13.6129 92.9084 13.7861 92.8257C13.9592 92.743 14.1609 92.6897 14.3732 92.6703C14.5856 92.6509 14.8019 92.6662 15.003 92.7148C15.2041 92.7633 15.3838 92.8437 15.5259 92.9486C16.5139 93.5181 16.4749 94.2831 16.8259 94.2661C16.8799 94.2614 16.9303 94.2458 16.9699 94.2214C17.0096 94.197 17.0365 94.165 17.0469 94.1301C17.1639 94.0451 17.6449 90.9851 19.4259 92.9316C19.7903 93.357 20.0699 93.8112 20.2579 94.2831C20.2764 94.3305 20.3214 94.3716 20.384 94.3983C20.4465 94.425 20.5221 94.4355 20.5959 94.4276C20.6685 94.42 20.7351 94.3966 20.7847 94.361C20.8342 94.3255 20.8639 94.2801 20.8689 94.2321C20.8689 94.1471 21.1549 91.0616 23.7159 93.2886C24.3263 93.8464 24.8367 94.4481 25.2369 95.0821C25.2624 95.126 25.3093 95.1632 25.3705 95.1878C25.4316 95.2124 25.5035 95.223 25.5749 95.2181C25.6437 95.2168 25.7098 95.2001 25.7619 95.1706C25.814 95.1412 25.849 95.1009 25.8609 95.0566C26.0949 94.7931 27.4079 91.3336 29.9299 93.1951C30.47 93.6244 30.8683 94.1222 31.0999 94.6571C31.1154 94.7051 31.1567 94.7478 31.2164 94.7774C31.2761 94.8071 31.3501 94.8217 31.4249 94.8186C31.4998 94.8157 31.5712 94.7966 31.6277 94.7643C31.6842 94.732 31.7226 94.6883 31.7369 94.6401C31.7369 94.5551 32.9589 89.4296 34.9739 89.5401C35.6266 89.5881 36.2424 89.7628 36.7419 90.0416C37.526 90.4761 38.171 91.0076 38.6399 91.6056C38.6554 91.6383 38.6902 91.6656 38.7365 91.6815C38.7828 91.6975 38.8369 91.7007 38.8869 91.6906C38.9369 91.6805 38.9787 91.6577 39.0031 91.6275C39.0274 91.5972 39.0324 91.5618 39.0169 91.5291C38.8748 90.9491 38.8748 90.3581 39.0169 89.7781C39.0496 89.6016 39.1456 89.4327 39.2969 89.285C39.4483 89.1373 39.6507 89.015 39.8879 88.9281C41.6299 105.512 47.3369 135.287 49.5729 146.643L0.380904 155.194C0.346426 155.201 0.317469 155.216 0.300403 155.237C0.283337 155.258 0.27956 155.282 0.289904 155.305C0.300247 155.327 0.323864 155.346 0.355557 155.357C0.387251 155.368 0.424426 155.371 0.458904 155.364L49.7289 147C50.2489 149.61 50.5609 151.14 50.5609 151.14H51.2499C50.4699 156.019 51.1459 155.619 53.4469 155.449C55.9895 155.219 58.511 154.899 60.9999 154.489C62.6912 154.249 64.345 153.908 65.9399 153.469C66.2373 153.378 66.5167 153.264 66.7719 153.129C66.916 153.055 67.0281 152.959 67.0969 152.848C67.8769 151.471 60.0509 151.811 57.8019 151.922V150.808H58.5689L59.5439 145.292L67.1489 143.974C69.8269 151.82 71.8679 157.71 71.8679 157.71H72.7779C72.6869 158.28 72.5439 159.41 72.5439 160.303C72.5439 161.943 72.8039 161.841 75.0269 161.68C77.5777 161.471 80.1081 161.167 82.6059 160.77C92.5769 159.215 89.9769 157.676 79.3949 158.22V157.736H81.5919C81.5919 153.086 81.6959 147.476 81.8519 141.424L117.498 135.1C117.531 135.096 117.561 135.084 117.583 135.067C117.604 135.05 117.615 135.029 117.615 135.007C117.615 135.007 117.381 77.8271 117.368 77.3596L120.657 77.0876C120.657 77.7081 120.254 135.007 120.254 135.007C120.254 135.031 120.269 135.055 120.296 135.073C120.323 135.09 120.359 135.1 120.397 135.1C120.433 135.098 120.466 135.087 120.49 135.07C120.514 135.053 120.527 135.03 120.527 135.007C120.527 135.007 120.93 77.6401 120.93 77.0621L123.777 76.8241C123.777 77.7761 123.621 135.687 123.621 135.687C123.62 135.715 123.631 135.743 123.651 135.769C123.672 135.794 123.701 135.815 123.738 135.831C123.776 135.843 123.819 135.849 123.861 135.849C123.904 135.849 123.946 135.843 123.985 135.831L148.984 131.114C149.712 134.165 150.531 137.166 151.48 140.056L151.675 140.217C152.053 140.307 152.439 140.381 152.832 140.438L152.728 141.594C152.729 141.639 152.757 141.682 152.806 141.713V142.291L151.87 142.58C151.558 142.682 151.194 142.81 150.817 142.954L150.271 143.184C150.011 143.303 149.764 143.43 149.491 143.566C149.471 143.582 149.46 143.601 149.46 143.621C149.46 143.642 149.471 143.661 149.491 143.677C148.672 143.915 144.018 145.377 144.694 146.915C145.695 149.227 161.074 144.901 161.074 144.901V144.051C161.105 144.047 161.133 144.037 161.155 144.021C161.176 144.006 161.189 143.986 161.191 143.966C161.242 143.866 161.281 143.763 161.308 143.66C161.321 143.552 161.321 143.444 161.308 143.337V142.334C161.291 142.253 161.265 142.174 161.23 142.096C161.196 141.991 161.148 141.889 161.087 141.79C161.065 141.743 161.039 141.698 161.009 141.654C161.026 141.618 161.026 141.579 161.009 141.543L160.879 140.022C161.126 139.945 161.386 139.869 161.633 139.775C161.677 139.762 161.715 139.742 161.745 139.716C161.774 139.691 161.794 139.662 161.802 139.631C161.802 139.631 164.402 128.649 164.48 128.292C164.727 128.292 167.08 127.909 167.925 127.765C168.393 127.688 174.594 126.541 175.166 126.43L178.468 125.716C181.068 129.38 184.019 133.205 187.49 137.174L187.776 137.276C187.776 137.276 188.53 137.276 189.635 137.225C190.402 138.628 190.402 138.653 190.571 138.687C190.649 138.891 190.714 139.027 190.805 139.231C190.506 139.435 188.205 141.152 188.491 141.348C187.88 141.773 184.435 144.28 185.891 145.538C188.166 147.425 199.866 139.588 199.866 139.588L199.359 138.789C199.71 138.662 198.852 137.259 197.825 136.571C197.831 136.542 197.831 136.514 197.825 136.486L197.188 135.78C197.747 135.491 198.618 134.777 198.488 134.497C198.488 134.497 195.732 129.014 193.73 122.877L197.63 122.163C197.63 122.163 197.812 122.112 197.812 122.07V18.0381C197.812 17.9446 197.812 17.8511 197.63 17.8426L133.189 11.9521L216.389 6.0021C216.389 8.0251 220.419 152.117 220.419 152.117C220.422 152.139 220.436 152.16 220.46 152.175C220.484 152.191 220.515 152.2 220.549 152.202C220.567 152.202 220.585 152.2 220.602 152.195C220.619 152.19 220.633 152.183 220.646 152.174C220.658 152.165 220.667 152.155 220.673 152.144C220.679 152.132 220.681 152.12 220.679 152.109L217 5.7556C217 5.72547 216.991 5.6956 216.973 5.66782C216.956 5.64005 216.929 5.61496 216.896 5.5941C216.862 5.57279 216.82 5.55706 216.775 5.5482C216.73 5.53934 216.682 5.53759 216.636 5.5431L124.427 12.2326C124.297 12.2326 123.985 12.3091 123.985 12.3941V55.5231L121.281 55.5656V11.3656L218.781 3.3756C218.859 5.9851 223.591 153.035 223.591 153.035C223.594 153.058 223.611 153.08 223.637 153.096C223.664 153.112 223.698 153.12 223.734 153.12C223.752 153.12 223.77 153.118 223.787 153.113C223.804 153.108 223.819 153.101 223.831 153.092C223.843 153.083 223.852 153.073 223.858 153.062C223.864 153.05 223.866 153.038 223.864 153.027L219.444 3.1461C219.444 3.11524 219.433 3.08481 219.413 3.05692C219.392 3.02903 219.363 3.00435 219.327 2.9846C219.254 2.94632 219.16 2.92805 219.067 2.9336L121.203 11.0596C121.073 11.0596 120.891 11.1446 120.891 11.2296V55.5741L117.238 55.6336V9.7336L222.889 0.681103C222.954 3.0356 227.257 153.945 227.257 153.945C227.266 153.964 227.284 153.98 227.309 153.992C227.333 154.004 227.363 154.01 227.393 154.01C227.424 154.01 227.454 154.004 227.478 153.992C227.503 153.98 227.521 153.964 227.53 153.945C227.53 153.945 225.814 84.9501 225.619 77.1896ZM83.5159 66.8111C83.9839 69.7691 84.0099 71.2311 84.0879 72.0301C82.432 71.7915 80.7254 71.7426 79.0439 71.8856C79.0267 71.8876 79.0102 71.8919 78.9956 71.8982C78.9809 71.9044 78.9684 71.9126 78.9587 71.9221C78.949 71.9316 78.9423 71.9424 78.9391 71.9536C78.9358 71.9649 78.9361 71.9764 78.9399 71.9876C78.943 71.9989 78.9495 72.0096 78.9591 72.0192C78.9687 72.0288 78.9812 72.037 78.9958 72.0433C79.0103 72.0497 79.0267 72.054 79.0439 72.0561C79.0611 72.0583 79.0788 72.0581 79.0959 72.0556C81.0589 71.8091 84.3999 72.2171 87.8969 72.8376C92.2239 73.6326 96.4595 74.6268 100.572 75.8126C101.877 76.1622 103.26 76.3717 104.667 76.4331C106.737 76.5561 108.817 76.5902 110.894 76.5351H111.05C112.224 76.0478 113.47 75.6378 114.768 75.3111C114.846 75.3049 114.924 75.3049 115.002 75.3111C114.125 76.1289 113.118 76.8839 111.999 77.5636C111.949 77.5942 111.916 77.6343 111.903 77.6781C111.89 77.7218 111.899 77.7672 111.928 77.8076C111.956 77.848 112.004 77.8815 112.063 77.9033C112.123 77.9251 112.191 77.9341 112.259 77.9291L114.703 77.7506C114.22 78.3622 113.573 78.9122 112.792 79.3741C110.374 80.7001 108.06 78.8726 101.43 79.3061C98.8299 79.4761 91.7059 81.2611 84.8419 81.8561C80.7729 82.2301 76.7949 82.1961 73.9349 81.1166C71.3349 80.1646 69.4239 78.2436 67.9419 76.1186C66.0291 73.1815 64.6799 70.1009 63.9249 66.9471C65.3679 66.9471 82.6319 66.8366 83.5289 66.8196L83.5159 66.8111ZM113.936 77.3001L113.091 77.3596L113.845 76.8411C113.831 76.9965 113.862 77.1522 113.936 77.3001ZM84.5039 82.2556C91.3289 81.7031 98.9599 79.8246 101.482 79.7056C105.603 79.4336 107.852 80.0626 110.582 80.2751C113.585 80.5131 115.431 77.6316 115.548 77.5466L117.108 77.4191C117.108 77.9206 116.991 92.7191 116.991 93.2546C114.872 89.7781 111.466 89.8036 110.998 92.4046C110.53 91.5546 109.516 89.9736 108.19 89.7611C106.864 89.5486 106.227 90.2456 105.837 91.0106C105.239 90.3901 104.225 89.5741 103.107 89.4976C101.989 89.4211 100.702 90.7811 100.143 91.5291C100.045 91.1815 99.8655 90.846 99.6099 90.5346C99.5061 90.38 99.3513 90.2424 99.1567 90.1314C98.9621 90.0204 98.7325 89.9389 98.4842 89.8926C98.2358 89.8463 97.975 89.8364 97.7201 89.8637C97.4653 89.8909 97.2228 89.9546 97.0099 90.0501C96.551 90.3483 96.1963 90.7078 95.9699 91.1041C95.6563 91.6154 95.4 92.141 95.2029 92.6766C95.0859 91.9881 94.8129 91.3251 93.7339 91.3081C93.2737 91.3302 92.8282 91.4234 92.4339 91.5801C92.1521 91.3023 91.7953 91.0603 91.3809 90.8661C90.2239 90.3476 88.4429 90.2286 88.1959 91.3506C87.4289 90.4496 84.7249 88.8856 83.9969 89.7356C84.3219 81.1846 84.5429 82.7911 84.5039 82.2811V82.2556ZM83.4899 66.6156C82.6059 66.6156 62.2349 66.4881 61.2989 66.4881C61.2151 65.7156 61.2151 64.9401 61.2989 64.1676C61.7279 64.1676 65.5369 64.2526 66.5769 64.2696C67.6169 64.2866 76.9769 64.2696 77.7179 64.2696L83.0999 64.1506C83.2169 65.0091 83.3599 65.8336 83.4899 66.6156ZM60.8439 37.8856C60.5237 37.5911 60.2452 37.2781 60.0119 36.9506C59.8468 36.7127 59.7036 36.4686 59.5829 36.2196C64.6515 36.1331 69.6868 35.6567 74.5849 34.8001C73.5579 37.5711 73.2069 36.3216 72.5439 39.1776H71.4519C71.3479 38.9396 72.0889 36.4746 69.2679 36.2196C68.9487 36.1886 68.6233 36.1999 68.3109 36.2528C67.9986 36.3058 67.7057 36.3993 67.4498 36.5277C67.1938 36.6562 66.98 36.8171 66.8212 37.0007C66.6623 37.1843 66.5615 37.387 66.5249 37.5966C66.4156 38.0457 66.5738 38.505 66.9669 38.8801C67.3145 39.1789 67.8036 39.3941 68.3579 39.4921C67.9931 39.8726 67.5211 40.2043 66.9669 40.4696C65.8619 41.0391 63.4439 40.4186 62.1829 39.9936C62.5079 39.5431 62.7159 39.2371 62.7159 39.2371C62.7504 39.188 62.7562 39.1324 62.7323 39.0807C62.7083 39.0291 62.6562 38.9849 62.5859 38.9566C61.9122 38.6704 61.3222 38.3077 60.8439 37.8856ZM62.0659 40.2146C62.9549 40.5562 63.9134 40.8138 64.9129 40.9796C65.5677 41.1049 66.2665 41.0899 66.9074 40.937C67.5482 40.7841 68.0975 40.5012 68.4749 40.1296C68.8779 39.8321 69.3719 39.2796 68.7869 39.2286C68.525 39.2079 68.2727 39.1515 68.0462 39.063C67.8198 38.9745 67.6243 38.8559 67.4723 38.7149C67.3204 38.5739 67.2154 38.4136 67.1642 38.2444C67.1129 38.0752 67.1166 37.9008 67.1749 37.7326C67.2018 37.5801 67.2757 37.4326 67.3919 37.2992C67.5082 37.1658 67.6646 37.0491 67.8516 36.9562C68.0386 36.8633 68.2524 36.7961 68.4802 36.7586C68.7079 36.7212 68.9449 36.7142 69.1769 36.7381C69.6539 36.7994 70.0805 36.972 70.3771 37.2238C70.6738 37.4756 70.8201 37.7894 70.7889 38.1066C70.9189 38.8886 70.4899 39.7216 71.1399 39.7046L72.8299 39.6281C72.9041 39.6265 72.9749 39.6076 73.0297 39.5749C73.0845 39.5422 73.1197 39.4977 73.1289 39.4496C73.1289 39.4496 73.2589 38.6846 73.4799 38.0046C73.9219 36.6616 74.2599 37.3331 74.9749 34.7831C77.4969 34.3581 79.4339 33.9331 80.4999 33.7631C80.4999 35.2846 82.3329 38.2171 82.8399 39.2796C82.1249 39.3221 81.2929 39.1436 81.3189 39.5006C81.5139 41.7871 80.5129 43.0451 79.0959 43.7506C77.8892 44.2547 76.4692 44.4957 75.0399 44.4391C74.0702 44.4282 73.1059 44.3426 72.1669 44.1841C71.5429 44.0566 72.0369 45.1191 71.9459 46.6236C68.5269 44.7536 64.2499 43.2916 59.8169 43.2661C60.7139 42.0761 62.0009 40.3081 62.0659 40.2146ZM65.6799 153.078C64.1243 153.499 62.5146 153.828 60.8699 154.064C58.2699 154.489 55.2539 154.846 53.3689 155.007C52.8088 155.06 52.2445 155.091 51.6789 155.101C51.1979 154.302 51.5099 151.361 51.5099 151.08L57.5809 150.834L57.4639 152.049C57.4512 152.08 57.4512 152.112 57.4639 152.143C57.4865 152.149 57.5108 152.152 57.5354 152.152C57.56 152.152 57.5843 152.149 57.6069 152.143C61.2209 152.194 68.9819 152.1 65.6799 153.078ZM59.6999 144.799L61.8839 132.338C55.0589 111.938 55.0589 106.634 55.0589 106.634C56.5279 112.363 62.6249 130.502 67.0709 143.524L59.6999 144.799ZM73.2979 161.348C73.2979 161.348 73.2459 161.365 73.2589 161.348H73.2979ZM87.3379 159.342C84.3999 160.26 75.0009 161.45 73.2849 161.365C73.0026 160.15 72.9415 158.918 73.1029 157.693H79.1999C79.1999 158.11 79.0699 158.305 79.1999 158.39C79.2459 158.402 79.297 158.402 79.3429 158.39C82.7879 158.458 90.6139 158.314 87.2989 159.342H87.3379ZM81.2929 83.4201C78.9269 83.5901 76.5479 83.7176 74.1689 83.8111C71.7899 83.9046 69.6969 83.9471 67.4609 83.9556C65.2249 83.9641 62.9109 83.9556 60.6359 83.8451C48.4159 83.4031 41.5129 81.7541 40.5379 81.5246C39.9269 81.3886 39.8619 81.3631 39.7319 81.3291C39.2744 78.1423 39.0791 74.9416 39.1469 71.7411C39.2308 68.5746 39.6216 65.4148 40.3169 62.2806C41.1339 58.0979 43.033 54.0365 45.9329 50.2701C50.1839 45.1701 55.4879 43.4106 60.6619 43.6571C66.7069 43.9461 72.5569 46.8956 76.2619 50.1766C78.6409 52.2506 80.2919 55.3446 81.4619 58.5491C82.1249 60.3681 82.6059 62.2296 82.9829 63.9636L75.4169 63.8531C74.3249 63.8531 61.6759 63.9636 61.2469 63.9806C61.2469 63.0031 61.4159 61.9321 61.5329 60.9716C61.7409 59.2716 61.9619 57.8776 61.9619 57.8776C61.9619 57.8776 61.9619 57.7841 61.8449 57.7841C61.8268 57.7817 61.8082 57.7817 61.7902 57.7844C61.7722 57.787 61.7553 57.7921 61.7405 57.7993C61.7257 57.8066 61.7135 57.8158 61.7046 57.8263C61.6957 57.8369 61.6904 57.8486 61.6889 57.8606C61.6889 57.8606 61.4289 59.0081 61.1429 60.4956C60.9999 61.3456 60.8439 62.2551 60.7269 63.1476C60.5364 64.3429 60.5364 65.5478 60.7269 66.7431C60.7393 66.7911 60.7776 66.8347 60.8348 66.8658C60.892 66.897 60.9644 66.9138 61.0389 66.9131H63.6389C64.3424 70.1068 65.6525 73.2305 67.5389 76.2121C69.0339 78.4136 71.0489 80.4026 73.6749 81.4056C76.2665 82.2555 79.1769 82.6007 82.0599 82.4001C82.6926 82.4001 83.3296 82.3661 83.9709 82.2981C83.819 82.5727 83.819 82.8735 83.9709 83.1481L81.2929 83.4201ZM105.72 136.911L81.9039 140.957C82.3849 122.894 83.8929 90.2286 83.8929 90.2286C83.9285 90.2265 83.9617 90.2157 83.9857 90.1984C84.0098 90.1811 84.0231 90.1585 84.0229 90.1351C84.0229 90.1351 84.0229 89.6761 84.5299 89.6676C85.0957 89.7238 85.6194 89.8965 86.0249 90.1606C86.6158 90.4531 87.1258 90.8096 87.5329 91.2146C87.7789 91.4655 87.9714 91.7372 88.1049 92.0221C88.1506 92.2173 88.2157 92.4104 88.2999 92.6001C88.3169 92.6337 88.3503 92.6626 88.3949 92.6826C88.4395 92.7026 88.4929 92.7124 88.5469 92.7106C88.602 92.7045 88.6519 92.6857 88.6877 92.6577C88.7235 92.6296 88.7427 92.5941 88.7419 92.5576C88.7293 92.396 88.6856 92.2361 88.6119 92.0816C88.555 91.7966 88.5904 91.507 88.7159 91.2316C88.7701 91.1126 88.8878 91.0102 89.0476 90.9431C89.2075 90.8761 89.3988 90.8487 89.5869 90.8661C90.1079 90.8795 90.6106 90.995 91.0299 91.1976C91.4505 91.3979 91.7933 91.6599 92.0309 91.9626C92.0503 91.9878 92.0777 92.0099 92.1113 92.0275C92.145 92.0452 92.1841 92.0578 92.2259 92.0646C92.2629 92.0749 92.3027 92.0802 92.3429 92.0802C92.3831 92.0802 92.4229 92.0749 92.4599 92.0646C92.8407 91.886 93.2919 91.7827 93.7599 91.7671C93.8817 91.7669 94.0012 91.7892 94.1046 91.8313C94.208 91.8733 94.2913 91.9336 94.3449 92.0051C94.5623 92.3679 94.6726 92.7544 94.6699 93.1441C94.7025 93.7622 94.6764 94.3811 94.5919 94.9971C94.6029 95.0323 94.6279 95.065 94.6644 95.0919C94.701 95.1188 94.7477 95.1388 94.7999 95.1501C94.8409 95.1537 94.8826 95.1519 94.9226 95.1448C94.9625 95.1377 94.9999 95.1255 95.0326 95.1089C95.0652 95.0923 95.0925 95.0716 95.1128 95.048C95.1332 95.0245 95.1461 94.9985 95.1509 94.9716C95.3735 93.8877 95.7389 92.8184 96.2429 91.7756C96.4557 91.3066 96.7946 90.8662 97.2439 90.4751C97.3159 90.41 97.4094 90.3564 97.5174 90.3181C97.6254 90.2799 97.7452 90.258 97.8679 90.2541C98.114 90.2609 98.3527 90.3111 98.5586 90.3994C98.7646 90.4877 98.9302 90.6108 99.0379 90.7556C99.4074 91.2509 99.6028 91.794 99.6099 92.3451C99.6084 92.3948 99.6336 92.4433 99.6811 92.4821C99.7286 92.521 99.7954 92.5477 99.8699 92.5576C99.9471 92.5671 100.027 92.5587 100.096 92.5339C100.165 92.5091 100.218 92.4694 100.247 92.4216C100.634 91.7933 101.117 91.1924 101.69 90.6281C101.917 90.4201 102.184 90.2316 102.483 90.0671C102.642 89.9831 102.838 89.9354 103.042 89.9311C103.517 89.9885 103.949 90.1504 104.264 90.3901C104.813 90.7663 105.281 91.1895 105.655 91.6481C105.687 91.6873 105.736 91.719 105.797 91.7388C105.857 91.7586 105.926 91.7655 105.993 91.7586C106.058 91.7502 106.119 91.7297 106.167 91.6996C106.216 91.6695 106.25 91.631 106.266 91.5886C106.374 91.1537 106.641 90.7424 107.046 90.3901C107.163 90.2936 107.318 90.2203 107.495 90.1782C107.672 90.1362 107.863 90.1272 108.047 90.1521C108.309 90.2057 108.543 90.3057 108.723 90.4411C109.038 90.6697 109.312 90.9206 109.542 91.1891C110.114 91.8898 110.584 92.624 110.946 93.3821C110.964 93.4227 111.005 93.4574 111.06 93.4794C111.115 93.5014 111.181 93.5092 111.245 93.5011C111.276 93.499 111.306 93.4929 111.333 93.4832C111.36 93.4735 111.384 93.4603 111.403 93.4445C111.423 93.4287 111.437 93.4105 111.445 93.3911C111.454 93.3716 111.457 93.3512 111.453 93.3311C111.378 92.7002 111.506 92.066 111.83 91.4696C111.925 91.2885 112.098 91.1294 112.329 91.0117C112.56 90.8939 112.838 90.8227 113.13 90.8066C113.498 90.8233 113.857 90.8911 114.182 91.0054C114.507 91.1197 114.791 91.2779 115.015 91.4696C115.762 92.0575 116.367 92.7168 116.809 93.4246C116.815 93.4353 116.824 93.4451 116.835 93.4535C116.847 93.4619 116.861 93.4686 116.877 93.4734C116.893 93.4781 116.91 93.4808 116.927 93.4812C116.944 93.4816 116.962 93.4797 116.978 93.4756C116.978 93.4756 117.329 134.522 117.342 134.973C116.64 135.1 112.324 135.797 105.72 136.911ZM115.509 77.3001C115.327 77.1386 115.054 77.2491 114.469 77.3001C114.554 77.0341 114.527 76.7579 114.391 76.5011C114.729 76.2461 115.041 75.9911 115.275 75.7786C115.492 75.6016 115.636 75.3907 115.691 75.1666C115.693 75.1007 115.662 75.0362 115.604 74.9826C115.545 74.929 115.462 74.8892 115.366 74.8691C114.978 74.8268 114.579 74.8624 114.222 74.9711C114.222 74.6991 114.144 70.0326 114.118 69.4631C114.118 68.6641 113.429 59.2631 113.403 58.9911L117.303 58.8466C117.303 59.2036 117.524 69.8031 117.563 70.7466C117.563 71.3926 117.979 76.9006 118.005 77.1386L115.509 77.3001ZM136.53 133.196L124.206 135.423C124.206 134.658 124.05 77.6826 124.037 76.7731L127.534 76.4841C127.807 76.4841 127.794 76.7731 127.794 70.8316C133.774 69.5566 140.794 66.5816 143.797 62.7226V70.5341C137.765 70.6616 138.363 70.9591 135.737 69.8966C135.23 69.6684 134.68 69.4854 134.099 69.3526C133.985 69.3233 133.862 69.3146 133.742 69.3275C133.621 69.3404 133.508 69.3743 133.415 69.4257C133.322 69.4772 133.251 69.5441 133.212 69.6195C133.172 69.695 133.164 69.776 133.189 69.8541C133.267 70.3981 134.489 71.1971 134.112 71.7666C133.274 72.9229 132.084 73.9554 130.615 74.8011C130.056 75.0731 129.809 74.9796 129.757 75.1921C129.748 75.2378 129.763 75.284 129.798 75.3239C129.833 75.3637 129.887 75.395 129.952 75.4131C131.135 75.5491 133.319 76.5351 136.283 74.8606C136.809 74.5766 137.285 74.2544 137.7 73.9001L143.823 74.5971C143.823 82.1451 143.927 89.1406 144.278 95.9491C144.473 99.8421 144.798 104.126 145.266 108.623C145.799 113.723 146.566 119.086 147.567 124.424C147.983 126.617 148.464 128.793 148.971 130.961L136.53 133.196ZM127.794 70.6446V61.0481C128.574 60.4276 128.951 60.1981 131.694 57.8776C133.267 58.0051 140.989 58.8466 143.693 62.4761C143.672 62.4709 143.649 62.4709 143.628 62.4761C140.508 66.1141 133.618 69.0551 127.794 70.6616V70.6446ZM150.557 33.9501C151.857 33.0491 150.362 31.9271 151.727 31.0686C152.012 30.8529 152.36 30.6764 152.751 30.5494C153.141 30.4225 153.567 30.3476 154.002 30.3291C152.785 31.3917 151.994 32.6365 151.701 33.9501H150.557ZM151.636 34.1796C151.405 35.1071 151.283 36.0449 151.272 36.9846H150.544C150.544 36.7126 150.154 34.4346 150.102 34.1966L150.258 34.1201L151.636 34.1796ZM154.379 30.2356C155.441 29.9393 156.579 29.7777 157.733 29.7596C158.838 29.1986 161.217 28.2041 161.217 28.2041C160.285 28.6743 159.416 29.1946 158.617 29.7596C158.487 29.9381 159.137 29.8956 159.917 29.8191C160.323 29.9894 160.679 30.2052 160.97 30.4566C162.569 31.8506 160.242 32.7941 162.01 33.9161H158.11C158.076 33.9083 158.04 33.9083 158.006 33.9161C157.998 33.9251 157.994 33.9354 157.994 33.9459C157.994 33.9563 157.998 33.9666 158.006 33.9756V35.0636C157.784 34.9423 157.511 34.8683 157.222 34.8516C156.934 34.8349 156.645 34.8762 156.394 34.9701C156.602 33.5931 157.499 33.8396 152.182 33.8651C152.455 32.7516 153.144 30.9921 154.262 30.2781C154.287 30.2741 154.31 30.2667 154.33 30.2565C154.35 30.2462 154.367 30.2333 154.379 30.2186V30.2356ZM164.103 34.8766C163.954 35.5918 163.746 36.3012 163.479 37.0016H158.747C158.747 36.7296 158.331 34.3581 158.292 34.1286L162.738 34.2816C163.323 34.4856 163.856 34.5876 164.103 34.8596V34.8766ZM156.017 34.3071L155.458 37.0016H151.883C151.895 36.0689 151.999 35.1376 152.195 34.2136L156.017 34.3071ZM151.883 37.3501H155.783C156.277 37.3501 156.043 36.9506 156.459 35.3101H156.914C156.68 35.6841 155.744 37.5031 156.355 37.5711H157.746C157.778 37.5719 157.809 37.5656 157.835 37.5533C157.861 37.541 157.88 37.5233 157.889 37.5031C157.893 37.4818 157.884 37.4604 157.865 37.443C157.846 37.4257 157.817 37.4137 157.785 37.4096C157.655 37.4096 157.226 37.2821 156.758 37.2056C156.998 36.5678 157.138 35.9155 157.174 35.2591C157.379 35.2587 157.582 35.2847 157.772 35.3356C157.907 35.3673 158.038 35.4071 158.162 35.4546C158.162 35.6161 158.071 34.8426 158.279 37.1546C158.279 37.3671 158.214 37.3416 163.596 37.3841C163.973 38.2341 166.066 38.8291 165.234 39.6281C164.636 40.2061 162.712 40.8946 163.661 41.6596C164.302 42.0379 165.054 42.3271 165.871 42.5096C165.793 42.6259 165.672 42.7281 165.52 42.8071C163.986 43.7846 164.09 45.3571 166.664 44.5751C166.681 44.5604 166.69 44.5425 166.69 44.5241C166.69 44.5057 166.681 44.4878 166.664 44.4731C166.64 44.4599 166.61 44.4527 166.579 44.4527C166.548 44.4527 166.518 44.4599 166.495 44.4731C164.129 45.0596 164.714 43.6911 165.78 43.0706C168.107 41.7106 161.88 42.2206 164.74 40.5206C165.09 40.33 165.404 40.1132 165.676 39.8746C166.404 39.1691 165.676 38.5486 164.753 37.9196C164.486 37.7558 164.277 37.5555 164.142 37.3331C164.186 37.303 164.213 37.2641 164.22 37.2226C164.532 35.7181 165.13 35.5226 164.701 34.8001C164.792 34.1711 164.896 34.1031 164.701 33.9501C164.676 33.9295 164.645 33.9127 164.609 33.9009C164.573 33.8891 164.533 33.8827 164.493 33.8821H162.894C160.138 32.8536 163.843 31.3321 160.229 29.7341L161.165 29.6151C162.01 29.5216 162.933 29.7511 162.894 30.2356C162.764 31.7656 165.039 30.4736 164.818 32.0461C164.701 32.8196 165.182 32.5986 165.871 33.1256C166.56 33.6526 166.404 33.6951 166.092 34.3496C165.78 35.0041 166.261 35.0976 166.729 35.3866C167.418 35.8371 165.559 36.8231 167.639 37.3331C168.25 37.4181 168.328 37.1206 168.835 36.9251C169.914 36.5256 170.473 36.7381 170.746 37.4096C170.835 37.6091 170.856 37.8188 170.809 38.0242C170.762 38.2296 170.647 38.426 170.473 38.5996C169.863 39.1217 169.031 39.5149 168.081 39.7301C168.013 39.7456 167.956 39.7764 167.921 39.8169C167.885 39.8575 167.873 39.9051 167.886 39.9511C168.198 41.1326 168.185 41.2431 169.043 43.8441C162.66 46.4536 159.423 44.6941 158.734 44.2181V42.7476C158.744 42.7328 158.749 42.7169 158.749 42.7009C158.749 42.6848 158.744 42.6689 158.734 42.6541C158.688 42.6423 158.637 42.6423 158.591 42.6541C157.611 42.6501 156.645 42.508 155.757 42.2376C154.87 41.9745 154.094 41.575 153.495 41.0731C152.345 39.982 151.779 38.6733 151.883 37.3501ZM167.483 67.5421C168.524 65.973 169.731 64.4534 171.097 62.9946C171.097 62.9946 181.042 64.0996 185.28 67.9331C185.28 67.9331 177.714 74.6141 173.502 75.4386C169.29 76.2631 156.602 75.2176 143.888 74.5291C143.892 74.5078 143.883 74.4863 143.864 74.469C143.845 74.4517 143.816 74.4397 143.784 74.4356C137.492 73.5856 137.492 73.4411 137.284 73.5856C136.842 73.7896 134.905 76.0506 130.784 75.2006C132.407 74.298 133.711 73.1756 134.606 71.9111C135.048 71.0611 133.475 69.9901 133.696 69.7351C133.823 69.7346 133.948 69.755 134.06 69.7946C136.66 70.4576 135.984 71.1121 140.17 70.9336C141.86 70.8571 143.693 70.7126 143.693 70.7126C143.71 70.7115 143.727 70.7083 143.742 70.703C143.757 70.6977 143.77 70.6905 143.781 70.6818C143.792 70.6731 143.8 70.6631 143.805 70.6523C143.81 70.6416 143.812 70.6303 143.81 70.6191C147.201 70.4121 150.572 70.0887 153.911 69.6501C156.147 69.2336 165.715 67.4996 167.522 67.5506L167.483 67.5421ZM160.736 143.983C160.727 143.994 160.722 144.008 160.722 144.021C160.722 144.034 160.727 144.047 160.736 144.059C159.722 144.773 152.234 146.278 152.234 146.278C151.765 145.256 150.802 144.362 149.491 143.728L150.323 143.515L150.921 143.345C151.324 143.226 151.675 143.099 151.974 142.997L153.027 142.623C153.077 142.608 153.12 142.584 153.15 142.554C153.18 142.524 153.196 142.489 153.196 142.453V141.79H160.359V142.325C160.359 142.427 160.359 142.657 160.437 142.835C160.515 143.014 160.437 143.167 160.515 143.345C160.593 143.524 160.515 143.524 160.515 143.609C160.515 143.694 160.749 143.855 160.775 143.991L160.736 143.983ZM154.054 141.212C154.048 141.251 154.048 141.291 154.054 141.331V141.424H153.118L153.04 140.489C153.374 140.538 153.713 140.575 154.054 140.6V140.71C154.047 140.758 154.047 140.807 154.054 140.855V141.008C154.058 141.079 154.071 141.15 154.093 141.22L154.054 141.212ZM154.704 140.88V140.668C155.28 140.69 155.857 140.69 156.433 140.668V141.144C156.427 141.183 156.427 141.223 156.433 141.263V141.314H154.704V141.237C154.71 141.198 154.71 141.158 154.704 141.118C154.71 141.059 154.71 140.999 154.704 140.94V140.88ZM158.773 141.067C158.783 141.168 158.814 141.269 158.864 141.365H156.953C156.959 141.325 156.959 141.285 156.953 141.246C156.959 141.186 156.959 141.127 156.953 141.067V140.702C157.588 140.664 158.218 140.596 158.838 140.498V141.05L158.773 141.067ZM159.423 140.702C159.43 140.645 159.43 140.588 159.423 140.532C159.43 140.478 159.43 140.424 159.423 140.37C159.782 140.303 160.134 140.221 160.476 140.124L160.372 141.373H159.423C159.432 141.319 159.432 141.265 159.423 141.212C159.436 141.167 159.436 141.121 159.423 141.076C159.429 141.008 159.429 140.94 159.423 140.872C159.475 140.821 159.462 140.761 159.462 140.71L159.423 140.702ZM176.7 125.793C176.167 125.878 175.543 125.971 174.867 126.09C174.191 126.209 168.094 127.323 167.626 127.416L164.402 128.113C165.129 125.118 165.887 122.126 166.677 119.137C167.327 116.274 168.217 113.437 169.342 110.637C169.901 111.785 170.512 112.975 171.162 114.199C172.384 116.451 173.762 118.823 175.348 121.296C176.232 122.682 177.194 124.101 178.208 125.546L176.7 125.793ZM187.841 136.843C183.379 131.761 179.393 126.507 175.907 121.109C174.321 118.653 172.93 116.29 171.695 114.046C169.518 110.082 167.652 106.047 166.105 101.959C164.474 97.8812 163.369 93.7214 162.803 89.5231C162.803 89.5112 162.799 89.4994 162.792 89.4885C162.785 89.4776 162.774 89.4678 162.76 89.4598C162.747 89.4518 162.731 89.4457 162.714 89.442C162.696 89.4382 162.678 89.4369 162.66 89.4381C162.624 89.4402 162.591 89.451 162.567 89.4683C162.543 89.4856 162.53 89.5082 162.53 89.5316C163.038 93.7471 164.091 97.927 165.676 102.027C166.573 104.5 167.73 107.297 169.212 110.348C167.949 113.216 166.976 116.135 166.3 119.086C165.39 122.316 161.256 138.772 161.1 139.486C159.719 139.94 158.21 140.203 156.667 140.26C155.132 140.325 153.592 140.198 152.13 139.886C149.582 131.64 147.768 123.304 146.696 114.921C145.968 109.617 145.461 104.458 145.11 99.7401C144.785 95.4901 144.135 77.4616 144.122 76.7901C158.352 78.2248 172.873 77.8409 186.879 75.6596C186.879 75.9231 187.074 102.01 187.087 103.863C187.188 107.138 187.574 110.408 188.244 113.655C188.634 115.729 189.128 117.905 189.726 120.132C190.168 121.73 190.662 123.353 191.208 124.943C192.599 128.972 196.252 135.687 196.252 135.687C194.081 136.562 190.311 136.86 187.828 136.885L187.841 136.843ZM195.81 136.843L194.094 137.31V137.208C194.023 137.072 193.922 136.943 193.795 136.826C194.384 136.724 194.961 136.596 195.524 136.443C195.558 136.593 195.652 136.733 195.797 136.851L195.81 136.843ZM193.548 137.463L191.949 137.914C191.868 137.627 191.696 137.354 191.442 137.115C192.014 137.055 192.612 136.987 193.21 136.894V137.098C193.31 137.234 193.442 137.36 193.6 137.472L193.548 137.463ZM190.662 138.313C190.441 138.007 190.064 137.531 189.843 137.251L190.909 137.174C190.998 137.484 191.198 137.775 191.494 138.024L190.662 138.313ZM198.774 138.441C198.891 138.588 199.035 138.725 199.203 138.849C198.683 139.767 192.625 143.022 192.625 143.022C191.601 142.188 190.192 141.591 188.608 141.322C191.897 139.282 191.429 139.316 190.831 138.653C192.053 138.339 193.665 137.897 194.861 137.557C196.057 137.217 196.421 137.106 197.461 136.766C197.832 137.346 198.28 137.903 198.8 138.432L198.774 138.441ZM197.214 136.52L196.317 136.732C196.285 136.564 196.182 136.405 196.018 136.273C196.303 136.182 196.577 136.077 196.837 135.959L197.214 136.52ZM197.383 135.032C197.123 135.258 196.807 135.454 196.447 135.61C194.39 132.137 192.798 128.553 191.689 124.9C191.169 123.311 190.701 121.696 190.285 120.089C189.713 117.888 189.232 115.703 188.842 113.638C188.192 110.406 187.806 107.155 187.685 103.897C187.685 101.823 187.217 81.0231 187.1 75.6511L188.4 75.4301C188.4 76.2801 188.569 102.001 188.582 103.897C188.671 107.085 189.009 110.268 189.596 113.434C189.947 115.448 190.389 117.582 190.896 119.741C191.312 121.305 191.767 122.877 192.287 124.424C193.439 128.067 195.115 131.63 197.292 135.066L197.383 135.032ZM197.708 134.616C197.667 134.695 197.615 134.772 197.552 134.845C196.374 132.933 195.384 130.974 194.588 128.98C193.355 125.898 192.362 122.778 191.611 119.63C191.078 117.48 190.636 115.38 190.311 113.34C189.661 109.549 189.336 106.175 189.31 103.854C189.31 101.95 188.764 76.1016 188.738 75.3451L190.038 75.1071C190.038 76.6286 190.87 110.195 190.87 112.694C190.983 115.695 191.523 118.683 192.482 121.619C193.857 126.007 195.597 130.343 197.695 134.607L197.708 134.616ZM194.9 67.7036C195.279 67.9419 195.538 68.2495 195.644 68.586C195.749 68.9226 195.697 69.2722 195.493 69.5888C195.289 69.9053 194.943 70.1741 194.5 70.3595C194.058 70.545 193.54 70.6384 193.015 70.6276C189.674 70.6276 189.518 67.2276 193.015 67.1256C193.372 67.1353 193.723 67.1913 194.046 67.2906C194.37 67.3898 194.66 67.5302 194.9 67.7036ZM193.847 70.9761C193.665 76.8411 193.652 77.8781 191.871 77.8951C190.454 77.8951 190.571 76.7731 190.571 76.6881C190.573 76.6682 190.565 76.6484 190.549 76.6316C190.533 76.6148 190.508 76.6018 190.48 76.5946C190.48 75.7446 190.376 70.1176 190.376 70.1176C190.74 70.4785 191.269 70.7555 191.887 70.9095C192.505 71.0636 193.182 71.0868 193.821 70.9761H193.847ZM124.583 12.5471L131.993 12.0286L197.188 18.2166C197.188 19.8656 197.344 121.067 197.344 122.036L193.535 122.75C193.418 122.359 193.288 121.959 193.171 121.568C192.215 118.657 191.671 115.695 191.546 112.72C191.546 110.221 190.584 80.2071 190.467 77.6996C191.026 78.4476 193.262 78.6431 193.912 77.1556C194.562 75.6681 194.302 72.5316 194.107 70.9166C194.539 70.8084 194.933 70.6435 195.264 70.4321C195.558 70.2371 195.789 70.006 195.945 69.752C196.101 69.498 196.178 69.2263 196.172 68.9527C196.166 68.6791 196.077 68.409 195.91 68.158C195.743 67.9071 195.501 67.6804 195.199 67.4911C194.852 67.2848 194.441 67.1296 193.994 67.0362C193.547 66.9427 193.074 66.9131 192.608 66.9494C192.143 66.9856 191.694 67.0869 191.293 67.2464C190.892 67.4058 190.548 67.6197 190.285 67.8736V63.8191C190.285 63.8191 192.95 57.3336 189.349 52.8966C184.149 46.4876 171.435 44.2266 169.407 43.9036C169.316 43.3681 168.939 41.4726 168.588 40.0786C169.577 39.8292 170.435 39.3983 171.058 38.8376C171.283 38.6191 171.426 38.3695 171.478 38.1084C171.53 37.8473 171.489 37.5819 171.357 37.3331L171.279 37.1971C172.79 35.538 173.256 33.5601 172.579 31.6806C175.062 31.4171 174.555 30.2611 175.322 29.3091C176.089 28.3571 177.714 27.3541 176.479 25.9091C175.244 24.4641 174.178 24.7616 173.086 24.2601C171.994 23.7586 171.123 23.8181 169.446 24.0901C167.769 24.3621 168.406 24.3196 167.041 23.8946C165.676 23.4696 164.558 23.6481 163.05 25.0166C161.542 26.3851 163.544 27.7196 163.544 27.7196C157.434 27.4646 154.717 29.7936 154.262 30.2271C154.132 30.2271 153.144 29.8871 151.376 30.8901C149.608 31.8931 151.376 33.1936 149.738 33.8991C149.114 34.1796 148.438 34.4346 147.996 34.6896C147.582 34.8835 147.237 35.1327 146.982 35.4206C145.682 37.0271 151.077 36.6446 146.384 38.9821C144.226 40.0616 146.293 40.4186 146.384 41.1751C146.384 41.4726 146.033 41.5831 145.747 41.4641C145.721 41.4517 145.689 41.4465 145.657 41.4497C145.625 41.4529 145.597 41.4642 145.578 41.4811C145.559 41.498 145.551 41.5192 145.556 41.5399C145.561 41.5606 145.578 41.5792 145.604 41.5916C146.319 41.9316 147.346 41.3706 146.163 40.3336C145.24 39.4836 146.787 39.4241 148.126 38.5401C148.88 38.0386 149.101 37.6901 148.971 37.3076C148.464 35.9306 145.37 36.3386 149.803 34.3496C149.998 37.8091 149.569 37.3586 151.233 37.3926C151.142 39.5176 152.325 41.7191 155.471 42.5861C156.38 42.8352 157.358 42.9596 158.344 42.9516L158.5 44.1501C145.149 46.7936 138.675 51.5876 130.875 57.9031C129.766 58.7677 128.745 59.6792 127.82 60.6316V55.6761C127.821 55.6472 127.812 55.6184 127.794 55.592C127.776 55.5655 127.749 55.542 127.716 55.5231C127.651 55.48 127.562 55.4555 127.469 55.4551L124.57 55.5061L124.583 12.5471ZM121.385 55.9906L127.157 55.8971C127.157 57.1041 127.235 75.6936 127.235 76.2121L118.33 77.0621C118.33 76.8071 118.213 68.8426 118.174 67.8991C118.174 67.1171 117.667 59.1781 117.641 58.8296L121.255 58.6681C121.324 58.664 121.388 58.6437 121.436 58.6108C121.484 58.578 121.512 58.5349 121.515 58.4896L121.385 55.9906ZM108.58 56.3561L108.957 58.9061C108.963 58.955 108.998 59.0004 109.053 59.0335C109.109 59.0665 109.181 59.0848 109.256 59.0846L113.156 58.9741C113.156 59.2886 113.26 64.2101 113.286 64.9241C113.312 65.6381 113.962 74.7501 113.988 75.0136C112.898 75.3297 111.847 75.6991 110.842 76.1186C108.822 76.17 106.799 76.1416 104.784 76.0336C103.714 75.9838 102.656 75.8613 101.625 75.6681C101.625 75.6681 101.157 66.8876 101.079 65.9016C101.014 65.0516 100.182 56.6706 100.143 56.3221L121.151 56.0161L121.021 58.3196L109.542 58.7276L109.243 56.4326L108.58 56.3561Z" fill="#FF5100"/>
<path fill-rule="evenodd" clip-rule="evenodd" d="M193.042 74.6398L192.457 73.3308C193.289 73.2713 193.185 72.6168 192.379 72.6168C192.219 72.6073 192.059 72.6395 191.935 72.7063C191.811 72.7731 191.732 72.8693 191.716 72.9738C191.726 73.0693 191.79 73.159 191.896 73.2251C192.001 73.2912 192.141 73.3289 192.288 73.3308L191.716 74.5718L193.042 74.6398ZM229 56.7728C228.946 56.9306 228.948 57.0942 229.004 57.2515C229.06 57.4088 229.17 57.5559 229.324 57.6819C229.479 57.8079 229.675 57.9096 229.898 57.9794C230.121 58.0493 230.365 58.0856 230.612 58.0856C230.859 58.0856 231.103 58.0493 231.326 57.9794C231.549 57.9096 231.744 57.8079 231.899 57.6819C232.054 57.5559 232.163 57.4088 232.22 57.2515C232.276 57.0942 232.277 56.9306 232.224 56.7728C232.253 56.6232 232.233 56.4712 232.165 56.327C232.098 56.1828 231.984 56.0496 231.831 55.9364C231.679 55.8232 231.491 55.7325 231.281 55.6704C231.071 55.6083 230.843 55.5762 230.612 55.5762C230.381 55.5762 230.153 55.6083 229.943 55.6704C229.733 55.7325 229.545 55.8232 229.392 55.9364C229.24 56.0496 229.126 56.1828 229.058 56.327C228.991 56.4712 228.971 56.6232 229 56.7728ZM229.611 56.7728C229.533 55.4468 231.704 55.4553 231.626 56.7728C231.561 57.9203 229.676 57.9373 229.611 56.7728Z" fill="#FF5100"/>
<path fill-rule="evenodd" clip-rule="evenodd" d="M236.227 60.4447C236.227 59.9687 235.876 55.0387 235.798 54.1207C235.668 52.8797 235.551 52.0127 235.551 52.0127C235.553 51.9851 235.542 51.9577 235.518 51.9348C235.495 51.9118 235.461 51.8944 235.421 51.8852L233.9 51.5962C233.888 51.5749 233.868 51.5556 233.844 51.5394C233.819 51.5233 233.79 51.5108 233.757 51.5027H233.627L227.465 51.7407C227.433 51.7422 227.403 51.7506 227.38 51.7644C227.356 51.7783 227.341 51.7968 227.335 51.8172C227.335 52.6672 227.244 54.3672 227.257 56.1352C227.257 57.2232 227.426 62.5952 227.426 62.5952C227.432 62.6494 227.469 62.7001 227.529 62.7378C227.589 62.7754 227.668 62.7973 227.751 62.7992H234.082C234.168 62.7989 234.252 62.7777 234.316 62.7397L234.381 62.6802H236.11C236.16 62.6926 236.216 62.6926 236.266 62.6802C236.306 62.6527 236.329 62.6163 236.331 62.5782C236.331 62.5782 236.279 61.6942 236.227 60.4447ZM228.024 62.3487C228.024 61.8387 227.53 52.5652 227.556 51.8937L233.393 51.7917C233.393 51.9702 233.653 61.4987 233.692 62.3487H228.024ZM234.355 62.4762C234.355 61.8812 233.887 51.9787 233.874 51.8002L235.174 52.1062V54.1377C235.174 55.1492 235.551 59.9857 235.603 60.4617C235.694 61.4137 235.785 62.1617 235.824 62.4337L234.355 62.4762ZM79.6159 36.3132C79.5507 36.3094 79.4851 36.3149 79.4234 36.3293C79.3618 36.3437 79.3056 36.3666 79.2587 36.3964C79.2118 36.4263 79.1753 36.4624 79.1517 36.5023C79.1281 36.5422 79.1179 36.585 79.1219 36.6277V37.3417C79.1285 37.4297 79.1857 37.5128 79.2822 37.5743C79.3787 37.6358 79.5072 37.6712 79.6419 37.6732C79.7056 37.6733 79.7687 37.6648 79.8272 37.6484C79.8858 37.632 79.9386 37.6079 79.9824 37.5776C80.0262 37.5474 80.0601 37.5116 80.0821 37.4725C80.104 37.4334 80.1135 37.3918 80.1099 37.3502C80.0709 36.8912 80.2529 36.3387 79.6159 36.3132ZM152.923 35.2507C152.923 35.6672 152.728 36.2027 153.326 36.2197C153.924 36.2367 153.755 35.7267 153.807 35.3272C153.815 35.2892 153.811 35.2507 153.796 35.2137C153.781 35.1767 153.754 35.142 153.719 35.1116C153.683 35.0813 153.639 35.0557 153.588 35.0366C153.537 35.0174 153.481 35.005 153.423 34.9999C153.365 34.9949 153.306 34.9974 153.25 35.0073C153.193 35.0172 153.14 35.0343 153.094 35.0575C153.047 35.0808 153.008 35.1099 152.979 35.143C152.95 35.1762 152.931 35.2127 152.923 35.2507ZM160.281 34.9872C160.222 34.9837 160.164 34.9881 160.108 35.0001C160.052 35.012 160.001 35.0314 159.957 35.0569C159.913 35.0824 159.878 35.1135 159.853 35.1483C159.828 35.1831 159.814 35.2208 159.813 35.2592V35.9052C159.813 35.9818 159.86 36.0554 159.942 36.1096C160.025 36.1638 160.138 36.1942 160.255 36.1942C160.372 36.1942 160.485 36.1638 160.567 36.1096C160.65 36.0554 160.697 35.9818 160.697 35.9052V35.3102C160.698 35.2327 160.657 35.1574 160.581 35.0981C160.504 35.0388 160.398 34.9994 160.281 34.9872Z" fill="#FF5100"/>
</svg>
